<svg xmlns="http://www.w3.org/2000/svg" width="99.963" height="108.175"><g data-name="Group 6"><path data-name="Path 981" d="M35.089 108.175a10.053 10.053 0 01-2.966-2.283q-7.824-7.86-15.678-15.691a9.249 9.249 0 01-.661-.682 1.572 1.572 0 01.068-2.191 1.478 1.478 0 012.1-.068 8.79 8.79 0 01.764.727q8.068 8.065 16.134 16.131c.174.174.345.353.526.52.265.246.547.466.939.294a.815.815 0 00.49-.854c-.008-.281 0-.563 0-.845V85.488c0-1.839.457-2.294 2.315-2.294h46.052c1.675 0 1.711-.037 1.711-1.723V62.564c0-1.353-.112-1.468-1.432-1.471-2.676 0-5.352.022-8.027-.018a1.971 1.971 0 00-1.558.673q-4.382 4.431-8.805 8.821c-1.488 1.485-3.083 1.91-4.677 1.183a3.98 3.98 0 01-2.4-4.085c.043-1.9-.02-3.8.024-5.7.016-.7-.216-.91-.9-.886-1.3.047-2.605.028-3.908.007-1.121-.018-1.75-.574-1.78-1.516-.03-.982.634-1.619 1.777-1.64 1.338-.024 2.676-.029 4.013 0 .581.014.806-.148.8-.767q-.051-3.062 0-6.126c.009-.6-.177-.787-.778-.785q-9.242.027-18.484 0c-.6 0-.787.19-.778.786q.045 3.063 0 6.126c-.01.621.22.774.8.767a366.48 366.48 0 016.548-.006c1.231.007 1.943.614 1.934 1.6s-.706 1.554-1.966 1.558q-4.225.014-8.45 0c-1.484-.005-2.017-.547-2.019-2.059q-.01-9.136-.008-18.273c0-.5.178-1.12-.464-1.388s-.961.27-1.322.63Q19.483 55.525 3.95 71.062c-1 1-1.005 1.136-.023 2.12q4.1 4.111 8.215 8.216c.2.2.4.393.6.6a1.631 1.631 0 01.133 2.426 1.577 1.577 0 01-2.347-.163c-.539-.505-1.051-1.041-1.573-1.564q-3.733-3.735-7.465-7.472c-1.973-1.983-1.967-4.211.021-6.2q8.882-8.893 17.771-17.78a2.222 2.222 0 00.766-.983H14.44c-2.966 0-4.508-1.523-4.51-4.465q-.008-9.77 0-19.54c0-2.884 1.552-4.431 4.437-4.432q21.917-.005 43.834 0c1.8 0 1.8 0 1.805-1.752 0-5.211.022-10.422-.011-15.632a4 4 0 012.39-4.089c1.616-.729 3.187-.33 4.677 1.16q15.727 15.717 31.444 31.443c1.977 1.978 1.959 4.212-.025 6.205q-3.875 3.892-7.766 7.769c-.125.124-.244.255-.378.369a1.61 1.61 0 01-2.278.023 1.576 1.576 0 01.074-2.271c1.347-1.391 2.73-2.747 4.1-4.117l3.658-3.661c1.21-1.212 1.211-1.238.028-2.422L76.352 15.281 65.223 4.153c-.2-.2-.4-.4-.6-.594-.263-.246-.542-.475-.936-.315a.88.88 0 00-.51.949c.006 1.549 0 3.1 0 4.647v13.837c0 1.852-.455 2.314-2.3 2.314H14.931c-1.833 0-1.834 0-1.834 1.813v18.8c0 1.4.094 1.485 1.521 1.487 2.641 0 5.281-.022 7.922.017a1.971 1.971 0 001.564-.66c2.9-2.93 5.836-5.816 8.721-8.755 1.362-1.387 2.9-2.037 4.755-1.257a3.9 3.9 0 012.411 4.172c-.019.386 0 .774 0 1.162 0 1.408.052 2.819-.019 4.224-.045.874.215 1.124 1.1 1.119 6.549-.038 13.1-.021 19.646-.02 2.056 0 2.456.4 2.456 2.47q0 8.82.01 17.639c0 .561-.266 1.286.454 1.6s1.07-.363 1.47-.762q8.526-8.5 17.034-17.023c.224-.224.441-.456.676-.668a1.613 1.613 0 012.272-.125 1.563 1.563 0 01-.029 2.344c-1.42 1.467-2.882 2.893-4.324 4.339-.267.267-.522.546-.964 1.011 2.1 0 3.977.009 5.855 0a5.345 5.345 0 011.871.257 3.8 3.8 0 012.549 3.546q.038 10.4 0 20.808a3.852 3.852 0 01-3.756 3.822c-.385.029-.774.012-1.161.012q-21.917 0-43.834-.024c-1.055 0-1.35.239-1.336 1.325.064 5.14-.055 10.282.065 15.42.057 2.443-.726 4.157-3.021 5.091z" fill="#fff"/></g></svg>