<svg xmlns="http://www.w3.org/2000/svg" width="200" height="48.717"><g data-name="Group 18" fill="#fff"><g data-name="Group 16"><path data-name="Path 999" d="M68.103 22.605h5.43v7.84a12.608 12.608 0 01-3.814 1.748 15.756 15.756 0 01-4.264.609 11.321 11.321 0 01-5.324-1.232 9.2 9.2 0 01-3.695-3.443 10.087 10.087 0 010-10.038 9.145 9.145 0 013.735-3.443 11.677 11.677 0 015.416-1.232 12.433 12.433 0 014.887.914 9.181 9.181 0 013.589 2.662l-4 3.523a5.315 5.315 0 00-4.158-2.039 4.385 4.385 0 00-3.284 1.245 4.638 4.638 0 00-1.218 3.39 4.688 4.688 0 001.205 3.364 4.225 4.225 0 003.218 1.271 5.885 5.885 0 002.278-.45z"/><path data-name="Path 1000" d="M84.152 27.717h-1.7v4.661h-6.246v-18.54h8.926a10.945 10.945 0 014.476.848A6.852 6.852 0 0192.68 24.3a6.36 6.36 0 01-2.6 2.357l3.893 5.721h-6.674zm2.49-8.489a2.782 2.782 0 00-1.907-.569h-2.278v4.344h2.278a2.781 2.781 0 001.907-.569 2.338 2.338 0 000-3.2z"/><g data-name="Group 15"><path data-name="Path 1001" d="M108.572 29.147h-7.048l-1.245 3.231h-6.355l8.1-18.54h6.145l8.1 18.54h-6.463zm-1.722-4.5l-1.8-4.661-1.8 4.661z"/><path data-name="Path 1002" d="M130.687 14.686a6.677 6.677 0 010 12.29 10.941 10.941 0 01-4.476.847h-2.675v4.556h-6.251v-18.54h8.926a10.945 10.945 0 014.476.847zm-2.966 7.747a2.338 2.338 0 000-3.2 2.782 2.782 0 00-1.907-.569h-2.278v4.344h2.278a2.781 2.781 0 001.907-.575z"/><path data-name="Path 1003" d="M154.975 13.838v18.54h-6.252v-6.833h-5.774v6.833h-6.251v-18.54h6.251v6.568h5.774v-6.568z"/><path data-name="Path 1004" d="M157.994 13.838h6.251v18.54h-6.251z"/><path data-name="Path 1005" d="M171.29 18.685h-5.43v-4.847h17.11v4.847h-5.43v13.693h-6.251z"/><path data-name="Path 1006" d="M200 27.663v4.715h-15.415v-18.54h15.07v4.714h-8.926v2.172h7.84v4.5h-7.84v2.439z"/><g data-name="Group 14"><path data-name="Path 1007" d="M170.207 39.298h1.815v2.621a4.21 4.21 0 01-1.275.584 5.265 5.265 0 01-1.426.2 3.783 3.783 0 01-1.779-.412 3.074 3.074 0 01-1.235-1.151 3.371 3.371 0 010-3.355 3.056 3.056 0 011.248-1.151 3.9 3.9 0 011.811-.412 4.155 4.155 0 011.633.306 3.069 3.069 0 011.2.89l-1.337 1.177a1.777 1.777 0 00-1.39-.682 1.466 1.466 0 00-1.1.416 1.55 1.55 0 00-.407 1.133 1.567 1.567 0 00.4 1.124 1.412 1.412 0 001.076.425 1.966 1.966 0 00.761-.151z"/><path data-name="Path 1008" d="M175.572 41.011h-.567v1.558h-2.089v-6.2h2.984a3.66 3.66 0 011.5.283 2.29 2.29 0 011.027 3.214 2.126 2.126 0 01-.868.788l1.3 1.912h-2.231zm.832-2.837a.929.929 0 00-.637-.19h-.761v1.452h.761a.929.929 0 00.637-.19.782.782 0 000-1.071z"/><path data-name="Path 1009" d="M180.964 42.291a3.177 3.177 0 010-5.648 4.088 4.088 0 013.594 0 3.177 3.177 0 010 5.648 4.088 4.088 0 01-3.594 0zm2.5-1.465a1.363 1.363 0 00.5-.54 1.9 1.9 0 000-1.638 1.365 1.365 0 00-.5-.54 1.4 1.4 0 00-1.408 0 1.364 1.364 0 00-.5.54 1.9 1.9 0 000 1.638 1.362 1.362 0 00.5.54 1.4 1.4 0 001.408 0z"/><path data-name="Path 1010" d="M187.763 41.937a2.865 2.865 0 01-.8-2.16v-3.408h2.089v3.346a1.61 1.61 0 00.244.992.954.954 0 001.408 0 1.611 1.611 0 00.243-.992v-3.346h2.054v3.408a2.865 2.865 0 01-.8 2.16 3.591 3.591 0 01-4.444 0z"/><path data-name="Path 1011" d="M198.441 36.651a2.232 2.232 0 010 4.108 3.657 3.657 0 01-1.5.283h-.894v1.523h-2.089v-6.2h2.984a3.661 3.661 0 011.499.286zm-.992 2.59a.782.782 0 000-1.071.93.93 0 00-.638-.19h-.761v1.452h.761a.93.93 0 00.638-.191z"/></g></g></g><g data-name="Group 17"><path data-name="Path 1012" d="M30.695 31.264a9.348 9.348 0 01-4.486 1.068 8.488 8.488 0 01-4.183-1.014 7.3 7.3 0 01-2.865-2.83 8.844 8.844 0 010-8.294 7.15 7.15 0 012.883-2.813 8.8 8.8 0 014.236-1h.286a8.553 8.553 0 016.157 2.807l3.7-3.417a11.778 11.778 0 00-4.486-3.2 15.12 15.12 0 00-5.373-1.093v-.007H12.296v12.884a12.651 12.651 0 001.762 6.639 12.309 12.309 0 004.86 4.592 14.553 14.553 0 006.976 1.656 18.279 18.279 0 005.376-.819 15.038 15.038 0 004.7-2.349V23.963h-5.268z"/><path data-name="Path 1013" d="M24.358 0a24.359 24.359 0 1024.358 24.359A24.386 24.386 0 0024.358 0zm0 47.31A22.952 22.952 0 1147.31 24.358 22.978 22.978 0 0124.358 47.31z"/></g></g></svg>