<svg data-name="Group 3" xmlns="http://www.w3.org/2000/svg" width="126.877" height="108.456"><path data-name="Path 960" d="M57.775 43.701c1.132.726 1.819 1.544 1.393 2.783-.447 1.3-1.539 1.487-2.746 1.459-1.43-.032-2.863.041-4.29-.025-.928-.043-1.474.151-1.508 1.21a5.824 5.824 0 01-.5 1.478c2.359 0 4.6-.022 6.836.008a2.114 2.114 0 012.318 1.822 2.04 2.04 0 01-2.174 2.319c-2.21.034-4.422.044-6.632-.006-.826-.018-1.193.192-1.1 1.075a8.942 8.942 0 01-.022 1.947 2.108 2.108 0 01-2.129 1.885 2.053 2.053 0 01-1.978-2.024 33.129 33.129 0 01-.008-2.99c.025-.651-.19-.82-.831-.709a8.661 8.661 0 01-5.436-.8 1.531 1.531 0 00-1.471.039q-3.868 1.843-7.763 3.629a1.734 1.734 0 00-.979 1.112c-.7 2-1.481 3.974-2.179 5.975a3 3 0 01-1.664 1.867c-5.5 2.549-10.977 5.134-16.474 7.682-1.548.718-2.543.339-3.275-1.207Q2.746 67.13.378 61.997c-.746-1.618-.375-2.566 1.278-3.341 5.408-2.535 10.828-5.044 16.226-7.6a3.233 3.233 0 012.737-.113c1.9.731 3.832 1.363 5.73 2.094a2.1 2.1 0 001.848-.091c1.507-.752 3.044-1.443 4.8-2.266l-6.384-2.671c-.958-.4-1.943-.748-2.869-1.212a5.875 5.875 0 01-3.527-5.605 5.7 5.7 0 013.585-5.414q5.234-2.446 10.5-4.834c1.766-.8 3.356.189 3.214 1.934a2.246 2.246 0 01-1.569 1.885c-3.3 1.519-6.6 3.06-9.9 4.568-.865.394-1.662.8-1.66 1.915 0 1.142.753 1.658 1.694 2.046q7.5 3.1 14.992 6.212a5.082 5.082 0 004.724-.44 1.283 1.283 0 00.759-1c.009-.566-.57-.585-.939-.74a616.247 616.247 0 00-8.156-3.378c-1.045-.423-1.871-1.014-1.8-2.249.075-1.293.985-1.792 2.138-2.079a409.4 409.4 0 008.164-2.133c3.749-1.015 5.689-3.417 5.713-6.907.007-.982-.269-1.3-1.319-1.341-2.375-.1-4.382.866-6.419 1.831-.7.333-1.4.691-2.125.972a2.084 2.084 0 01-2.768-.97 2.085 2.085 0 011.082-2.823c4.1-2.247 8.4-3.674 13.168-3.138a5.3 5.3 0 001.3 0c.78-.107 2.075.423 2.242-.3a4.485 4.485 0 00-.3-3.75 7.3 7.3 0 01-1.388-4.773 2.611 2.611 0 00-.737-2.088 8.25 8.25 0 01-1.733-9.159c1.345-3.306 4.131-4.6 7.49-4.95a17 17 0 018.038 1.067 1.8 1.8 0 002.114-.354c1.066-.956 2.276-.685 3.227.553a9.9 9.9 0 01-.576 12.461 3.516 3.516 0 00-1.077 2.754 5.681 5.681 0 01-1.083 3.936c-.985 1.243-.7 2.611-.747 3.968-.024.65.418.643.872.642 1.777 0 3.555.024 5.332-.007a9.673 9.673 0 016.118 1.785 1.186 1.186 0 00.105.076c.91.53 4.785-1.382 4.848-2.393.277-4.468 2.277-6.678 6.79-7.558a5.223 5.223 0 014.633.866c.54-1.448 1.09-2.81 1.552-4.2a3.07 3.07 0 011.74-1.957c5.459-2.526 10.9-5.1 16.352-7.637 1.607-.749 2.607-.382 3.368 1.228q2.386 5.048 4.728 10.116c.771 1.666.448 2.619-1.17 3.38-5.484 2.578-10.982 5.126-16.464 7.707a2.866 2.866 0 01-2.374.107c-1.944-.729-3.929-1.356-5.852-2.136-1.028-.417-1.29-.282-1.284.868q.065 11.444.014 22.888a5.985 5.985 0 01-4.984 6.092 5.8 5.8 0 01-5.678-2.13c-1.817-2.039-3.594-4.113-5.39-6.169-.253-.289-.52-.564-.793-.859-.463.377-.256.84-.258 1.231-.02 3.641 0 7.283-.022 10.924a2.079 2.079 0 01-2.088 2.309 2.179 2.179 0 01-2.056-2.253c-.012-.173-.005-.347-.007-.52-.024-2.117-.024-2.117-2.125-2.117-1.821 0-3.642.016-5.462-.006a2.092 2.092 0 01-2.334-2.063 2.146 2.146 0 012.346-2.083c2.167-.032 4.338-.081 6.5.018 1.187.055 1.076-.606 1.082-1.365.007-.776.074-1.414-1.095-1.359-2.076.1-4.16.038-6.241.024-1.61-.011-2.6-.827-2.595-2.1s.95-2.044 2.61-2.055c2.037-.013 4.076-.038 6.112.013.852.021 1.291-.148 1.216-1.123-.083-1.084.207-2.155-1.173-2.833a1.669 1.669 0 01-.426-2.43 1.87 1.87 0 012.418-.973 7.914 7.914 0 013.466 2.183c2.768 3.278 5.617 6.489 8.436 9.723q.555.637 1.135 1.252a1.687 1.687 0 001.974.586 1.893 1.893 0 001.277-1.914c0-6.2-.008-12.4.012-18.6 0-.653-.184-.867-.823-.684a6.718 6.718 0 01-.775.071c-.678.109-1.574-.435-1.969.036-.468.557-.146 1.5-.154 2.269-.023 1.994-.011 3.988-.006 5.982a2.237 2.237 0 01-1.406 2.393 2.2 2.2 0 01-2.6-.937c-1.642-1.9-3.313-3.782-4.937-5.7a1 1 0 00-1.422-.307c-7.736 3.642-15.465 7.239-23.363 10.926zm49.643-21.161c.239-.1.44-.17.632-.259 4.422-2.062 8.836-4.141 13.273-6.172.708-.324.588-.667.335-1.193-.86-1.79-1.732-3.577-2.52-5.4-.337-.78-.663-.9-1.439-.534-4.247 2.029-8.519 4-12.784 6a1.579 1.579 0 00-1.008.916c-.468 1.39-.992 2.762-1.5 4.139-.106.286-.276.582.154.74 1.626.595 3.248 1.181 4.857 1.763zM19.466 54.966c-.263.107-.5.193-.736.3-4.382 2.048-8.754 4.116-13.151 6.131-.68.311-.645.617-.376 1.173.882 1.828 1.763 3.658 2.571 5.519.336.775.7.768 1.383.446 4.292-2.037 8.6-4.036 12.906-6.048a1.457 1.457 0 00.894-.859c.474-1.389 1-2.76 1.5-4.14.1-.268.326-.58-.124-.746-1.615-.591-3.236-1.179-4.864-1.772zm30-12.133a2.945 2.945 0 001.357-.489c6.312-2.942 12.589-5.961 18.951-8.79 1.556-.692 2.28-1.458 1.905-3.124-.1-.436.322-1.1-.586-1.152-.7-.038-1.169.045-1.442.874a5.722 5.722 0 01-4.138 3.947 6.751 6.751 0 01-7.947-3.628c-.291-.578-.386-1.487-1.368-1.16-.828.276-.347 1.043-.366 1.564-.144 3.875-1.642 7.027-5.092 8.919-1.428.79-1.539 1.729-1.271 3.046zm7.592-32.069c1.805-2.374 1.8-2.352 4.615-1.254 1.517.592 3.123 1.029 4.595 0 1.557-1.094 2.973-1.233 4.4.229a5.626 5.626 0 00.532-3.61c-.042-.346-.064-.836-.689-.662-1.512.422-2.895-.118-4.291-.588a11.751 11.751 0 00-7.394-.281 3.8 3.8 0 00-1.765 6.17zm10.672 5.205c0-.583-.02-.931 0-1.276.06-.884-.19-1.12-1.111-.789a8.9 8.9 0 01-5.124-.05 1.772 1.772 0 00-2.2 1.28 4.927 4.927 0 002.823 5.479c1.472.792 2.811.373 4.454-1.3a4.1 4.1 0 001.162-3.34zm-1.862 10.9c0-1.888 0-1.888-1.888-1.671-.215.025-.431.034-.647.046-.736.039-1.717-.688-2.1-.116s-.106 1.589-.118 2.411v.26a2.5 2.5 0 002.614 2.336c1.407-.022 2.1-.782 2.138-2.356.01-.297.004-.6.005-.904zm29.323-4.331c.017-1.572-.086-1.65-1.551-1.036a8.571 8.571 0 00-1.358.731c-.428.279-.89.581-.756 1.22a1.705 1.705 0 001.236 1.356c1.39.431 2.414-.535 2.433-2.269zm-17.133 7.061a2.07 2.07 0 00-1.979-.189c-.373.186-.274.705-.049 1.166zm9.2.42c-.572.176-1.208.249-1.151.667a1.562 1.562 0 001.151 1.183z" fill="#f5f5f5"/><path data-name="Path 961" d="M63.568 61.426c7.977 0 15.953-.033 23.93.009 6.514.034 11.2 4.02 12.237 10.3A11.962 11.962 0 0189.444 85.18c-.732.073-1.471.107-2.207.107q-23.8.009-47.6 0c-6.075 0-10.672-3.343-12.175-8.8a11.883 11.883 0 0110.877-15.035c.26-.013.52-.034.779-.034zm-.262 19.708h24.321a7.668 7.668 0 007.145-4.142c.8-1.421.707-1.545-.9-1.546q-10.339 0-20.679-.006c-1.67 0-2.623-.756-2.663-2.028-.041-1.315.946-2.1 2.685-2.128.433-.007.867 0 1.3 0 6.546 0 13.093-.019 19.639.018 1.084.006 1.306-.263.8-1.231a7.549 7.549 0 00-6.938-4.458c-4.118-.064-8.237-.006-12.355-.04a2.154 2.154 0 00-1.58.725q-4.225 3.955-8.473 7.885c-1.794 1.665-2.527 1.679-4.288.05q-4.3-3.973-8.572-7.969a2.011 2.011 0 00-1.463-.689c-4.205.032-8.411-.028-12.615.049a7.361 7.361 0 00-6.535 4.033c-.859 1.505-.778 1.626.887 1.626q10.4 0 20.809.008c1.567 0 2.5.783 2.534 2.015.038 1.267-.949 2.094-2.558 2.137-.346.009-.694 0-1.04 0h-19.9c-1.438 0-1.543.145-.839 1.431a7.775 7.775 0 007.341 4.26q11.976-.015 23.941.002zM58.244 65.68c1.727 1.607 3.211 2.986 4.693 4.367.266.248.507.463.874.119 1.527-1.434 3.066-2.854 4.823-4.486z" fill="#f5f5f5"/><path data-name="Path 962" d="M101.196 98.241a10.718 10.718 0 01-7.365-3.232c-4.291-4-6.255-4.011-10.573.022-4.585 4.284-9.907 4.255-14.468-.077-4.119-3.913-6.313-3.922-10.381-.043-4.638 4.423-10.022 4.416-14.654-.018-4.009-3.839-6.287-3.841-10.288-.012-4.677 4.477-10.3 4.458-14.746-.05-1.062-1.077-1.188-2.319-.327-3.211.9-.927 2.025-.852 3.208.212 3.387 3.047 5.977 2.995 9.268-.243a12.134 12.134 0 015.947-3.53c3.569-.764 6.431.705 8.974 3.018a16.289 16.289 0 002.706 2.214 4.8 4.8 0 005.169.005 13.772 13.772 0 002.612-2.124c4.568-4.415 10.078-4.393 14.643.047.218.211.43.428.651.637 3.091 2.924 5.894 2.92 8.992-.016.315-.3.613-.613.931-.907 4.435-4.1 9.786-4.067 14.182.067a20.51 20.51 0 002.143 1.883c2.268 1.6 4.191 1.577 6.474-.026.564-.4 1.05-.9 1.591-1.333a2.029 2.029 0 012.826.051 2.012 2.012 0 01.109 2.822 10.777 10.777 0 01-7.624 3.844z" fill="#f5f5f5"/><path data-name="Path 963" d="M76.267 108.456a11.077 11.077 0 01-7.346-3.152c-.195-.171-.369-.366-.556-.547-3.45-3.35-6.171-3.33-9.642.058-2.451 2.392-5.226 4.008-8.82 3.537a10.513 10.513 0 01-6-3.125c-1.62-1.58-3.31-2.868-5.675-3.1a1.875 1.875 0 01-1.649-2.248 1.979 1.979 0 012.178-1.78 10.427 10.427 0 017.047 3.2c4.3 4 6.31 4.019 10.568 0 4.5-4.247 9.858-4.26 14.378-.034 4.364 4.081 6.246 4.062 10.661-.018a10.538 10.538 0 016.68-3.132c1.475-.075 2.393.618 2.5 1.856a1.988 1.988 0 01-2 2.237 8.318 8.318 0 00-5.017 2.734c-2.137 2.093-4.598 3.51-7.307 3.514z" fill="#f5f5f5"/><path data-name="Path 964" d="M65.573 51.564c0 1.9.017 3.8-.006 5.705-.017 1.452-.8 2.356-2 2.39a2.173 2.173 0 01-2.143-2.415q-.039-5.705 0-11.411c.009-1.5.874-2.46 2.1-2.452 1.247.008 2.03.936 2.044 2.478.018 1.901.005 3.803.005 5.705z" fill="#f5f5f5"/></svg>