<svg xmlns="http://www.w3.org/2000/svg" width="140.695" height="102.555"><g data-name="Group 5" fill="#fff"><path data-name="Path 976" d="M140.695 101.142a2.99 2.99 0 01-2.889 1.412q-67.464-.034-134.927-.019c-.275 0-.551.01-.824-.014A2.072 2.072 0 010 100.529a2.14 2.14 0 011.977-2.093c.671-.1 1.546.279 1.976-.194.515-.566.186-1.487.191-2.25.024-3.433.458-4.039 3.8-4.916.5-.132.538-.374.507-.767a10.652 10.652 0 012.89-8.3 1.858 1.858 0 00.413-1.391q-.006-20.885.022-41.77c0-1.1-.384-1.288-1.349-1.26-2.151.062-4.3.016-6.457.02a3.161 3.161 0 01-3.076-1.419c-.685-1.193-.267-2.279.406-3.342Q9.449 19.97 17.573 7.077a5.5 5.5 0 015.083-2.645c13.648.02 27.3 0 40.945.033a2.63 2.63 0 002.544-1.167 15.63 15.63 0 011.851-2.207 3.068 3.068 0 014.714.019 3.138 3.138 0 01.54.621c1.312 2.36 3.3 2.809 5.922 2.779 12.776-.149 25.556-.033 38.333-.1a6.349 6.349 0 016 3.261c5.105 8.25 10.338 16.42 15.521 24.621.2.309.4.615.575.935 1.218 2.214.152 4.231-2.386 4.346a67.1 67.1 0 01-6.592 0c-1.383-.075-1.74.315-1.737 1.721q.078 28.785 0 57.571c0 1.275.345 1.624 1.591 1.572 2.377-.1 4.763.016 7.143-.046a3.215 3.215 0 013.067 1.373zm-37.491-63.525c1.01 2.979.01 4.4-2.949 4.42-1.237.01-2.479.074-3.708-.02-1.117-.085-1.475.24-1.464 1.413.059 6.412.029 12.824.026 19.236a7.888 7.888 0 01-.067 1.506 1.845 1.845 0 01-1.8 1.6 1.9 1.9 0 01-2.051-1.272 4.483 4.483 0 01-.207-1.761c0-7.053-.008-14.107.013-21.16a2.854 2.854 0 00-.683-1.991q-9.588-11.5-19.107-23.06c-.746-.909-1.066-.819-1.761.027q-9.466 11.514-19.02 22.954a3.016 3.016 0 00-.756 2.1c.027 6.274.015 12.549.015 18.824q0 18.343-.021 36.687c0 .99.2 1.376 1.27 1.318a45.683 45.683 0 015.218 0c1.141.068 1.336-.368 1.332-1.395q-.051-15.252-.018-30.5c0-2.863 1.332-4.2 4.183-4.2 5.679-.009 11.361.106 17.037-.044 3.346-.088 4.586 1.963 4.561 4.6-.095 10.075-.025 20.152-.06 30.228 0 .992.2 1.375 1.272 1.317a45.768 45.768 0 015.218 0c1.143.069 1.336-.37 1.331-1.4-.039-7.465-.021-14.931-.021-22.4a4.836 4.836 0 01.184-1.764 1.912 1.912 0 012-1.364 1.891 1.891 0 011.88 1.69 9.4 9.4 0 01.057 1.508c0 7.374.029 14.748-.025 22.122-.009 1.213.251 1.616 1.555 1.607q13.327-.093 26.656 0c1.342.011 1.531-.449 1.528-1.621q-.05-24.6-.023-49.19c0-2.931-.035-5.863.02-8.793.017-.931-.2-1.332-1.2-1.245a14.671 14.671 0 01-2.743-.026 1.968 1.968 0 01-1.953-2.2 1.928 1.928 0 012.123-1.872c1.19-.024 2.381-.011 3.572-.012 3.023 0 6.046.012 9.068-.021.3 0 .95.358.9-.408-.078-1.192-2.032-2.923-3.236-2.923q-16.419 0-32.839.008a2.071 2.071 0 00-1.478.233 15.6 15.6 0 011.232 1.54 3.376 3.376 0 003.439 1.611c3.063-.132 6.136-.059 9.2-.019a1.938 1.938 0 012.1 1.892 2 2 0 01-1.856 2.159 7.7 7.7 0 01-1.233.05c-2.188.014-4.382.012-6.711.012zm-65.742 0c-7.012 0-13.877.011-20.742-.014-.816 0-.851.411-.851 1.025q.012 19.713-.011 39.426c0 .881.311.963 1.044.8a9.384 9.384 0 018.1 1.508 6.958 6.958 0 005.409 1.7c.54-.063.922-.088 1.254-.566a10.567 10.567 0 0113.085-3.434c.741.354.822.065.821-.591q-.017-17.24.008-34.481c0-.85-.356-.98-1.068-.959-1.327.038-2.656.016-3.984.01-3.086-.018-4.066-1.367-3.06-4.421zm41.623 44.895c0-4.941-.022-9.883.02-14.824.008-.94-.238-1.259-1.216-1.251q-7.549.068-15.1 0c-.972-.009-1.224.3-1.221 1.246q.046 14.755 0 29.51c0 .947.242 1.248 1.217 1.239q7.548-.069 15.1 0c.968.009 1.232-.28 1.223-1.234-.046-4.892-.022-9.788-.022-14.683zM55.894 15.488a2.659 2.659 0 00-1.539-.182c-4.213-.013-8.426 0-12.639-.016a6.011 6.011 0 01-1.76-.2 1.8 1.8 0 01-1.29-2.022 1.8 1.8 0 011.454-1.77 7.273 7.273 0 011.638-.115c5.266-.008 10.537-.141 15.8.063 2.126.083 2.98-1.036 3.933-2.5a2.755 2.755 0 00-1.541-.17q-18.2-.014-36.4-.007c-2.26 0-2.622.269-3.379 2.608h3.712c2.427.01 4.854-.014 7.279.056a1.809 1.809 0 011.871 1.956 1.825 1.825 0 01-1.673 2 9.027 9.027 0 01-1.5.106c-3.48.009-6.965.112-10.439-.042-1.653-.073-2.708.392-3.314 1.9-.177.442-.833.8-.542 1.282.229.382.85.156 1.292.156 11.036.009 22.074-.1 33.107.084 2.706.045 4.547-.671 5.838-2.958.012-.04.027-.082.092-.226zM42.913 37.757a4.663 4.663 0 005.25-1.847c6.536-8.135 13.262-16.117 19.927-24.148 1.695-2.042 2.8-2.04 4.5.007 6.78 8.173 13.617 16.3 20.278 24.57 1.43 1.775 2.933 1.653 4.8 1.464a4.313 4.313 0 00-.276-.467Q84.21 21.42 71.042 5.492c-.84-1.019-1.137-.308-1.593.242L51.918 26.875c-2.968 3.59-5.938 7.181-9.005 10.885zm-7.356 53.306c2.972 0 5.944-.022 8.915.014.815.01 1.135-.226 1.108-1.085a100.373 100.373 0 010-5.348 1.958 1.958 0 00-.6-1.455 6.5 6.5 0 00-10.394 1.363c-1.267 2.247-1.45 2.327-3.88 1.7a4.09 4.09 0 00-5.119 3.428c-.125.943.083 1.428 1.2 1.4 2.917-.057 5.844-.013 8.77-.014zm89.87-72.469a12.87 12.87 0 01-.69-1.21c-.7-1.69-1.888-2.152-3.734-2.137-11.527.1-23.055.048-34.584.059a2.653 2.653 0 00-1.666.214 11.262 11.262 0 01.825 1.083c.957 1.623 2.31 2.059 4.208 2.042 11.252-.1 22.507-.051 33.76-.051zM26.774 98.41c5.862 0 11.724-.044 17.584.034 1.316.017 1.248-.646 1.21-1.516s.3-1.779-1.254-1.771q-17.378.086-34.757 0c-1.526-.008-1.237.852-1.294 1.748-.064 1.008.044 1.558 1.339 1.54 5.723-.076 11.448-.031 17.172-.031zM10.611 25.827a2.725 2.725 0 00.5.169q17.716.012 35.432.018a1.155 1.155 0 001-.331c.744-.9 1.492-1.79 2.3-2.765a2.831 2.831 0 00-.57-.181q-17.991-.014-35.982-.019a1.035 1.035 0 00-1.039.5c-.496.857-1.051 1.684-1.641 2.613zm119.5.188a12.881 12.881 0 01-.689-1.21c-.7-1.693-1.89-2.153-3.735-2.137-11.032.1-22.066.048-33.1.058a2.676 2.676 0 00-1.686.23 12.136 12.136 0 011.006 1.291c.858 1.467 2.092 1.82 3.767 1.808 10.85-.079 21.7-.04 32.55-.04zm-86.362 4.241a7.279 7.279 0 00-.768-.11q-17.1-.007-34.2-.02a1.4 1.4 0 00-1.419.82 13.141 13.141 0 01-.951 1.507c-.54.761-.47 1.055.566 1.052q16.619-.037 33.238-.01a1.43 1.43 0 001.319-.523c.658-.866 1.377-1.688 2.218-2.713zM79.184 8.742c.952 1.462 1.815 2.521 3.931 2.5 11.953-.136 23.909-.063 35.864-.076.52 0 1.09.193 1.562-.189-.6-1.785-1.686-2.478-3.674-2.46-12.046.1-24.093.05-36.14.059a2.786 2.786 0 00-1.54.166zm-62.21 82.321c1.1 0 2.2-.041 3.289.013.835.041 1.2-.143 1.2-1.106a7.231 7.231 0 011.732-4.8c.551-.645.386-.98-.24-1.366a6.478 6.478 0 00-7.126-.169 6.446 6.446 0 00-3.276 6.325c.051.923.431 1.157 1.271 1.112 1.05-.048 2.103-.005 3.153-.005z"/><path data-name="Path 977" d="M117.241 60.963c0 3.205.015 6.411 0 9.616-.016 2.775-1.381 4.14-4.121 4.153q-3.365.016-6.731 0c-2.607-.014-4.051-1.367-4.062-3.929q-.044-9.89 0-19.781c.012-2.464 1.389-3.809 3.838-3.845 2.381-.034 4.762-.03 7.143 0 2.54.029 3.9 1.363 3.926 3.9.037 3.292.006 6.59.007 9.886zm-10.8-.013c0 2.834.024 5.668-.014 8.5-.012.862.207 1.229 1.15 1.18 1.5-.078 3.017-.056 4.524-.007.774.026 1.037-.234 1.034-1.012q-.035-8.639 0-17.278c0-.894-.373-1.075-1.151-1.054-1.462.04-2.927.054-4.387 0-.895-.036-1.192.269-1.177 1.171.051 2.832.016 5.666.016 8.5z"/><path data-name="Path 978" d="M70.261 49.464c-1.829 0-3.659.026-5.488-.007-2.108-.038-3.338-1.079-3.4-3.124a68.765 68.765 0 01.082-8.222c.385-4.368 3.169-7.014 7.524-7.518 4.975-.576 8.967 1.8 10.06 6.042a21.316 21.316 0 01.308 5.324c0 1.372.041 2.745-.011 4.116a3.124 3.124 0 01-3.447 3.383c-1.877.032-3.753.006-5.628.006zm.023-4.123c1.327 0 2.654-.028 3.979.011.69.02.985-.183.97-.922-.041-1.92.053-3.845-.04-5.762-.127-2.634-1.858-4.005-4.871-4s-4.723 1.382-4.843 4.035c-.087 1.917.005 3.842-.037 5.762-.018.774.345.906 1 .89 1.28-.034 2.564-.014 3.842-.014z"/><path data-name="Path 979" d="M38.362 60.906c0 3.205.013 6.41 0 9.616-.014 2.849-1.371 4.2-4.2 4.211-2.289.008-4.579.021-6.868 0a3.524 3.524 0 01-3.837-3.731q-.067-10.028 0-20.055a3.472 3.472 0 013.777-3.762q3.639-.058 7.28 0a3.512 3.512 0 013.844 3.839c.034 3.289.003 6.589.004 9.882zm-4.124.129c0-2.88-.022-5.759.014-8.639.01-.817-.234-1.147-1.087-1.118a84.255 84.255 0 01-4.662.005c-.713-.015-.957.262-.955.966q.027 8.707 0 17.415c0 .841.377.974 1.086.957 1.508-.036 3.018-.053 4.524.005.842.033 1.11-.255 1.1-1.09-.044-2.833-.02-5.667-.02-8.501z"/><path data-name="Path 980" d="M66.939 81.914c-.04.82-.025 1.645-.134 2.453a1.805 1.805 0 01-1.961 1.695 1.794 1.794 0 01-1.968-1.687 20.507 20.507 0 010-4.77 1.828 1.828 0 011.964-1.715 1.835 1.835 0 011.97 1.707c.094.766.088 1.544.129 2.317z"/></g></svg>