<svg xmlns="http://www.w3.org/2000/svg" width="185.787" height="116.579"><g data-name="Group 10" fill="#fff"><g data-name="Group 8"><path data-name="Path 982" d="M11.375 105.45H9.559v4.035h-3.3v-4.035H.004v-1.816l3.229-11.8h3.354l-2.925 10.542H6.31l.53-5.877h2.724v5.877h1.816z"/><path data-name="Path 983" d="M33.214 91.831v17.655h-3.506v-4.338c.1-2.144.177-4.287.278-6.432l-.126-.05-1.589 4.642-.883 2.4h-3.531l-.883-2.4-1.589-4.642-.126.05c.076 2.145.177 4.288.252 6.432v4.338H18.03V91.831h3.607l2.774 6.684c.353.883.958 2.421 1.16 3.077h.1c.2-.656.807-2.194 1.16-3.077l2.774-6.684z"/><path data-name="Path 984" d="M35.733 104.492v-3.4c0-3.4 1.841-5.3 4.968-5.3s4.969 1.892 4.969 5.3v3.406c0 3.4-1.841 5.322-4.969 5.322s-4.968-1.923-4.968-5.328zm6.431 0v-3.4c0-1.387-.5-1.967-1.463-1.967s-1.463.58-1.463 1.967v3.406c0 1.387.5 1.993 1.463 1.993s1.463-.611 1.463-1.999z"/><path data-name="Path 985" d="M57.37 96.119v13.367H55.1l-.252-1.362a3.5 3.5 0 01-3.153 1.69c-2.471 0-3.934-1.867-3.934-5.5v-8.2h3.456v8.2c0 1.64.453 2.22 1.286 2.22.883 0 1.437-.656 1.437-1.968v-8.449z"/><path data-name="Path 986" d="M69.5 101.292v8.2h-3.458v-8.2c0-1.64-.454-2.22-1.286-2.22-.883 0-1.438.656-1.438 1.967v8.449h-3.43V96.121h2.27l.252 1.362a3.5 3.5 0 013.153-1.69c2.479-.001 3.937 1.865 3.937 5.499z"/><path data-name="Path 987" d="M78.326 106.46v3.228h-1.11c-2.875 0-4.666-1.892-4.666-4.868v-5.6h-1.74v-3.1h1.74v-3.228h3.405v3.228h2.194v3.1h-2.194v5.65c0 1.11.479 1.589 1.513 1.589z"/><path data-name="Path 988" d="M89.472 100.987v8.5h-2.72l-.2-1.261a3.052 3.052 0 01-2.9 1.615 3.868 3.868 0 01-3.985-4.187c0-2.9 2.169-4.262 5.12-4.262h1.236v-.4c0-1.186-.252-1.892-1.185-1.892a1.264 1.264 0 00-1.337 1.185h-3.455c.126-2.825 1.917-4.489 4.843-4.489 3.196-.004 4.583 1.786 4.583 5.191zm-3.455 3.3h-1.16c-1.035 0-1.69.455-1.69 1.362a1.178 1.178 0 001.312 1.261 1.473 1.473 0 001.538-1.639z"/><path data-name="Path 989" d="M91.841 92.259a1.828 1.828 0 011.891-1.891 1.858 1.858 0 011.892 1.891 1.905 1.905 0 01-1.892 1.892 1.843 1.843 0 01-1.891-1.892zm.151 3.859h3.455v13.367h-3.455z"/><path data-name="Path 990" d="M107.578 101.292v8.2h-3.46v-8.2c0-1.64-.454-2.22-1.287-2.22-.883 0-1.437.656-1.437 1.967v8.449h-3.43V96.121h2.27l.252 1.362a3.5 3.5 0 013.153-1.69c2.479-.001 3.939 1.865 3.939 5.499z"/><path data-name="Path 991" d="M109.165 105.224h3.43a1.5 1.5 0 001.64 1.513c.908 0 1.437-.429 1.437-1.059 0-2.093-6.28-1.488-6.28-6 0-2.447 1.791-3.884 4.615-3.884 3.2 0 4.515 1.917 4.717 4.439h-3.3c-.076-.857-.429-1.412-1.413-1.412-.731 0-1.21.353-1.21.857 0 1.867 6.305 1.135 6.305 5.978 0 2.522-1.741 4.212-4.741 4.212-3.485-.003-5.124-2.276-5.2-4.644z"/></g><path data-name="Path 992" d="M61.001 49.702c-.021-2.165 2.385-3.451 4.581-2.9.748.2 1.979 1.091 2.374.025l16.012-20.612a3.578 3.578 0 014.954.272 5.746 5.746 0 01.868 1.017c.5.628.091 1.434 0 2.131a4.656 4.656 0 00-.221 2.877c1.253 5.2 2.878 10.332 4.093 15.545l17.566 11.1c1.007 2 1.758 4.1 2.765 6.106.75 2.238 3.195 7.386-1.245 8.112H59.601c-2.46.12-3.688-1.267-2.839-3.659 1.765-3.984 3.151-8.137 4.949-12.061l-.71-7.954zm99.813 27.612c3.056-.517 2.338-4.312 1.656-5.99l-14.366-30.329c-1.564-3.165-2.348-3.936-6-2.2l-6.319 2.512-14.566-25.117a2.839 2.839 0 00-3.6-1.428l-4.064 2.545-9.074-15.417a3.544 3.544 0 00-5.909-.553L65.615 41.452c-1.683.045-4.06-2.244-5.632-3.1-1.753-.7-3.165.459-4.258 1.586L32.153 71.726a3.537 3.537 0 001.724 5.585zm-40.639-6.421c-1.906-3.69-3.259-7.6-5.125-11.3-.522-1.224-.865-2.636-2.13-3.443l-15.138-8.752a4.409 4.409 0 01-1.126-1.5c-1.041-3.817-1.968-7.661-3.052-11.47-.53-1.6-.987-3.269-.227-4.885 2.314-5.9 3.944-12 6.307-17.89.815-2.6 4.847-2.747 6.163-.717 1.3 2.358 2.759 4.723 4.013 7.106 1.272 2.846 3.907 3.408 6.841.83l-.374 22.625a77.375 77.375 0 002.882 5.116c4.1 7.4 8.437 14.7 12.521 22.1a3.5 3.5 0 01-1.838 4.656h-8.41c-.953-.088-.963-2.082-1.306-2.483zm14.54-3.67c-2.459-4.5-5.17-8.888-7.654-13.376-.61-1.007-1.152-2.047-1.739-3.062-1.855-3.35-3.786-6.667-5.6-10.032-.454-.887-.181-4.046.008-5.172-.685-4.8 5.672-5.248 6.875-2.219 1.651 3.08 3.426 6.121 4.861 9.287.842 1.659 2.411 3.436 4.731 3.044l7.757-3.271.745.32 12.317 24.657a4.186 4.186 0 01-2.822 5.976h-15.731c-2.319-1.17-2.55-4.187-3.746-6.153zm-77.077-15.4l.562 5.232-5.517 13.273c-.888 1.527-1.775 2.88-2.572 3.047H39.958c-1.032-.172-1.726-.487-1.826-1.021-.976-1.9.692-3.014 1.146-4.168 3.723-5.568 7.958-10.912 11.9-16.387 2.131-3.692 6.088-2.3 6.463.023z" fill-rule="evenodd"/><g data-name="Group 9"><path data-name="Path 993" d="M147.588 91.884v17.655h-3.607v-7.188h-3.632v7.188h-3.607V91.884h3.607v7.062h3.632v-7.062z"/><path data-name="Path 994" d="M150.104 104.542v-3.405c0-3.4 1.841-5.3 4.969-5.3s4.968 1.892 4.968 5.3v3.405c0 3.4-1.841 5.322-4.968 5.322s-4.969-1.918-4.969-5.322zm6.431 0v-3.405c0-1.387-.5-1.967-1.463-1.967s-1.463.58-1.463 1.967v3.405c0 1.387.5 1.993 1.463 1.993s1.463-.606 1.463-1.993z"/><path data-name="Path 995" d="M168.689 106.51v3.229h-1.109c-2.876 0-4.666-1.892-4.666-4.868v-5.6h-1.74v-3.1h1.74v-3.228h3.4v3.228h2.194v3.1h-2.194v5.65c0 1.109.479 1.589 1.514 1.589z"/><path data-name="Path 996" d="M180.29 105.273a4.7 4.7 0 01-5.095 4.566c-3 0-4.792-1.968-4.792-5.271v-3.556c0-3.254 1.791-5.171 4.818-5.171 3.077 0 4.893 1.917 4.893 5.171v3h-6.254v.555c0 1.387.478 1.993 1.387 1.993 1.034 0 1.336-.379 1.563-1.287zm-6.431-4.312v.702h2.849v-.706c0-1.362-.5-1.942-1.463-1.942-.908.003-1.386.583-1.386 1.948z"/><path data-name="Path 997" d="M182.079 91.254h3.429v18.286h-3.429z"/></g><path data-name="Path 998" d="M2.759 113.519h183.027v3.06H2.759v-3.06z" fill-rule="evenodd"/></g></svg>