<svg xmlns="http://www.w3.org/2000/svg" width="784.757" height="589.463"><g fill="#002581"><path d="M242.684 218.994a6.465 6.465 0 00-6.48-6.459h-4.166a6.464 6.464 0 00-6.479 6.459v29.752a6.481 6.481 0 006.479 6.47h4.166a6.481 6.481 0 006.48-6.47zm25.717 0a6.481 6.481 0 00-6.5-6.459h-4.167a6.463 6.463 0 00-6.478 6.459v29.752a6.48 6.48 0 006.478 6.47h4.167a6.5 6.5 0 006.5-6.47zm0 51.203a6.486 6.486 0 00-6.5-6.449h-29.863a6.469 6.469 0 00-6.479 6.449v38.3a6.472 6.472 0 006.479 6.461h29.864a6.489 6.489 0 006.5-6.461zm516.356 319.266c-377.79-131.925-778.922-19.1-782.906-17.94L0 563.012c10.263-2.968 157.624-79.738 380.949-79.738 171.026 0 397.106 88.139 397.106 88.139z"/><path d="M774.253 316.219L596.39 145.474c-1.549-1.479-1.167-2.656-3.219-3.44l-12.013-5.555V73.052c0-9-11.914-14.147-21.291-14.147h-32.262c-9.4 0-14.971 5.151-14.971 14.147v11.449h-8.572v8.532h8.572v17.618L229.745.79c-4.951-1.926-11.128-.236-14.047 4.034L6.179 310.085a7.692 7.692 0 00-.484 8.12c1.448 2.576 15.112 2.525 18.13 2.525L218.838 28.942a10.857 10.857 0 018.129-4.553 11.045 11.045 0 018.8 3.275L506.19 306.373a17.291 17.291 0 0011.49 5.152l72.7 3.7-85.664 10.312L242.764 58.191a14.09 14.09 0 00-21.129 1.308L33.163 322.28l32.378 9.8 2.112 210.708 25.537-14V419.052l102.486-170.266v79.671c0 12.748 13.563 20.647 26.824 20.647h56.59c13.282 0 27.951-7.9 27.951-20.647V202.775c0-12.738-14.669-24.39-27.951-24.39h-39.36l26.542-43.766a10.671 10.671 0 018.311-4.377 11.313 11.313 0 018.956 3.612L492.89 357.496a11.2 11.2 0 012.6 6.589v31.553c0 5.977 4.447 13.211 10.685 13.211h58.7c3.019 0 5.9-2.344 8.029-4.376l66.326-64.5a25.638 25.638 0 0118.773-7.254l40.769 1.429-53.125 78.329c-2.4 3.521-6.48 4.9-10.866 4.9H506.174c-6.238 0-10.685 6.208-10.685 12.195v80.6c3.179.262 6.359.6 9.518 1.047l13.121-66.6 131.544-1.459v97c27.085 2.777 50.689 16.028 74.937 27.78l15.4 2.224c6.781-3.9 10.886 3.561 11.147-4.237l.242-153.578a5.038 5.038 0 013.924-4.92l11.148-2.526a6.24 6.24 0 002.878-10.665l-64.756-60.1 74.516 3.028a20.094 20.094 0 00-4.855-20.947zm-227.37-192.05l-17.124-7.2V93.041h17.124zm0-39.663h-17.124v-8.542h17.124zM279.09 195.46c3.08 0 2.255 4.377 2.255 7.315v121.226a4.5 4.5 0 01-4.488 4.5h-59.549a4.5 4.5 0 01-4.487-4.5V217.796l16.28-22.336z"/></g></svg>