<svg xmlns="http://www.w3.org/2000/svg" width="1158.509" height="759.719"><g data-name="Group 31" fill="#002581"><path data-name="Path 1118" d="M1107.185 544.239l-18.331-51.324-50.165-16.747-1.191-177.395-32.922-18.466 11.384-95.275-58.535-29.573-32.722-66.12-6.909 107.6 18.015 1.9-7.585 37.924s8.442 44.08.947 84.374-27.494 94.811-27.494 94.811l36.379-7.6 10.882 29.374 89.351 38.317-5.924-1.983-100.329-14.455-13.2-20.25h-31.685l-15.84-14.462-.464-.032a20.512 20.512 0 009.838-8.21c7.939-11.905 19-45.065 24.223-86.795v-.007c.019-.129 3.013-22.716 5.524-42.554l3.644 1.739s2.911-19.22 3.716-33.681-2.782-17.926-5.995-20.34-12.053-4.018-21.448-5.2a66.245 66.245 0 00-16.56-.064s8.216 2.537 11.371 5.441 3.458 8.467 3.458 8.467l-27.532 76.9-16.457-9.4 15.479 12.124-.058.174.322.032 2.53 1.983a21.2 21.2 0 01-4.423-.039l-20.868-2.614-77.014 4.694c-.573-2.569-1.314-5.3-2.086-7.868l35.278-1.449.315-.013.167-.045a9.031 9.031 0 001.661-.625c.477-.212.882-.47 1.314-.708a20.962 20.962 0 002.3-1.655 28.342 28.342 0 003.792-3.883 45.448 45.448 0 005.441-8.892 88.616 88.616 0 003.651-9.452c1.082-3.1 2.067-6.342 3.02-9.51a249.425 249.425 0 002.646-9.613c.8-3.226 1.591-6.452 2.273-9.7.721-3.238 1.333-6.5 1.938-9.761s1.12-6.529 1.623-9.806c1.938-13.109 3.155-26.29 3.966-39.47l2.2-39.54-3.471 39.437c-1.229 13.129-2.865 26.219-5.2 39.161-.6 3.232-1.23 6.458-1.919 9.665s-1.41 6.419-2.228 9.594c-.773 3.187-1.661 6.349-2.55 9.5q-1.371 4.723-2.91 9.388c-1.05 3.11-2.074 6.155-3.271 9.253a82.461 82.461 0 01-3.76 8.892 41.237 41.237 0 01-5.106 7.8 23.745 23.745 0 01-3.213 3.091 16.323 16.323 0 01-1.751 1.178c-.3.148-.6.328-.882.438a2.938 2.938 0 01-.412.167l-.071.026-36.475.328.026 1.069c-1.115-3.367-1.99-5.73-1.99-5.73a35.737 35.737 0 01-.541-6.156c.74-4.6 1.346-9.188 1.7-13.837.213-2.846.341-5.73.316-8.628l-.219-8.467-.393-15.588.792.071 4.057-69.223-6.072 50.879-.006-.1c-.843-5.615-1.912-11.326-4.308-16.728a25.176 25.176 0 00-2.183-3.915 17.608 17.608 0 00-1.468-1.816l-.862-.882-.5-.4 2.692-24.879-129.864-3.529s9.774 2.537 9.072 8.151a14.632 14.632 0 01-3.619 7.5c-.528.451-1.037.921-1.519 1.423-.245.244-.464.508-.7.76a44.8 44.8 0 01-.875.65c-2.627 1.906-9.369 6.471-10.6 4a28.655 28.655 0 01-1.7-5.686 51.107 51.107 0 00.6-5.209c.412-7.913-.882-13.773-4.127-18.582l150.654 2.859 1.069 4.507 1.442-8.165 11.776-66.345 5.718-33.2 5.029-29.8.1-.052c2.357-1.352 14.751.206 14.751.206l65.257 20.752 2.782-.979 7.392 2.91q2.752 1.14 5.795 2.408a540.648 540.648 0 0112.06 5.17c2.125.947 4.307 1.932 6.477 3.007 1.107.521 2.163 1.1 3.213 1.687l.631.444c.071.051.271.187.245.167l.277.38a3.135 3.135 0 01.412.721 5.458 5.458 0 01.328.76c1.61 4.578 2.138 9.909 2.75 15.15.554 5.286.953 10.7 1.295 16.1.689 10.785.94 21.641 1.1 31.8.045 5.08.1 9.993.142 14.648-.007 4.655-.007 9.059-.258 13.1-.47 8.126-.727 14.906-.972 19.651l-.283 6.735-4.693-.843c-.863-.174-1.559-.206-2.344-.3l-2.3-.245-4.59-.477-9.2-.843c-3.077-.219-6.142-.477-9.233-.618 3.026.631 6.065 1.133 9.1 1.68l9.124 1.455 4.571.67 2.286.322c.734.123 1.584.193 2.228.335l8.653 1.6a471.046 471.046 0 004.726 7.083c-.161 3.606-.187 7.218-.283 10.83-.09 3.715-.084 7.437-.026 11.158.47-3.7.9-7.392 1.223-11.094s.709-7.4.947-11.113l.019-.283-.167-.27a460.946 460.946 0 00-4.964-7.8l-.245-.373-.431-.077-4.359-.779c.1-1.082.328-3.38.643-6.716.412-4.733 1.089-11.481 1.745-19.593.361-4.082.477-8.5.605-13.167s.187-9.587.148-14.68c-.077-10.186-.225-21.035-.831-31.917-.393-5.428-.837-10.843-1.442-16.174-.47-3.689-.888-7.334-1.687-10.9 1.024-2.633 2.7-10.07-7.65-15.788-12.794-7.076-65.122-26.212-81.354-32.078s-30.706-8.222-35.961-9.974c0 0 5.048 3.367 6.194 7.34a21.346 21.346 0 01.8 5.17 33.284 33.284 0 00-4.166.283s-2.6 4.333-.721 3.49l-6.065 29.515-6.677 33.025-11.583 58.844c-.4-1.2-.824-2.4-1.294-3.593a35.638 35.638 0 00-5.8-9.987 19.809 19.809 0 00-2.144-2.144l-.142-.129-.245-.18-.277-.2-.567-.393a8.646 8.646 0 00-1.23-.773 23.683 23.683 0 00-2.736-1.339c-.889-.4-1.784-.74-2.685-1.043a81.651 81.651 0 00-10.894-2.82 145.423 145.423 0 00-11.01-1.706l-2.775-.3-.708-.071-.6-.078-1.365-.167-5.454-.682-21.834-2.743q-21.817-2.791-43.674-5.344l-43.694-5.209-43.7-5.17-43.726-4.932c-14.577-1.655-29.155-3.3-43.745-4.823-7.276-.8-14.6-1.59-21.943-1.945a259.055 259.055 0 00-22.014-.277c7.333.077 14.661.521 21.956 1.114s14.545 1.6 21.815 2.62c14.526 2.041 29.071 3.953 43.616 5.866l43.623 5.756 43.655 5.518 43.661 5.486q21.828 2.782 43.675 5.344l21.846 2.608 5.467.65 1.365.161.76.09.663.058 2.7.277c3.6.406 7.186.934 10.734 1.6a78.038 78.038 0 0110.4 2.621 24.579 24.579 0 012.447.927 21.622 21.622 0 012.215 1.049 13.032 13.032 0 013.844 3.116c4.372 5.151 6.78 12.3 8.39 19.1l.856 3.612-154.292-7.018a62.352 62.352 0 00-26.444-13.264c-11.989-2.537-92.531-14.294-96.041-14.8-1.049-.11-105.081-11.055-125.962-12.3-19.578-1.173-27.532 2.729-29.05 3.6-2 .753-14.906 6.329-20.939 26.908a133.242 133.242 0 00-4.951 39.721l-4.835.489c.418-7.134 1.017-14.262 1.9-21.338a120.58 120.58 0 014.99-22.117 77.686 77.686 0 014.127-10.47 25.136 25.136 0 012.859-4.636 34.845 34.845 0 013.747-4.043c5.408-5.055 12-8.77 18.8-11.809a106.912 106.912 0 0110.54-3.876c3.574-1.146 7.218-2.073 10.882-2.923a218.538 218.538 0 0111.1-2.176q5.583-.937 11.216-1.68c7.5-.992 15.041-1.745 22.594-2.337s15.144-1 22.665-1.281l1.6-.064.714-1.442q14.758-29.95 29.825-59.752c5.009-9.929 10.038-19.864 15.241-29.644 1.288-2.46 2.621-4.855 3.96-7.25.335-.6.682-1.127 1.017-1.693.322-.515.721-1.23.972-1.571l1.237-1.681 1.133-1.281a17.584 17.584 0 015.744-4.108 15.248 15.248 0 013.309-1.062 11.783 11.783 0 011.693-.238 9.645 9.645 0 011.462-.026l.238.019.052.007 70.813 3.857c5.84.361 11.822.747 17.668 1.262q8.8.715 17.636 1.558l35.31 3.458q35.32 3.535 70.614 7.475l70.563 7.624a23.043 23.043 0 018.261 4.8 13.716 13.716 0 012.756 3.96 8.78 8.78 0 01.908 4.733 8.921 8.921 0 00-.689-4.829 13.935 13.935 0 00-2.633-4.2 19.709 19.709 0 00-3.876-3.129 27.585 27.585 0 00-4.456-2.26l-.032-.013-.065-.006-35.152-5.127c-11.719-1.668-23.437-3.387-35.181-4.913q-35.2-4.685-70.473-9.053c-5.879-.7-11.751-1.462-17.642-2.1l-17.674-1.919q-8.827-.957-17.719-1.771c-5.936-.592-11.77-1.037-17.739-1.468L486.534.045l.289.026a14.656 14.656 0 00-2.7-.019 19.028 19.028 0 00-2.44.341 20.551 20.551 0 00-4.63 1.481 23.894 23.894 0 00-7.733 5.563l-1.616 1.867-1.23 1.693c-.56.785-.811 1.3-1.236 1.97-.367.625-.779 1.269-1.12 1.887-1.371 2.473-2.736 4.945-4.024 7.424-5.222 9.9-10.212 19.864-15.2 29.837-9.7 19.49-19.136 39.1-28.569 58.715-7.135.361-14.2.953-21.28 1.642-7.611.766-15.209 1.7-22.781 2.865a326.766 326.766 0 00-11.339 1.957 235.115 235.115 0 00-11.255 2.466c-3.734.953-7.456 1.99-11.107 3.245a113.206 113.206 0 00-10.8 4.249c-7 3.277-13.785 7.347-19.316 12.948a38.4 38.4 0 00-3.85 4.462 28.245 28.245 0 00-2.833 4.939l-.007-.869s-6.413.238-16.026.592c-4.81.212-10.411.477-16.426.85-3 .18-6.1.412-9.265.676a78.691 78.691 0 00-9.607 1.288c-6.407 1.436-12.536 4.674-16.49 9.484a25.506 25.506 0 00-4.237 7.714c-1 2.575-1.86 5.035-2.64 7.308-3.084 9.111-4.9 15.253-4.9 15.253s2.067-6.065 5.512-15.028a185.917 185.917 0 012.923-7.166 24.317 24.317 0 014.34-7.218c3.9-4.372 9.806-7.2 15.91-8.3a76.384 76.384 0 019.355-.863c3.136-.135 6.226-.238 9.22-.3 5.988-.129 11.59-.168 16.38-.18 5.924.019 10.618.039 13.355.045-2.647 1.043-7.534 3.277-10.47 6.5-4.173 4.584-6.245 11.532-7.874 17.333-1.166 4.166-3.252 15.646-4.333 21.789l-54.715-3.357 54.034 7.34-.006.026.489.039 1.635.225.007-.077 14.5 1.294s.257-10.991 1.126-20.559c-.6 7.1-.818 14.217-.889 21.331l-2.968.3c-3.587-.335-12.961-.566-25.942 3.883-16.773 5.75-32.059 19.535-32.059 19.535l2.685.438c-4.166-.522-8.338-1.056-12.517-1.526-3.155-.341-6.3-.7-9.491-.9a18.785 18.785 0 00-1.243-.039 4.539 4.539 0 00-.605.032 5.325 5.325 0 00-.65.161 9.214 9.214 0 00-2.221 1.082 16.452 16.452 0 00-3.573 3.239l-.045.051v.065l-.966 9.51.876-5.9c-.4 5.814-.728 17.269 2.221 23.173 4.056 8.113 18.879 11.236 44.93 15.769s59.05 9.259 59.05 9.259-2.415 5.048-6.67 4.868-82.545-16.039-90.317-19.51-10.926-9.574-10.881-12.775.573-13.129.573-13.129-3.94 14.648 3.542 23.63a18.186 18.186 0 006.586 14.436c2.988 2.582 8.383 4.6 9.7 8.564.747 2.247.528 4.681.393 7.05-.811 14.384 1.945 28.7 4.681 42.85-1.134-11.564.193-23.193 2.447-34.538 1.133-5.7 2.047-11.969 4.056-17.43.238-.65 2.228-4.694 3.419-7.205 13.084 3.793 25.317 6.555 25.317 6.555s44.209 11.6 53.6 13.489 11.989-1.706 11.989-1.706l-8.783-1.1 3.084-41.71 6.4-9.6 21.912 3.039 200.812 26.1-.651 5.2s25.768 5.151 34.75-1.41 13.54-16.071 14.487-19.8a89.348 89.348 0 001.6-8.918l-2.769-.528c2.647.47 5.286.94 7.933 1.372-.316 1.874-3.1 16.921-11.905 26.161-6.317 6.632-20.888 6.587-29.779 5.846l44.872 5.441c13.186 1.6 26.541 4 39.779 4.894 7.27.489 8.312-5.4 13.187-10.45.386-.393.772-.785 1.165-1.165a53.072 53.072 0 0115.878-10.662 54.329 54.329 0 0131.634-3.3c-7.746-2.15-15.312-4.642-23.135-6.355l1.243.155.129-1.037.129-1.037-10.643-1.333c2.556-6.748 5.029-13.56 7.771-20.179a156.572 156.572 0 012.312-5.254c.8-1.758 1.59-3.483 2.466-5.151a28.413 28.413 0 016.452-8.731 8.145 8.145 0 011.037-.792 7.461 7.461 0 011.049-.67 10.74 10.74 0 012.4-1.024l1.262-.329 1.371-.219c.9-.174 1.868-.232 2.807-.341 3.786-.386 7.649-.528 11.513-.618q5.8-.164 11.615-.161l8.95.038a18.15 18.15 0 012.266 1.436l.8.669.592.657a14.374 14.374 0 011.166 1.487 22.948 22.948 0 011.874 3.49c2.112 4.964 3.091 10.476 3.825 15.994a146.031 146.031 0 01.908 16.689l.167 16.9.09 8.441c-.013 2.749-.18 5.492-.425 8.267a168.934 168.934 0 01-2.382 16.509l.566.109c-.135.554-.251 1.063-.366 1.532-4.669-10.154-10.875-19.123-18.66-25.517a42.712 42.712 0 00-14.449-8.087 39.218 39.218 0 00-7.495-1.623 38.667 38.667 0 00-7.3-.09 46.309 46.309 0 00-22.22 8.351 67.563 67.563 0 00-11.384 10.09c-1.2 1.275-2.035 2.324-2.621 3.013s-.882 1.049-.882 1.049l.946-.992c.625-.65 1.526-1.648 2.8-2.839a73.716 73.716 0 0111.8-9.3c5.46-3.348 12.82-6.741 21.692-7.057a35 35 0 0113.689 2.228 40.692 40.692 0 0113.1 7.984c8.139 7.153 14.333 17.6 18.724 29.29a135.423 135.423 0 017.566 38.671 165.774 165.774 0 01-.187 20.92q-.242 2.646-.47 5.3c-.206 1.751-.419 3.515-.625 5.273q-.4 2.694-.792 5.4c-.309 1.758-.625 3.516-.933 5.28a153.692 153.692 0 01-13.972 41.169c-6.645 12.877-15.466 24.924-26.946 32.986a48.046 48.046 0 01-8.487 4.778l-30.642-.109a46.543 46.543 0 01-14.2-10.972 73.748 73.748 0 01-10.547-15.82 121.251 121.251 0 01-10.469-33.759c-.715-4.237-1.172-8.364-1.494-12.362 1.751-6.02 8.377-9.922 14.081-11.062 0 0 .593-12.408 2.37-26.592 1.378-11 7.36-21.969 9.98-26.354a45.7 45.7 0 009.825-16.522c4.037-11.873 7.4-21.286 7.4-21.286s-11.557-.715-14.874-.406-7.082 4.211-7.082 4.211l-2.247 29.573-2.634-29.676-110.361-12.865s-2.4 8.351-8.428 14.32-6.381-14.243-6.381-14.243-27.893-3.5-33.984-4.733 1.893-11.287 1.893-11.287c-.155.071-.29.18-.438.264 2.491-3.174 4.436-4.089 5.305-4.346a20.286 20.286 0 00-10.521 6.529c-4.707 5.6-6.413 25.047-6.413 25.047l-1.752 13.979s7.572 12.234 14.069 12.678 85.713 7.456 85.713 7.456 2.556.245 6.734.631c-.051.18-.109.341-.167.528-.148.5-.3 1.037-.457 1.571-6.819-.5-34.209-2.531-41.917-3.187-8.821-.747-45.438-4.617-50.312-5.583a18.662 18.662 0 01-9.658-5.492c-.927-1.185-2.415-3.509-2.415-3.509l-151.825-21.137s-3.606 5.969-12.955 3.728-48.864-11.468-48.864-11.468-6.059 8.518-6.11 23.134 1.578 21.6 7.591 27.706 20.72 11.158 28.5 6.065 11.242-10.006 11.242-10.006 8.512 3.206 13.7 1.713a28.5 28.5 0 008.737-4.256s13.921-.045 18.486.528 19.271 5.621 19.271 5.621 5.009 2.769 6.413 2.949-1.185 3.773-1.185 3.773 15.06 2.24 22.652 1.41 28.144 3.168 37.19 5.009 13.476 6.329 13.476 6.329l10.888 1.359.18-4.256 25.948 3.606s7.243 16.245 20.321 20.024 24.242-2.679 24.242-2.679 10.5-4.037 15.846-4.076 33.81 3.516 33.81 3.516l.109-1.2a165 165 0 00.013 18.8 139.7 139.7 0 002.6 19.96 118.312 118.312 0 005.956 20 84.385 84.385 0 009.9 18.518c4.1 5.621 9.015 10.83 14.97 14.236 1.726 1.011 3.477 1.887 5.229 2.7-5.505-1.951-31.833-13.264-45.374-55.586l-38.878 19.909s-122.324.947-119.478.947 128.956 28.453 128.956 28.453l75.533 6.606c.889.4 1.784.8 2.672 1.166l-55.315-.2-134.281-14.429-92.409-20.643-38.686-24.311c.193-.026.386-.039.58-.064a49.612 49.612 0 0012.086-3.206 35.781 35.781 0 01-6.085 1.165c-2.041.257-4.1.412-6.149.521q-3.081.1-6.156.045c-2.054-.051-4.1-.11-6.143-.29-2.047-.135-4.082-.348-6.123-.586-2.035-.187-4.063-.534-6.085-.818s-4.017-.708-6.02-1.056l-6.071-1.255c-1.938-.425-3.954-.959-5.924-1.436-1.971-.509-3.915-1.127-5.866-1.68-1.925-.644-3.857-1.262-5.763-1.932-1.887-.727-3.8-1.391-5.627-2.221-1.861-.76-3.644-1.667-5.447-2.537-1.758-.946-3.5-1.906-5.164-2.968a54.082 54.082 0 01-4.8-3.355 38.482 38.482 0 01-2.163-1.861 19.47 19.47 0 01-1.736-1.844l-.232-.315-.406-.328a44.449 44.449 0 01-5.254-5.254 70.434 70.434 0 01-4.694-6.13 76.041 76.041 0 01-4.056-6.619c-.664-1.114-1.191-2.3-1.777-3.464s-1.133-2.337-1.61-3.554c-1.062-2.376-1.912-4.842-2.755-7.315-.8-2.479-1.552-5.009-2.17-7.52-.547-2.537-1.2-4.984-1.558-7.714l-.625-4-.405-3.863c-.341-2.627-.483-5.273-.638-7.926-.213-2.646-.129-5.306-.213-7.965.084-2.653.051-5.318.213-7.978.129-2.659.3-5.325.592-7.978.238-2.659.6-5.306.953-7.965.373-2.646.837-5.286 1.339-7.926s1.075-5.261 1.726-7.868 1.326-5.222 2.182-7.791c-1.178 2.434-2.221 4.945-3.187 7.482a157.111 157.111 0 00-2.595 7.72q-1.149 3.912-2.086 7.888c-.6 2.653-1.23 5.312-1.642 8.01-.483 2.685-.85 5.389-1.178 8.106-.354 2.711-.535 5.441-.741 8.171-.058 2.736-.277 5.473-.2 8.216.025 2.743.032 5.492.244 8.235.09 1.4.167 2.659.3 4.192l.5 4.011c.257 2.646.882 5.447 1.391 8.2.226 1.4.65 2.711.972 4.063.374 1.339.637 2.711 1.108 4.024.869 2.646 1.751 5.286 2.865 7.855.5 1.3 1.075 2.575 1.693 3.831s1.172 2.537 1.874 3.748a81.927 81.927 0 004.327 7.218 65.253 65.253 0 005.183 6.677 49.132 49.132 0 005.924 5.788l-36.443 51.626-43.707 25.137-50.512-15.788L0 492.915l65.991 135.646 285.965 33-22 32.992 423.581 65.167 120.791-2.157 71.915-95.017 178.212-28.009 34.055-24.306zM294.863 173.623c-.56 3.181-1.017 6.381-1.294 9.594a88.673 88.673 0 011.294-9.594zm299.821 74.812l-1.416 3.664s-3.252 10.637-10.109 15.543-15.608 5.73-21.28 5.016-181.194-25.562-181.194-25.562l-69.146-11.532-22.278-2.312-7.919 5.731 39.3 5.46-7.636 9.922s-25.555-2.788-54.028-8.254a408.574 408.574 0 01-54.492-14.906 16.14 16.14 0 013.516-2.9 8.607 8.607 0 012.086-.895 4.2 4.2 0 01.509-.1 4.414 4.414 0 01.579-.006c.354.026.721.051 1.127.1 3.116.348 6.252.856 9.368 1.352 6.252 1.017 12.485 2.112 18.724 3.226q18.7 3.332 37.371 6.877l.457-2.775.316.051a73.618 73.618 0 016.587-4.166c2.279-1.14 24.325 2.331 24.325 2.331s-9.794-1.584-13.7-7.424c-3.136-4.687-3.354-14.281-3.322-17.893l9.523-.972-.135-2.016a129.892 129.892 0 014.7-40.274c5.756-19.638 17.984-24.029 18.492-24.2l.483-.232c.07-.045 6.941-4.269 26.766-3.091 20.791 1.236 124.732 12.169 125.691 12.272.844.123 83.839 12.24 95.706 14.745 11.571 2.447 21.892 9.523 25.53 13.264v.013h.013c.187.187.367.38.515.554 3.825 4.4 5.274 9.761 4.849 17.913-.476 9.285-7.044 31.324-7.057 31.4l-7.4 19.529 3.9 1.481.374-.972.309.038.47.058s6.445-11.9 12.993-23.508c-3.87 7.2-7.611 14.455-11.3 21.744a11.508 11.508 0 00-.406 1.114 2.589 2.589 0 00-.11.58.512.512 0 00.065.335zm137.326-35.207c-3.876-.328-7.752-.631-11.647-.811-3.9-.148-7.791-.251-11.745-.1-.991.077-1.97.09-2.981.232l-1.513.18-1.571.328-.392.084c-.316.09-.284.1-.445.148l-.682.238a10.728 10.728 0 00-1.474.65 9.366 9.366 0 00-1.442.818 9.959 9.959 0 00-1.314.914 30.217 30.217 0 00-7.642 9.587c-.972 1.745-1.848 3.522-2.7 5.273-.844 1.706-1.726 3.515-2.479 5.35a485.982 485.982 0 00-7.919 20.243c-6.2-.715-12.4-1.468-18.615-2.105a1522.73 1522.73 0 00-20.25-2.092l-10.135-.959-10.148-.882c-6.651-.489-13.289-1.082-19.953-1.462l-.56-.1a.535.535 0 01-.065-.341 2.965 2.965 0 01.122-.573 11.047 11.047 0 01.418-1.108c5.248-9.98 10.586-19.915 16.226-29.67q2.115-3.66 4.359-7.231a36.4 36.4 0 015.1-6.613 24.092 24.092 0 014.875-3.715 41.4 41.4 0 0112.729-4.05c1.77-.187 3.554-.219 5.383-.232 2.228 0 4.462.064 6.7.142 5.949.412 11.7.753 16.515 1.017.683.058 1.372.1 2.054.161 5.6.5 11.2 1.12 16.741 1.964s11.03 2.022 16.477 3.38 10.856 2.891 16.213 4.565c5.344 1.693 10.682 3.483 15.8 5.66 1.384.605 2.814 1.236 4.153 1.925-2.734-.313-5.456-.59-8.192-.815zm-75.185 126.805a19.377 19.377 0 004.99-4.005 23.331 23.331 0 01-4.846 5.937c-3.426 2.608-8.75 2.5-13.438 2.125-1.165-.1-2.286-.206-3.335-.3a.4.4 0 00-.212.071c.483-2 .856-3.419 1.082-4.25 8.603.57 14.897.821 15.759.422zm-63.338-1.468s-11 18.788-6.87 62.527c2.369 25.04 10.27 42.258 16.6 52.418a93.884 93.884 0 01-1.236-1.545 81.087 81.087 0 01-10-17.513 126.033 126.033 0 01-9.465-38.9 174.7 174.7 0 01.664-35.214 174.72 174.72 0 011.951-12.536c1.738-5.608 3.593-10.4 3.593-10.4l-1.23-.09c.135-.515.264-1.043.4-1.52.051-.206.1-.386.161-.586 11.95 1.107 36.6 3.329 52.953 4.4-.283.83-.754 2.247-1.371 4.243-.116.38-.238.785-.361 1.2a21.446 21.446 0 00-.818 2.814 139.87 139.87 0 00-2.6 10.695 179.05 179.05 0 00-3.187 23.431 153 153 0 00.8 30.758 119.531 119.531 0 009.826 35.278 78.812 78.812 0 0010.869 17.172 54.908 54.908 0 002.646 2.885 81.5 81.5 0 01-26.7-50.023c-5.73-42.5 3.258-75.945 3.258-75.945zm296.988-85.642a14.8 14.8 0 016.059-8.28s15.762-1.539 16.811 2.106a32.664 32.664 0 01-.045 6.9c-1.107-3.239-3.445-3.786-3.445-3.786s-11.905-.573-14.854.9-5.9 10.321-5.9 10.321-20.186 56.082-22.838 62.43l-.045-.026c2.192-6.293 22.616-65.067 24.257-70.565zm-22.387 91.669a241.035 241.035 0 017.6-37.757l5.009-13.94c3.741-8.422 7.714-13.232 11.326-12.775 8.621 1.075 11.893 31.692 7.3 68.38s-15.312 65.553-23.933 64.478-11.9-31.698-7.302-68.387zm-55.091 10.579c-.438 2.2-.978 5.132-1.4 8.055l-14.192-2.608s-.708-1.262-1.745-2.872c5.684-.843 11.582-1.719 17.337-2.576zm-81.528 102.086a115.184 115.184 0 0012.414-19.265 159.734 159.734 0 0014.339-42.908q.484-2.781.953-5.55c.251-1.816.5-3.619.753-5.428l.58-5.544c.135-1.835.264-3.664.4-5.486.2-3.419.283-6.825.277-10.205 1.481-.219 6.574-.979 13.644-2.028a6.587 6.587 0 004.385 5.331c4.874 1.526 10.257 2.666 12.247 1.533l1.983-1.133 17.558 3.013a8.84 8.84 0 00.47 3.85c1.14 2.112 4.237 6.535 6.465 9.658-.174 22.162 3.245 37.834 9.375 38.6L752.5 433.568l-33.411 39.38-4.076-.013a79.874 79.874 0 0016.456-15.678z"/><path data-name="Path 1119" d="M770.09 171.028c-6.1 6.014-1.5 17.648-1.5 17.648s4.262-2.678 6.586-4.172 13.393 1.32 16.863-.741 2.46-11.107 2.46-11.107z"/><path data-name="Path 1120" d="M784.185 158.163l-.973 10.575 10.276.579.882-9.884s-4.61-5.925-10.185-1.27z"/><path data-name="Path 1121" d="M829.063 121.688c-6.587-1.539-36.4-5.628-36.4-5.628a10.708 10.708 0 00-10.276 7.991l-4.172 27.661s-.49 3.863 1.4 5.878l1.887 2.022s1.32-4.829 7.681-4.391 7.334 4.134 7.334 4.134l-.219 1.751 25.285 3.168s7.115.174 8.081-4.694 3.561-28.453 3.561-28.453 2.425-7.9-4.162-9.439z"/><path data-name="Path 1122" d="M777.463 157.68s-1.661-3.773-.213-12.51 2.988-23.888 2.988-23.888 2.459-8.255 9.22-8.119 33.109 3.425 33.109 3.425.663-30.951.489-38.1-.528-12.91-5.222-15.285-28.317-7.469-28.317-7.469-4.92-.612-5.757 6.059l-12.395 87.633s-.618 2.06 1.14 5.138a6.192 6.192 0 004.958 3.116z"/><path data-name="Path 1123" d="M836.571 132.969c-.927 15.942-1.719 33.681-1.719 33.681l28.711 4.308s2.55-3.252 2.859-31.4-1.127-59.359-1.127-59.359-17.565-7.907-24.1-9.8c0 0-7.115-3.026-6.548 3.818s2.844 42.816 1.924 58.752z"/><path data-name="Path 1124" d="M877.273 149.838c-.708 17.037-.708 22.742-.708 22.742l24.145 3.741s2.511-34.293 1.062-51.24-2.189-28.105-2.189-28.105a16.256 16.256 0 00-5.969-6.451c-4.3-2.679-17.784-6.149-17.784-6.149s2.143 48.425 1.443 65.462z"/><path data-name="Path 1125" d="M874.649 398.31a4.6 4.6 0 002.35 2.009l.283.071.141.032.071.013a1.153 1.153 0 00.232.032 4.123 4.123 0 00.85-.051 4.214 4.214 0 001.417-.592 8.474 8.474 0 001.861-1.816 33.034 33.034 0 004.037-8.119c.985-2.711 1.777-5.37 2.466-7.932a247.189 247.189 0 005.106-25.1c.934-6.014 1.307-9.491 1.32-9.594l.006-.019v-.019c.013-.1.509-3.567 1.088-9.626a246.692 246.692 0 001.236-25.581c-.032-2.659-.142-5.428-.431-8.3a32.68 32.68 0 00-1.906-8.866 8.449 8.449 0 00-1.359-2.215 3.947 3.947 0 00-1.333-.972 4.312 4.312 0 00-.605-.2 4.2 4.2 0 00-.979-.051 4.848 4.848 0 00-2.652 1.365 11.728 11.728 0 00-1.726 1.97 43.48 43.48 0 00-4.546 8.963 133.466 133.466 0 00-5.872 19.774c-1.571 6.838-2.679 13.869-3.618 20.913-.818 7.063-1.488 14.152-1.636 21.164a133.84 133.84 0 00.811 20.61 43.318 43.318 0 002.2 9.8 11.925 11.925 0 001.188 2.337zm20.327-52.656zm-.193 1.635c-.013.09-.078.605-.207 1.539.072-.515.136-1.024.207-1.539zm-20.517 18.435c.451-6.87 1.03-13.856 1.957-20.8.817-6.967 1.97-13.876 3.239-20.649a169.892 169.892 0 014.861-19.561 41.432 41.432 0 013.773-8.615 8.1 8.1 0 011.912-2.2c3.805 6.252 4.526 27.745 1.378 52.914-3.155 25.2-9.156 45.85-14.391 50.957a4.373 4.373 0 01-.464-.657 10.17 10.17 0 01-.85-1.951 41.622 41.622 0 01-1.532-9.278 168.8 168.8 0 01.117-20.16z"/><path data-name="Path 1126" d="M825.688 310.968l-2.621.032a7.109 7.109 0 01-2.105-.225c-1.165-.361-1.81-1.307-2.261-2.8a11.615 11.615 0 01-.18-4.984l.747-5.859c.264-1.932.418-3.851.624-5.692.367-3.7.631-7.16.779-10.141.341-5.949.2-9.967.2-9.967s-1.243 3.825-2.563 9.639c-.676 2.9-1.384 6.3-2.047 9.961-.316 1.829-.7 3.709-.979 5.64l-.895 5.84a15.624 15.624 0 00.45 6.722 7.968 7.968 0 001.822 3.245 6.581 6.581 0 003.335 1.945 9.481 9.481 0 003.323.1l2.594-.354c1.693-.212 3.284-.464 4.758-.708 5.891-.927 9.787-1.912 9.787-1.912s-4-.412-9.961-.477c-1.484-.018-3.1-.037-4.807-.005z"/><path data-name="Path 1127" d="M885.273 225.706a61.779 61.779 0 00-5.157-.573c-.869-.077-1.758-.051-2.64-.064a11.271 11.271 0 00-2.724.406 10.48 10.48 0 00-2.518 1.269 12.442 12.442 0 00-2.1 1.8 12.59 12.59 0 00-1.037 1.3c.058-.708.122-1.468.187-2.324.316-4.488.85-10.895 1.333-18.589s1.14-16.67 1.661-26.3c.212-4.823.477-9.806.567-14.867.167-5.067.174-10.218.212-15.363-.084-10.3-.4-20.585-.818-30.223s-1.12-18.615-1.7-26.3-1.3-14.088-1.764-18.563c-.49-4.475-.831-7.018-.831-7.018s.683 10.257 1.43 25.658c.412 7.694.734 16.676 1.062 26.3s.547 19.889.535 30.159c0 5.132.052 10.263-.071 15.312-.045 5.054-.264 10.019-.431 14.822-.451 9.626-.715 18.621-1.024 26.328s-.418 14.127-.56 18.621c-.026 1.036-.052 1.957-.064 2.782-.109.167-.225.322-.322.5a10.683 10.683 0 00-1.12 2.6l.032-.1-6.413 18.26-6.188 18.338c-2.105 6.1-4.005 12.266-6.014 18.4a858.782 858.782 0 00-5.743 18.492q3.535-9.021 6.877-18.1c2.2-6.072 4.5-12.1 6.6-18.2l6.426-18.254 6.207-18.331.012-.032.013-.064a9.5 9.5 0 01.889-2.112 11.232 11.232 0 011.377-1.919 11.057 11.057 0 011.771-1.564 8.767 8.767 0 012-1.127 9.27 9.27 0 012.325-.444c.831-.013 1.655-.077 2.5-.032 1.68.045 3.38.18 5.067.367 3.38.373 6.767.882 10.141 1.416 3.38.554 6.748 1.179 10.115 1.816-3.3-.953-6.625-1.771-9.974-2.537s-6.71-1.457-10.126-1.946z"/><path data-name="Path 1128" d="M741.353 286.585s.792-9.175.747-11.68.792-20.591.309-28.144c-.354-5.6-2.285-11.2-5.157-13.663a13.243 13.243 0 017.005 10.332c1.269 9.787-1.017 45.174-1.017 45.174l4.037 7.643a100.716 100.716 0 002.021-16.155c.483-9.575 1.018-33.765-2.408-40.616-2.627-5.267-8.853-6.973-11.6-7.482a4.181 4.181 0 00-1.352-.206c-4.655.135-26.393-.09-31.968 4.565s-11.547 23.877-11.547 23.877 7.334 1.275 22.877 5.357 28.053 20.998 28.053 20.998z"/><path data-name="Path 1129" d="M687.14 446.627c23.315 2.923 46.269-26.47 51.156-65.514s-10.109-73.177-33.43-76.1-46.269 26.47-51.156 65.514 10.108 73.183 33.43 76.1zm41.884-109.3c2.356.972 6.226 9.549 6.529 23.3.193 8.937.007 19.407-.148 25.671a104.311 104.311 0 01-10.791 31.968 66.1 66.1 0 01-9.478 11.532c-5.19 4.919-7.991 2.5-8.841 1.449.342-.322.683-.638 1-.985a63.811 63.811 0 004.585-5.473 77.15 77.15 0 007.958-13.135c1.024-2.453 2.279-4.874 3.143-7.475.47-1.288.946-2.576 1.416-3.883.386-1.326.779-2.659 1.165-4 .844-2.653 1.365-5.467 2-8.242.573-2.8.927-5.428 1.371-8.325a117.124 117.124 0 00.708-16.9 97.011 97.011 0 00-1.88-16.284 58.615 58.615 0 01-.425-1.751c.02-3.699.316-8.038 1.688-7.476zm-73.08 32.291c3.18-23.508 12.954-43.294 25.246-54.041a49.988 49.988 0 0119.194 3.142c9.838 3.947 17.134 10.843 19.806 15.53.592 1.03 1.03 1.8 1.391 2.434.316 1.056.6 2.138.908 3.226.728 2.344 1.12 4.842 1.681 7.334a104.519 104.519 0 011.455 15.7 113.356 113.356 0 01-.818 16.277c-.392 2.608-.76 5.518-1.281 8.145-.592 2.633-1.043 5.273-1.842 7.862a105.9 105.9 0 01-5.177 14.893 84.164 84.164 0 01-7.153 12.852 64.658 64.658 0 01-4.121 5.415c-.7.85-1.481 1.584-2.2 2.363a21.491 21.491 0 01-2.228 2.176c-.773.657-1.533 1.307-2.273 1.938s-1.578 1.088-2.318 1.642a28.086 28.086 0 01-4.552 2.627 6.944 6.944 0 01-.734.348 36.582 36.582 0 01-8.68 2.1c-.721.013-1.41.006-2.021.045l-1.307.02-.477-.058c-13.727-7.6-22.806-28.176-23.521-53.081.818 10.953 3.748 20.643 8.255 27.783l13.161-33.733z"/><path data-name="Path 1130" d="M684.145 374.339c-.849 6.786 1.816 12.517 6.065 13.051s8.248-4.365 9.1-11.152-1.816-12.523-6.065-13.058-8.25 4.366-9.1 11.159zm8.834-9.085c2.995.374 4.939 5.286 4.256 10.721s-3.779 9.722-6.767 9.349-4.932-5.286-4.256-10.727 3.78-9.717 6.767-9.343z"/><path data-name="Path 1131" d="M709.018 330.175l-4.838 25.607 14-4.636c-1.789-8.435-4.951-15.678-9.162-20.971z"/><path data-name="Path 1132" d="M713.339 401.098a86.5 86.5 0 005.776-22.252c.077-.592.135-1.178.2-1.764l-13.367 6.774z"/><path data-name="Path 1133" d="M699.328 421.895l-9.047-20.314-14.081 26.1a19.213 19.213 0 004.3 1.069c6.549.82 13.049-1.762 18.828-6.855z"/><path data-name="Path 1134" d="M693.102 320.884c-10.792-.844-21.384 7.443-28.711 20.913l21.937 14.629z"/><path data-name="Path 1135" d="M264.48 288.607l-25.769-5.01s-15.247 44.827-1.287 78.682c11.538 27.989 37.454 50.158 69.126 47.042 12.008-1.185 23.4-4.546 32.78-11.931 9.555-7.533 17.784-16.168 23.707-26.882a138.542 138.542 0 0010.1-23.708s-11.2-4.61-14.268-5.711a71.026 71.026 0 00-7.945-2.06c-7.727 14.165-16.786 28.942-32.368 35.278-17.436 7.1-37.705 2.08-48.864-13.341-10.939-15.118-11.937-33.482-10.2-51.516.154-1.514 2.954-21.243 4.988-20.843z"/><path data-name="Path 1139" d="M352.175 156.959a22.157 22.157 0 00-3.149-5.544 17.523 17.523 0 00-4.823-4.43 15.969 15.969 0 00-4-1.771 15.229 15.229 0 00-5.132-1.3 16.5 16.5 0 00-3.921.11c-.637.129-1.294.238-1.925.4l-1.874.612a24.545 24.545 0 00-11.519 10.1 31.04 31.04 0 00-3.258 6.986 31.666 31.666 0 00-1.578 7.546 35.7 35.7 0 00.084 7.682 33.512 33.512 0 001.861 7.482 26.134 26.134 0 003.793 6.735 19.067 19.067 0 005.846 5.119 17.137 17.137 0 007.462 2.17 15.95 15.95 0 003.883-.245 19.466 19.466 0 003.722-1.095 21.639 21.639 0 006.361-4.249 26.1 26.1 0 004.7-5.962 30.473 30.473 0 003.026-6.922c.148-.476.238-.959.361-1.442a30.474 30.474 0 001.732-16.026 26.414 26.414 0 00-1.652-5.956zm-.2 17.25a28.751 28.751 0 01-3.425 9.233 23.642 23.642 0 01-5.4 6.381 17.463 17.463 0 01-5.672 3.11 15.99 15.99 0 01-4.153.663l-1.5-.032c.012.006.528.051 1.494.148a15.1 15.1 0 004.269-.393 17.817 17.817 0 006.033-2.878 22.645 22.645 0 005.93-6.387c.084-.135.161-.3.251-.438a33.086 33.086 0 01-1.784 3.258 25.215 25.215 0 01-4.7 5.634 20.5 20.5 0 01-6.136 3.863 16 16 0 01-7.057 1.043 15.509 15.509 0 01-6.722-2.157 18.66 18.66 0 01-5.254-4.8 24.7 24.7 0 01-3.457-6.3 31.435 31.435 0 01-1.661-7.044c-.032-.328-.051-.644-.077-.966.187-.856.5-1.526 1.037-1.578.908-.077 1.655 1.05 2.131 2.028a29.451 29.451 0 00.857 3.38 22.92 22.92 0 004.166 7.649 18 18 0 005.144 4.282 15.262 15.262 0 004.037 1.429l1.488.225c-.013 0-.522-.116-1.468-.341a15.921 15.921 0 01-3.857-1.668 17.323 17.323 0 01-4.737-4.406 23.682 23.682 0 01-3.651-7.514 28.649 28.649 0 01-1.043-9.819c.1-.863.161-1.79.3-2.633.187-.895.29-1.867.547-2.724a31.1 31.1 0 011.8-5.293 23.438 23.438 0 017.018-9.15 15.007 15.007 0 0110.888-3.258 14.171 14.171 0 015.531 1.951 15.475 15.475 0 014.353 3.908 23.475 23.475 0 014.552 10.6 32.3 32.3 0 01-.072 10.994z"/><path data-name="Path 1140" d="M402.056 107.31l12.3-1.313 15.633-33.72-7.372-.921-10.582-.961s-7.772-.618-9.568 8.074-3.3 23.489-3.3 23.489.354 2.9 1.629 4.127z"/><path data-name="Path 1141" d="M565.671 282.709l-7.34-.889s2.994.528 7.34.889z"/><path data-name="Path 1142" d="M759.646 40.024s-20.971-3.342-34.267-5.363-112.015-13.663-160.061-17.179-79.551-5.325-84.773-3.483-11.01 8.248-16.238 18.64-30.765 66.384-30.765 66.384c1.487-3.38 317.4 39.019 317.4 39.019s2.331-10.044 4.527-19.039 11.2-55.283 13-66.821-8.823-12.158-8.823-12.158zm1.082 12.44c-.238 1.558-.625 3.793-1.1 6.471-1.05-5.718-2.634-10.566-4.835-11.506-5.679-2.421-187.439-5.505-234.172 19.432s-30.108 28.723-24.319 30.3 45.045 9.845 45.045 9.845c-30.623-3.838-54.7-6.729-71.567-8.589-15.221-1.687-23.07-2.44-27.217-2.569 5.254-11.48 24.036-52.515 28.311-61.033 4.6-9.169 9.909-15.369 14.545-17 5.1-1.8 43.822.747 81.025 3.471 38.568 2.827 111.951 11.178 142.67 15.022 5.653.708 9.7 1.243 11.706 1.552 12.833 1.951 33.069 5.17 33.069 5.17l.4.045a8.141 8.141 0 015.305 2.807c1.192 1.569 1.572 3.788 1.134 6.582z"/><path data-name="Path 1143" d="M392.314 156.737c-2.26-2.421-8-4.424-10.843-2.215s-5.054 9.633-5.054 9.633-11.957 47.685-11.589 58.425a7.18 7.18 0 005.4 6.806 10.108 10.108 0 01-6.735-1.867 7.02 7.02 0 01-2.479-4.771c-.669-4.591 1.095-10.669 1.739-14.314 1.256-7.108 2.762-14.172 4.327-21.222q3-13.531 6.355-26.985a41.082 41.082 0 012.981-7.166c-2.93 2.575-5.177 10.1-5.177 10.1s-12.794 51.021-12.4 62.514c.258 7.546 10.63 9.652 15.872 5.608a8.434 8.434 0 002.859-4.166 7.6 7.6 0 00.876-1.32c2.17-4.2 2.4-9.768 3.18-14.365 1.636-9.632 10.064-42.792 10.064-42.792s2.891-9.478.624-11.903z"/><path data-name="Path 1144" d="M419.447 160.14c-2.266-2.421-8-4.423-10.843-2.215s-5.055 9.632-5.055 9.632-11.957 47.686-11.59 58.425a7.188 7.188 0 005.389 6.806 10.106 10.106 0 01-6.729-1.874 7.018 7.018 0 01-2.479-4.765c-.676-4.6 1.088-10.675 1.739-14.313 1.256-7.109 2.762-14.178 4.327-21.222q2.994-13.531 6.355-26.991a41.39 41.39 0 012.974-7.166c-2.923 2.582-5.17 10.1-5.17 10.1s-12.794 51.021-12.4 62.521c.251 7.546 10.624 9.645 15.872 5.6a8.486 8.486 0 002.859-4.166 7.524 7.524 0 00.876-1.314c2.17-4.2 2.4-9.774 3.18-14.371 1.629-9.633 10.057-42.792 10.057-42.792s2.898-9.474.638-11.895z"/><path data-name="Path 1145" d="M446.58 163.534c-2.266-2.421-8-4.423-10.843-2.215s-5.061 9.633-5.061 9.633-11.95 47.685-11.59 58.423a7.189 7.189 0 005.4 6.806 10.127 10.127 0 01-6.729-1.867 6.993 6.993 0 01-2.479-4.771c-.676-4.591 1.088-10.669 1.732-14.313 1.255-7.108 2.769-14.172 4.333-21.222q2.994-13.531 6.355-26.985a41.408 41.408 0 012.975-7.166c-2.924 2.575-5.17 10.1-5.17 10.1s-12.807 51.018-12.407 62.51c.258 7.553 10.63 9.652 15.872 5.608a8.516 8.516 0 002.865-4.166 7.58 7.58 0 00.869-1.32c2.176-4.2 2.4-9.768 3.181-14.365 1.635-9.632 10.063-42.792 10.063-42.792s2.894-9.477.634-11.898z"/><path data-name="Path 1146" d="M473.706 166.933c-2.26-2.427-8-4.423-10.843-2.215s-5.055 9.632-5.055 9.632-11.957 47.685-11.59 58.425a7.194 7.194 0 005.4 6.806 10.112 10.112 0 01-6.735-1.874 7.018 7.018 0 01-2.479-4.765c-.669-4.6 1.094-10.675 1.739-14.313 1.255-7.109 2.762-14.178 4.327-21.222q3-13.531 6.355-26.991a41.118 41.118 0 012.981-7.166c-2.93 2.582-5.177 10.1-5.177 10.1s-12.794 51.021-12.4 62.521c.258 7.546 10.63 9.645 15.872 5.6a8.406 8.406 0 002.859-4.166 7.79 7.79 0 00.876-1.313c2.17-4.211 2.4-9.774 3.181-14.372 1.635-9.632 10.064-42.792 10.064-42.792s2.892-9.474.625-11.895z"/><path data-name="Path 1147" d="M500.835 170.327c-2.266-2.421-8-4.423-10.843-2.215s-5.055 9.632-5.055 9.632-11.957 47.686-11.59 58.426a7.183 7.183 0 005.389 6.806 10.137 10.137 0 01-6.728-1.867 7.02 7.02 0 01-2.479-4.771c-.669-4.591 1.095-10.669 1.739-14.313 1.255-7.109 2.762-14.172 4.327-21.222q3-13.531 6.355-26.985a41.407 41.407 0 012.975-7.166c-2.923 2.575-5.17 10.1-5.17 10.1s-12.793 51.021-12.4 62.514c.258 7.546 10.63 9.652 15.871 5.608a8.468 8.468 0 002.859-4.166 7.828 7.828 0 00.875-1.32c2.17-4.2 2.4-9.768 3.181-14.365 1.635-9.632 10.064-42.792 10.064-42.792s2.895-9.483.63-11.904z"/><path data-name="Path 1148" d="M517.13 171.511c-2.846 2.208-5.055 9.632-5.055 9.632s-11.957 47.679-11.6 58.425a7.193 7.193 0 005.4 6.806 10.1 10.1 0 01-6.729-1.874 7.021 7.021 0 01-2.479-4.771c-.676-4.591 1.088-10.669 1.738-14.313 1.256-7.109 2.762-14.172 4.327-21.216q2.994-13.541 6.355-26.991a41.405 41.405 0 012.975-7.166c-2.924 2.582-5.17 10.1-5.17 10.1s-12.794 51.021-12.4 62.521c.251 7.546 10.624 9.645 15.871 5.6a8.492 8.492 0 002.859-4.166 7.518 7.518 0 00.876-1.314c2.17-4.211 2.4-9.774 3.181-14.371 1.629-9.632 10.057-42.792 10.057-42.792s2.9-9.472.638-11.893-8.004-4.426-10.844-2.217z"/><path data-name="Path 1149" d="M595.342 209.364a27.339 27.339 0 001.031-3.149 26.884 26.884 0 00-.245-14.139 28.5 28.5 0 00-3.135-6.9 27.094 27.094 0 00-11.719-10.167 27.215 27.215 0 00-4.217-1.462 29.186 29.186 0 00-6.194-1.6 31.479 31.479 0 00-9.484.219 30.023 30.023 0 00-8.937 3.227 28.76 28.76 0 00-7.514 5.834 29.5 29.5 0 00-7.9 17.114 31.322 31.322 0 00.451 9.465 30.447 30.447 0 009.349 16.277 29.265 29.265 0 0017.166 7.43l2.311.142 2.389-.084a20.512 20.512 0 002.357-.27 14.838 14.838 0 002.318-.438 28.144 28.144 0 008.686-3.548 29.212 29.212 0 0011.989-14 24.367 24.367 0 001.298-3.951zm-6.754 11.377a30.081 30.081 0 01-7.057 5.7 26.9 26.9 0 01-8.428 3.226 13.748 13.748 0 01-2.228.374 18.949 18.949 0 01-2.241.206l-2.234.038-2.3-.193a29.328 29.328 0 01-8.621-2.382 30.7 30.7 0 01-7.437-4.952 27.586 27.586 0 01-5.537-6.992 27.084 27.084 0 01-3.1-8.345v-.007c.109-1.481.489-2.936 1.584-2.981 1.609-.065 2.942 1.938 3.573 3.071a26.92 26.92 0 001.732 4.4 26.212 26.212 0 0013.779 12.382 18.742 18.742 0 002.878.921 15.645 15.645 0 002.176.457l1.835.264h-.02c-.013 0-.637-.129-1.81-.373a14.536 14.536 0 01-2.131-.592 20 20 0 01-2.781-1.049 25.061 25.061 0 01-6.722-4.333 27.064 27.064 0 01-6.175-8.2 26.287 26.287 0 01-2.518-11.757c.058-1.056.142-2.189.3-3.213a24.491 24.491 0 01.747-3.3 25.863 25.863 0 012.717-6.246 26.582 26.582 0 014.469-5.473 27.285 27.285 0 015.949-4.095 26.85 26.85 0 016.974-2.254 25.743 25.743 0 0114.494 1.816 25.183 25.183 0 0110.958 9.336 25.852 25.852 0 013.464 19.735 26.228 26.228 0 01-5.325 10.733 26.879 26.879 0 01-8.01 6.426 25.159 25.159 0 01-7.572 2.543 21.123 21.123 0 01-2.962.335 15.62 15.62 0 01-2.215.045l-1.841-.084s.637.071 1.835.193a14.4 14.4 0 002.228.09 17.694 17.694 0 003.013-.18 25.774 25.774 0 007.862-2.241 26.255 26.255 0 008.544-6.355 27.574 27.574 0 002.942-4.121 30.291 30.291 0 01-4.789 7.427z"/><path data-name="Path 1150" d="M580.629 238.699a14.215 14.215 0 00-5.756-3.213 14.388 14.388 0 00-7.437-.045 15.016 15.016 0 00-3.709 1.565 15.3 15.3 0 00-3.194 2.659 14.774 14.774 0 00-2.318 3.554 16.294 16.294 0 00-1.172 4.069 14.449 14.449 0 001.494 8.358 14.121 14.121 0 005.653 5.789 13.713 13.713 0 003.606 1.4 13.88 13.88 0 001.8.316 17.741 17.741 0 001.82.075 14.124 14.124 0 0012.736-8.828 12.671 12.671 0 00.766-2.6l.154-.94-.167.94a12.6 12.6 0 01-.8 2.582 12.224 12.224 0 01-2.228 3.535 13.021 13.021 0 01-4.308 3.207 13.545 13.545 0 01-6.136 1.178c-.541-.039-1.127-.1-1.648-.187a12.382 12.382 0 01-1.7-.425 12.833 12.833 0 01-3.142-1.487 13.5 13.5 0 01-4.694-5.4 15.083 15.083 0 01-1.082-3.509 13.176 13.176 0 01.908-7.244 15.123 15.123 0 011.918-3.129 13.538 13.538 0 015.872-4.076 13.179 13.179 0 016.831-.431 13.549 13.549 0 015.634 2.646c.18.142.3.316.457.464a13.568 13.568 0 10.181.18 13.638 13.638 0 012.749 3.522 13.127 13.127 0 011.423 6.677l-.064.959s.032-.335.084-.959a12.513 12.513 0 00-.1-2.711 14.242 14.242 0 00-4.431-8.491z"/><path data-name="Path 1151" d="M323.664 217.709c-.065.155-.142.316-.213.47.084-.161.143-.309.213-.47z"/><path data-name="Path 1152" d="M324.295 207.241a12.648 12.648 0 00-2.067-4.018 9.172 9.172 0 00-4.423-3.187 8.918 8.918 0 00-6.188.244 11.472 11.472 0 00-5.183 4.275 14.847 14.847 0 00-1.667 13.38 11.446 11.446 0 003.966 5.422 8.953 8.953 0 002.917 1.442 8.809 8.809 0 001.5.3 9.437 9.437 0 001.532.026 9.213 9.213 0 005.055-2 12.681 12.681 0 003-3.38 14.74 14.74 0 00.714-1.558 12.684 12.684 0 01-.863 1.468 10.89 10.89 0 01-3.116 3.1 8.538 8.538 0 01-4.816 1.449 7.908 7.908 0 01-1.314-.135 7.041 7.041 0 01-1.346-.393 7.586 7.586 0 01-2.363-1.442 10.8 10.8 0 01-3.065-4.907 14.567 14.567 0 011.474-11.712 10.83 10.83 0 014.173-3.992 7.72 7.72 0 015.37-.669 8.334 8.334 0 012.988 1.429 7.354 7.354 0 00-3.3-1.268c-4.829-.605-9.343 3.721-10.083 9.665s2.562 11.249 7.391 11.854 9.336-3.722 10.083-9.665a12.6 12.6 0 00-.7-6.072c.058.135.122.277.174.406a12.277 12.277 0 01.728 3.354 13.015 13.015 0 01.026 2.221c-.039.515-.065.785-.065.785l.078-.785a13.459 13.459 0 00.019-2.221 14.779 14.779 0 00-.629-3.416z"/><path data-name="Path 1153" d="M324.127 216.576a9.659 9.659 0 01-.463 1.133c.155-.361.419-.792.515-1.114a13.215 13.215 0 00.528-2.163l.122-.779-.135.779a12.51 12.51 0 01-.567 2.144z"/><path data-name="Rectangle 19" d="M325.543 260.335l.57-4.134 155.549 21.427-.57 4.134z"/></g></svg>