<svg xmlns="http://www.w3.org/2000/svg" width="1105.455" height="521.727"><g data-name="Group 74" fill="#002581"><path data-name="Path 1166" d="M221.241 238.143q-35.1 1.833-70.2 3.661c-3.77.2-7.55.247-11.311.544-12.422.981-12.418 1.012-12.572-12.1-32.714 19.8-71.894 27.711-98.415 60.737 18.584-1.71 35.3-2.652 52.039-2.67 7.006-.009 14.043-.24 21.01.328 8.679.71 13.055 6.588 9.735 14.493-7.39 17.588-15.806 34.763-26.539 50.616-5.2 7.684-13.738 9.146-22.168 9.549q-23.824 1.135-47.686 1.342c-4.167.036-6.193 1.594-8.17 4.964-14.358 24.493-5.727 58.43 18.644 73.088a17.649 17.649 0 008.444 2.256c11.84.711 23.672 1.653 35.522 2.071 4.693.165 6.8 1.125 7.9 6.453 2.909 14.067 9.672 26.1 21.6 34.923 3.492 2.582 7.908 2.784 12.276 5.575-4.894 2.1-8.846.409-12.69.432-21.577.122-43.155.059-64.733.049-2.939 0-6.365-.661-6.855 3.61-1.326 11.576-10.4 15.278-19.22 19.338a12.1 12.1 0 00-5.208 4.309c6.256 0 12.512.037 18.767-.008 35.025-.252 70.05-.781 105.075-.737q137.449.167 274.9.762c35.093.133 69.969-3.705 104.96-5.427 30.958-1.523 61.878-3.833 92.813-5.809q71.8-4.588 143.6-9.183c29.326-1.852 58.661-3.544 87.987-5.392 47.608-3 95.21-6.133 142.822-9.088 30.672-1.905 61.358-3.552 92.033-5.411a162.151 162.151 0 0019.8-2.439H903.68c9.686-7.171 17.463-14.61 22.263-24.7 3.871-8.136 6.632-16.541 7.048-25.521.181-3.908.965-5.634 5.362-5.849q43.622-2.12 87.213-4.8c17.722-1.1 35.425-2.16 52.9-6.066 24.918-5.569 25.939-17.838 26.986-40.877.04-.888-.823-2.619-1.2-2.6-9.127.408-6.246-6.562-5.911-10.7.56-6.921-3.114-11.246-7.437-15.293-4.279-4.007-5.506-8.514-5.548-14.348q-.292-39.646-1.641-79.282c-.172-5.134 2.36-7.974 5.38-11.023 3.433-3.469 6.131-6.806 5.932-12.461-2.023-57.489-6.661-114.675-19.419-170.917-6.517-28.734-6.71-29.4-35.128-31.6-41.385-3.211-82.847-5.466-124.3-7.772-57.6-3.2-115.2-6.353-172.829-9-47.375-2.18-94.9-2.1-142.146-5.8-42.951-3.368-76.613 17.66-111.494 36.5a230.832 230.832 0 00-35.349 24.144c-1.317 1.067-2.518 2.8-5.937 2.105C475.386 37.93 505.264 18.48 536.67 2.365c-62.83-6.079-113.52 22.827-161.912 57.948-6.081 4.414-11.685 9.487-17.988 13.659 22.725-24.1 48.9-43.89 77.961-61.153-20.364-1.584-69.818 23.413-124.325 60.84 4.983-4.757 9.83-9.667 14.985-14.229q8.473-7.5 17.419-14.461c5.717-4.446 11.7-8.546 17.257-13.227-45.3 15.441-75.494 51.6-110.634 81.348 16.652-1.794 32.432-7.744 49.043-9.038 16.64-1.3 33.294-2.225 50.072-.972-8.91 1.342-18.093.716-26.231 3.643 7.336 1.315 15.432-1.4 23.214 1.369-32.28 1.463-64.27 4.647-95.571 13.295 17.159-.623 34.235-2.657 51.416-2.509 17.5.153 35.005.034 52.557 1.646-22.228 3.479-44.645 3.984-66.812 7.484 30.523.1 60.95 1.938 93.343 2.859-9.9 10.256-18.344 19.171-26.966 27.908-18.18 18.425-36.537 36.677-54.622 55.194-3.879 3.973-7.908 5.452-13.474 5.33-27.983-.605-55.939.546-83.911 2.4 16.9 2.886 34.2 1.425 51.068 4.763-36.695 2.315-73.436 3.778-109.842 9.265 26.244-1.314 52.352 1.405 78.524 2.416zm572.665-4.422c-76.306-.151-152.581 2.035-228.87 3.134-13.887.2-20.291-6.246-20.32-20.179q-.1-50.6-.016-101.19c.029-12.812 8.81-21.057 21.683-20.68 26.4.774 52.8 1.673 79.2 2.346q130.584 3.334 261.171 6.537c42.042 1.045 84.086 2 126.125 3.106 15.5.4 21.944 6.711 23.5 21.755q3.442 33.376 7.429 66.7c.526 4.387.042 7.462-3.647 10.521-8.71 7.22-17.142 14.807-25.3 22.646-4.211 4.046-8.625 5.438-14.422 5.424q-113.267-.27-226.533-.12zM518.534 64.364l-.243-1.7c6.272-1.89 12.483-4.021 18.828-5.626 22.038-5.576 44.447-2.737 66.642-1.99 32.212 1.084 64.436 1.707 96.647 3.085 57.627 2.468 115.311 3.571 172.973 5.224q88.106 2.524 176.214 4.943c8.684.229 15.073 3.7 18.93 11.381 4.253 8.47 3.119 10.177-6.125 9.963-63.86-1.479-127.717-3.117-191.58-4.42q-126.452-2.58-252.91-4.756-60.61-1.146-121.218-2.386c-5.286-.1-10.577-.015-15.865-.015a23.362 23.362 0 0116.218-5.838c33.648.892 67.3 1.825 100.946 2.6 10.294.238 20.6.037 30.9.037l-.026-.5zm-164.24 428.169a76.485 76.485 0 0020.332-41.224c.651-3.924 3.132-3.712 5.822-3.832 12.653-.577 25.3-1.188 37.959-1.725 59.986-2.544 119.982-4.845 179.945-7.831 9.046-.45 14.929.394 16.15 10.59.272 2.283 1.851 4.442 2.972 6.583 6.081 11.614 15.866 19.015 27.625 24.574zm504.894-194.652l-125.428 7.522c-66.728 4.015-133.378 9.323-200.23 11.321-38.047 1.138-76.026.8-113.959-2.155-9.306-.726-18.767-1.2-27.7-4.982 207.318-8.582 414.638-17.164 623.71-25.816-8.227 6.9-15.878 8.008-24.169 8.2-28.461.646-56.911 1.762-85.365 2.7 12.984 6.459 24.147 14.3 29.932 27.462 2.467 5.612 5.461 6.52 10.886 6.358q51.753-1.523 103.521-2.391c6.334-.112 12.345 1.6 17.474 7.2a24.9 24.9 0 01-3.212.674c-37.192 1.184-74.4 2.012-111.569 3.733-10.044.465-16.3-2.083-22.684-10.436-24.495-32.042-76.829-26.593-94.826 9.294-1.532 3.058-3.119 4.178-6.6 4.318-34.74 1.414-69.467 3.135-104.2 4.632-42.832 1.849-85.673 3.529-128.507 5.35q-90.506 3.848-181.009 7.7c-3.173.131-8.81 2.115-9-2.267-.2-4.718 5.479-2.4 8.421-2.535 54.405-2.54 108.824-4.776 163.231-7.271 74.873-3.433 149.727-7.376 224.621-10.25 14.326-.55 25.169-5.578 33.579-16.116 6.734-8.443 13.521-16.505 23.083-22.246zm-432.094-98.049l.151.006c.891-20.728 2.254-41.451 2.462-62.185.1-9.448 4.314-14.322 12.4-17.41a145.114 145.114 0 0151.984-10c11.843-.012 13.835 1.971 15.189 13.793 3.553 31.025-.24 61.784-2.416 92.689-1.365 19.374-11.473 29.569-27.86 36.391a361.179 361.179 0 01-49.712 16.427c-4.543 1.158-5.472.334-5.216-4.317 1.202-21.787 2.05-43.595 3.018-65.394zM586.726 413.64v-.1c-29.365.88-58.726 1.808-88.092 2.623-27.745.77-55.5 1.154-83.236 2.267-9.864.4-6.729-7.309-7.974-11.646-1.747-6.08 3.9-4.287 6.815-4.415 28-1.225 56-2.282 84.006-3.367q79.159-3.069 158.319-6.116c45.5-1.761 91-3.394 136.489-5.434 6.943-.312 7.863 1.843 5.591 7.545a30.326 30.326 0 00-1.89 7c-.74 5.307-3.756 6.643-8.838 6.758q-100.59 2.266-201.19 4.885zm-186.887-65.593c-10.34-5.063-19.763-5.184-29.039-3.761-4.664.716-8.135-.454-12.1-2.32-31.408-14.8-61.364-12.036-88.405 9.742-7.291 5.873-13.856 8.8-22.932 8.188-9.186-.613-9.43-.241-5.527-8.534 13.5-28.666 37.384-42.66 67.646-47.395 35.477-5.546 73.795 12.554 90.357 44.08zm297.968 131.158c19.266-8.251 29.7-22.534 33.117-42.243.7-4.054 2.985-4.379 6.177-4.532 15.831-.757 31.677-1.367 47.474-2.6 5.422-.426 6.912 1.788 7.715 6.4a63.4 63.4 0 0019.547 36.194c2.324 2.187 6.018 3.012 7.479 6.784zM422.58 133.833c-.811 16.4-1.511 31.134-2.277 45.865q-2.286 43.967-4.63 87.932c-.123 2.351.447 5.188-2.986 5.682-6.366.918-12.671 2.782-20.663 2.368 5.869-5.978 10.034-11.256 9.94-18.52-.178-14.01-.824-28-3.9-41.724-3.372-15.053-9.233-18.478-24.819-16.682-8.4.966-13.179 4.46-14.907 12.879-.756 3.681-1.051 7.821-4.013 11.536-.842-4.035-1.087-7.622-2.355-10.8-2.92-7.323-.52-12.7 4.76-17.891 5.365-5.272 10.036-11.245 15.214-16.717 14.968-15.822 30.169-31.392 50.636-43.928zM951.226 380.86c25.3-1.474 49.728-2.984 74.166-4.291 17.746-.949 35.506-1.674 53.264-2.368 1.734-.068 4.513-1.786 4.912 2.045 1.137 10.955-9.03 24.031-20.2 24.492-33.9 1.4-67.815 2.283-101.724 3.407-2.267.075-4.39.452-4.342-2.931.1-6.938-3.252-12.932-6.076-20.354zm-633.7 40.944c.544-4.474 1.255-8.935 1.592-13.423.381-5.1.3-10.241.672-15.346.188-2.536-1.417-5.868 1.289-7.392 1.5-.842 4.747-.43 6.1.721 2.522 2.146.123 4.893-.468 7.394-2.164 9.149-5.327 18.122-5.3 27.68.019 8.088 3.305 10.386 10.611 7.057 7.631-3.479 14.381-8.422 20.919-13.656 1.53-1.224 2.845-4.182 5.129-2.641 1.545 1.041 2.546 3.563 2.883 5.573.583 3.471-2.739 3.134-4.771 3.977-8.48 3.511-17.372 6.231-26.032 13.2 11-.46 19.593-3.476 28.242-6.293 1.845-.6 4.214-2.65 5.579.276a10 10 0 01.721 6.224c-.6 2.324-3.13 1.37-4.886 1.312a99.376 99.376 0 00-24.082 2.114c-8.651 1.848-10.352 6.939-5.032 14.07 5.2 6.97 12.109 12.194 18.759 17.673 1.721 1.419 5.02 2.2 3.947 5.231-.656 1.852-2.5 4.06-4.25 4.568-2.875.832-3.513-2.568-4.784-4.31-5.569-7.631-10.65-15.659-18.5-21.371a91.738 91.738 0 0013.215 25.479c4.554 6.1 2.674 8.752-4.154 10.376-3.624-10.274-6.165-21.035-11.56-30.673-1.585-2.834-3.2-5.769-7.08-5.791-4.02-.026-5.349 3.186-6.844 6.006a117.11 117.11 0 00-10.255 27.114c-1.333 5.454-3.526 4-6.669 2.293-3.77-2.052-1.885-4.153-.332-6.47 5.913-8.822 11.683-17.732 14.49-28.186-8.182 6.545-13.886 15.006-19.751 23.35-1 1.427-1.773 4.313-3.71 3.541-2.041-.817-3.866-3-5.009-5.02-1.338-2.369 1.464-3.1 2.779-4.121 7.046-5.458 13.824-11.2 19.636-17.989 2.622-3.066 5.775-6.114 4.084-10.678-1.676-4.526-6.195-5.1-10.039-5.584-7.464-.937-15.024-1.086-22.535-1.691-1.96-.156-4.867 1.271-5.616-1.449-.6-2.164-.546-5.216.594-6.986 1.736-2.688 4.392-.124 6.481.491 8.794 2.591 17.363 6.188 28.275 6.082-8.37-6.511-16.728-9.441-24.9-12.675-8.813-3.487-8.852-3.389-2.478-11.621 8.452 6.617 16.491 13.907 26.479 18.251 7.263 3.159 10.915.8 10.674-7.107-.314-10.309-3.382-20.112-6.127-29.965-.445-1.6-2.428-3.735-.363-5.053 1.926-1.228 4.536-2.265 6.888-1.288 2.183.907 1.231 3.313 1.255 5.054.134 10.636-.094 21.296 4.234 31.672zm-157.673 72.491c13.137-8.775 23.556-18.952 28.113-33.975 1.194-3.934 3.388-3.878 6.591-3.788 14.519.4 28.973 3.025 43.542 1.406 2.664-.295 3.955.64 4.659 3.125 3.479 12.287 10.062 22.86 19.67 33.231zm38.845-198.532c-15.427 2.253-30.014 4.431-44.62 6.466-2.24.313-6 3.09-6.45-.821-.382-3.3-.56-8.209 5.518-9.027 19.453-2.612 38.857-5.591 58.269-8.486 4.267-.635 4.888.709 3.943 4.851-2.149 9.434-3.887 18.982-5.271 28.561-1.169 8.087-5.73 12.3-13.346 14.076-15.435 3.6-30.827 7.389-46.258 11-5.113 1.2-10.054 3.476-15.614 3.258 1.858-9.934 6.954-16.028 16.062-19.9 13.107-5.574 25.648-12.468 38.471-18.716 4.539-2.212 8.131-5.104 9.296-11.262zm756.82-38.7c-2.5.239-3.539.416-4.585.431q-93.672 1.232-187.345 2.294c-2.784.027-7.338 2.783-8.476-2.884-1.26-6.273 3.723-6.821 7.68-8.086a19.26 19.26 0 015.555-.67c56.516-.716 113.036-1.125 169.539-2.358 9.027-.2 12.846 4.248 17.631 11.271zm-90.467 157.255c-6.815-5.438-14.619-8.3-22.2-11.613-2.044-.893-5.43-.671-4.939-4.132.28-1.971 1.262-4.651 2.76-5.447 2.173-1.16 3.6 1.774 5.145 3.025 6.1 4.917 12.2 9.816 19.372 13.06 6.549 2.963 9.77.872 9.715-6.345-.07-9.233-2.648-18.061-5.04-26.9-.526-1.942-2.745-4.1-.581-5.866a6.831 6.831 0 015.346-.989c3.328.891 1.819 4.04 1.893 6.208.317 9.146-.343 18.375 2.973 29.182 2.739-11.014 2.266-20.439 3-29.733.147-1.889-1.326-4.678 1.785-5.374a6.458 6.458 0 014.663.726c2.279 1.629.724 3.99.055 5.861-2.918 8.177-3.85 16.771-5.5 25.21-.585 3-.288 6.033 2.282 8.164 2.8 2.321 5.662.891 8.321-.389 6.6-3.178 12.284-7.715 17.97-12.269 1.445-1.157 2.773-4.151 5.231-2.085a8.147 8.147 0 012.52 4.908c.348 3.063-2.794 2.765-4.552 3.513-7.557 3.209-15.489 5.66-23.4 12.023 10.392-.071 18.281-3.284 26.223-6.056 3.992-1.393 4.505.765 5.122 3.77.719 3.5-.855 4.148-3.858 4.06a96.106 96.106 0 00-20.906 1.441c-9.568 1.822-11.623 6.844-5.508 14.6 5.04 6.387 11.27 11.551 17.716 16.468 1.109.848 3.36 1.438 2.128 3.581-1.051 1.826-2.023 4.123-4.3 4.544-1.913.354-2.311-1.816-3.19-3.067-5.216-7.4-10.051-15.117-17.6-22.188-.094 4.574 1.8 7.232 3.288 9.924 3.257 5.883 6.525 11.774 10.167 17.419 2.216 3.434.439 4.685-2.175 6.166-3.968 2.251-3.939-1.212-4.457-3.221a137.99 137.99 0 00-8.842-24.2c-1.268-2.7-2.824-5.363-6.386-5.4-3.657-.036-5 2.878-6.3 5.483a137.443 137.443 0 00-8.821 23.354c-.564 1.959-.17 4.938-2.873 5.184-1.6.146-3.765-1.043-4.943-2.314-2.078-2.241.593-3.912 1.6-5.509 5.121-8.093 9.8-16.38 12.805-25.586-8.9 6.9-14.005 16.947-20.942 25.291-6.437-4.12-5.506-6.885-.17-10.812a101.782 101.782 0 0015.766-15.007c6.47-7.377 4.321-12.771-5.2-14.637a100.641 100.641 0 00-20.911-1.6c-1.861.027-4.808 1.385-5.257-1.859a9.645 9.645 0 011.1-6.189c1.294-1.944 3.411-.044 5.066.483 8.108 2.584 16.079 5.769 24.839 5.137zm-753.674 18.768c9.354-7.184 16.436-12.949 26.931-12.514 19.772.821 39.04-3.736 58.436-6.785 12.068-1.9 24.169-3.594 36.7-5.444-1.517 5.24-3.678 9.364-3.675 13.486 0 5.952-2.836 7.111-7.754 7.39-20.981 1.192-41.935 2.915-62.927 3.75-15.191.603-30.429.115-47.712.115zm-57.21-24.536v-1.286c10.232 0 20.464.022 30.7-.014 3.475-.011 6.616.7 7.725 4.441 2.815 9.5-6.219 21.453-16.3 21.234-16.427-.355-32.847-1.071-49.268-1.686-1.44-.055-4.488.229-3.859-1.3 2.421-5.881-2-9.694-3.62-14.229-1.811-5.067-.541-7.176 4.713-7.169q14.953.022 29.908.006zm93.6-34.745c7.767-2.446 14.37-.894 18.932 6.007 4.11 6.219 4.039 12.648-.256 18.831-4.711 6.782-11.259 7.851-19.185 5.569 8.344-2.162 13.764-6.991 13.575-15.626-.176-8.074-5.636-12.293-13.063-14.784zm413.713-93.663c-.447-7.02 8.3-14.979 16.033-15.342 7.835-.368 17.329 7.249 17.3 13.981 0 .944-.423 2.343-1.092 2.7a3.012 3.012 0 01-2.842-.56c-8.7-10.285-17.091-9.527-25.682.23-1.517 1.724-3.484 1.04-3.714-1.012zm-72.187-15.324c7.516.086 14.938 6.08 16.333 13.111.272 1.372.589 2.911-.651 3.664-1.194.722-2.432-.132-3.576-1-11.983-9.09-13.832-9.113-24.369-.272-1.043.875-1.885 2.109-3.365 1.406-1.953-.926-1.231-2.508-.844-4.113a17.254 17.254 0 0116.474-12.799zm-340.9 116.334c-7.948 5.527-6.075 10.521 1.866 16.531-7.74-1.449-11.817-3.726-11.362-9.515.36-4.547 3.175-7.711 9.501-7.019z"/><path data-name="Path 1167" d="M72.859 326.547c-3.9 3.386-7.255 2.427-10.324 2.7-15.3 1.349-30.605 2.548-45.89 4-2.594.247-6.442-.331-6.05 4.428.426 5.2 4.379 2.843 6.758 2.866 17.22.177 34.44.1 51.754 1.552-16.966 1.6-33.945 3.093-50.886 4.914-2.748.295-7.924-2.109-7.254 4.325.51 4.893.708 9.476 8.135 8.742 14.739-1.455 29.549-2.261 44.345-3.032 6.6-.343 11.482-3.3 14.475-8.821 8.068-14.9 16.1-29.829 23.538-45.048 3.514-7.193 1.812-9.414-5.887-9.4-21.288.03-42.6-.841-63.845 1.326-3.574.366-7.111.395-8.206 6.083h60.739q.007.779.011 1.563c-20.033 1.828-40.063 3.7-60.1 5.455-3.845.337-7.825.116-7.472 6.223h59.712l.1 1.2-23.74 2.2q-17.294 1.613-34.581 3.258c-2.267.219-5.552-.547-5.563 3.018-.011 4.089 3.66 2.317 5.521 2.337 17.77.188 35.547.111 54.71.111z"/><path data-name="Path 1168" d="M634.65 111.531c48.761 1.857 97.526 3.609 146.283 5.6q111.1 4.532 222.195 9.314c3.234.136 6.47.178 9.706.247 13.4.288 21.126 7.909 22.474 21.463 1.994 20.07 4.334 40.105 6.572 60.56 8.964-4.575 13.474-9.881 11.519-20.89-3.054-17.2-3.77-34.814-5.827-52.211-1.679-14.21-6.68-18.894-20.974-19.153q-80.07-1.463-160.145-2.518-110.4-1.625-220.809-3.169c-3.662-.052-7.325-.007-10.988-.007z"/><path data-name="Path 1169" d="M560.962 111.557c-5.7 3.163-8.073 8.119-8.06 14.6.052 28.041-.058 56.083.039 84.124.032 9.469 6.023 14.6 16.469 14.52q52.134-.41 104.268-.866 80.42-.642 160.839-1.288c2.8-.024 5.751.6 8.405-.868q0-1.129.006-2.259c-15.842 0-31.7.5-47.522-.087-71.073-2.659-142.133-5.665-213.2-8.464-16.255-.64-21.35-6.021-21.274-22.525.116-25.513.03-51.02.03-76.887z"/><path data-name="Path 1170" d="M438.37 132.928c12.739-1.313 24.208-2.49 35.674-3.685 1.069-.112 2.12-.4 3.189-.5 16.213-1.451 19.321 1.278 20.777 17.432 2.454 27.248-.17 54.307-2.818 82.224 3.224-6.117 3.252-12.151 4.211-17.926.97-5.835 1.59-11.732 2.259-17.612 2.314-20.341 4.478-40.7 4.151-61.214-.227-14.206-1.649-15.5-16.057-15.008a125.6 125.6 0 00-40.143 8.209c-3.968 1.493-7.874 3.208-11.243 8.08z"/><path data-name="Path 1171" d="M412.808 210.304c1.406-21.844 2.811-43.689 4.309-66.946-20.24 11.19-34.021 27.542-48.222 43.478 13.11-10.291 26.053-20.757 41.778-29.287v52.639q1.064.056 2.135.116z"/></g></svg>