<svg data-name="Group 4" xmlns="http://www.w3.org/2000/svg" width="124.513" height="108.456"><path data-name="Path 965" d="M62.349.001h34.514c3.472 0 5.476 1.43 6.555 4.7 1.2 3.645 2.736 7.223 2.912 11.115.154 3.424.177 6.862.063 10.287-.062 1.876 1.02 3.213 1.653 4.772.294.723.487 1.533 1.579 1.259.327-.082.892.137.794-.469-.087-.536.489-1.292-.437-1.6a2.271 2.271 0 01-1.553-2.549c.035-2.97 0-5.941.014-8.911.006-1.825.691-2.531 2.474-2.54q3.577-.018 7.154 0c1.7.011 2.408.737 2.415 2.474q.018 4.518 0 9.037c-.006 1.82-.7 2.488-2.479 2.552-1.154.042-2.688-.524-3.349.248-.566.661-.173 2.15-.192 3.273-.03 1.788-.721 2.455-2.533 2.5-1.119.027-2.6-.479-3.262.2-.72.734-.2 2.222-.221 3.378-.035 2.339-.012 2.343 2.247 3 3.048.881 6.1 1.732 9.146 2.636a6.019 6.019 0 014.659 6.191c.01 2.092-.016 4.184.009 6.275a2.1 2.1 0 01-1.5 2.323c-.489.146-.528.416-.524.82.013 1.171.032 2.344 0 3.514-.03.965-.112 1.84 1.146 2.206a1.529 1.529 0 01.859 1.563q.017 4.016 0 8.032a1.7 1.7 0 01-1.144 1.777c-.882.251-.864.8-.863 1.493q.02 11.107.007 22.214c0 4.243-2.445 6.664-6.715 6.668h-10.919c-3.929-.01-6.452-2.511-6.459-6.416-.011-6.317.007-12.634-.027-18.951 0-.39.415-1.211-.388-1.17-.738.038-1.826-.3-2.032 1.055-.474 3.1-1.013 6.185-1.539 9.275-.278 1.631-.881 2.15-2.521 2.151q-29.619.007-59.238 0c-1.708 0-2.28-.5-2.576-2.232-.508-2.965-1-5.934-1.49-8.9a1.736 1.736 0 00-2.143-1.4c-.617.181-.322.7-.323 1.049-.02 5.982-.01 11.965-.02 17.947a12.035 12.035 0 01-.15 2.873 5.965 5.965 0 01-5.759 4.709q-6.086.069-12.174 0a5.969 5.969 0 01-6-6.107q-.038-11.358 0-22.716c0-.758-.042-1.3-.936-1.574a1.652 1.652 0 01-1.071-1.7q-.024-4.016 0-8.032a1.788 1.788 0 011.251-1.841c.661-.205.779-.557.761-1.173a90.554 90.554 0 01-.005-4.266c.008-.469-.079-.737-.6-.9a2.046 2.046 0 01-1.426-2.242c.02-2.217-.016-4.435.012-6.652a5.978 5.978 0 014.481-5.813c3.528-1.023 7.056-2.049 10.6-3.014.789-.215 1.048-.549 1-1.362a32.844 32.844 0 010-3.888c.049-.864-.283-1.07-1.07-1.019-.917.059-1.84.034-2.76.008a2.016 2.016 0 01-2.205-2.175c-.031-1-.045-2.01.005-3.011.034-.673-.21-.877-.859-.843-.918.047-1.84.021-2.76.009-1.66-.022-2.4-.727-2.411-2.351q-.027-4.706 0-9.413c.011-1.547.766-2.274 2.345-2.285q3.7-.027 7.4 0a2.018 2.018 0 012.282 2.222c.025 3.221.008 6.443.006 9.664a1.822 1.822 0 01-1.258 1.962c-1.062.289-.676 1.05-.741 1.682-.049.478.258.531.633.53a1.542 1.542 0 001.643-.821 13.875 13.875 0 001.729-8.783 41.386 41.386 0 013.101-18.13A6.173 6.173 0 0127.333.004Q44.841-.007 62.349.001zm-.24 22.089q19.566 0 39.132.019c.9 0 1.149-.182 1.211-1.145.33-5.132-.963-9.931-2.729-14.664-.759-2.034-1.012-2.282-3.145-2.282H27.219a2.088 2.088 0 00-2.174 1.533c-1.764 4.888-3.357 9.8-2.988 15.12.075 1.086.239 1.453 1.422 1.448 12.877-.047 25.753-.03 38.63-.03zm.1 44.178q15.241 0 30.482-.005a2.16 2.16 0 001.341-.172 24.539 24.539 0 004.325-3.2 6.762 6.762 0 002.092-5.148c-.155-3.3-.039-6.6-.044-9.908a2.4 2.4 0 00-.091-1.106c-1.441-2.5-3.072-4.8-6.118-5.558a33.672 33.672 0 00-8.185-1.02q-23.708.025-47.417 0a43.265 43.265 0 00-4.5.257c-4.065.423-7.561 1.762-9.547 5.689a3.2 3.2 0 00-.451 1.516q.026 5.707 0 11.415a3.41 3.41 0 00.414 1.543c1.071 2.214 2.979 3.544 4.94 4.855a4.71 4.71 0 002.782.855c9.99-.028 19.983-.014 29.977-.014zm.111-40.161H23.294c-1.225 0-1.438.263-1.175 1.467a3.063 3.063 0 00.285.691c1.025 2.056 2.034 4.121 3.091 6.161.629 1.213 1.793 1.965 2.694 2.946.3.325.631.075.932-.008a33.121 33.121 0 018.913-1.218h48.438a31.054 31.054 0 018.907 1.237 1.236 1.236 0 001.315-.341c2.966-2.47 3.952-6.132 5.632-9.361.588-1.129.114-1.574-1.231-1.575zm.028 56.226c-9.537 0-19.074.018-28.61-.026-1.078-.005-1.238.346-1.061 1.277.36 1.887.757 3.778.936 5.686.125 1.341.955 1.049 1.755 1.1 1.136.078.763-.751.77-1.277.037-2.765.024-2.713 2.83-2.775 1.025-.023 1.236.309 1.22 1.26-.048 2.8-.008 2.757 2.761 2.805.951.017 1.282-.194 1.26-1.22-.062-2.844-.01-2.8 2.845-2.844.957-.015 1.18.263 1.167 1.187-.041 2.9 0 2.874 2.94 2.872.778 0 1.074-.156 1.076-1.018.007-3.158.043-3.158 3.156-3.015a.712.712 0 00.125 0c.545-.068.741.17.72.714a40.363 40.363 0 000 2.509c.007.3-.14.763.376.767 1.162.008 2.458.376 3.438-.161.587-.322.12-1.555.191-2.375a5.936 5.936 0 000-.878c-.028-.441.192-.534.6-.586 3.205-.411 3.385-.267 3.419 2.911a1.773 1.773 0 010 .251c-.081.622.128.856.814.882 3.145.12 3.145.145 3.2-3.011a.928.928 0 010-.25c.53-1.681 1.874-.426 2.795-.736.486-.164 1.32-.321 1.23.786-.067.831-.011 1.672-.012 2.509 0 .347-.009.692.491.679 1.122-.029 2.4.264 3.311-.192.621-.312.133-1.7.211-2.6a4.2 4.2 0 000-.627c-.028-.422.157-.547.579-.6 3.166-.429 3.405-.238 3.436 2.9a2.65 2.65 0 010 .376c-.083.626.231.741.8.768 3.167.152 3.166.167 3.219-2.989a.741.741 0 000-.125c-.1-.692.159-.918.888-.935 3.09-.07 3.085-.1 3.133 2.959.008.5-.216 1.191.718 1.073.694-.088 1.617.41 1.781-.908.241-1.947.582-3.884.966-5.809.2-1.021.006-1.344-1.121-1.338-9.445.043-18.899.023-28.352.023zm56.132 8.659c0-3.639-.042-7.28.027-10.918.02-1.024-.3-1.184-1.2-1.012-1.271.241-2.561.4-3.849.537-.765.08-1.029.38-1.021 1.185.043 4.266.02 8.533.02 12.8 0 2.817 0 2.759-2.762 2.834-1.087.029-1.291-.323-1.278-1.332.056-4.475 0-8.952.044-13.427.01-.983-.075-1.442-1.256-1.152a31.965 31.965 0 01-3.969.569c-.534.061-.83.2-.828.821.018 6.86 0 13.721.034 20.581a1.919 1.919 0 002.051 1.932c.96.04 1.929-.053 2.884.03.925.08 1.089-.295 1.084-1.135-.018-3.038.012-3.019 3.151-2.916.642.021.859.178.866.847.011 1.029-.492 2.467.209 2.98.717.525 2.078.173 3.157.2h.126c1.8-.021 2.5-.712 2.51-2.511.008-3.635.001-7.275.001-10.914zM6.028 90.975c0 3.681-.009 7.362 0 11.043.006 1.65.733 2.372 2.363 2.4.878.015 1.761-.051 2.634.018.834.067 1.041-.237 1.043-1.048.007-3.156.036-3.141 3.191-3 .558.025.779.132.83.757.088 1.081-.606 2.56.33 3.141.82.508 2.193.122 3.322.131h.126a2.013 2.013 0 002.21-2.174c.021-6.734 0-13.469.026-20.2 0-.722-.281-.916-.938-.984a36.02 36.02 0 01-4.094-.582c-.932-.206-1.023.138-1.018.911.026 4.1.012 8.2.012 12.3 0 2.714 0 2.66-2.738 2.73-1.048.027-1.318-.259-1.3-1.305.06-4.768.008-9.537.044-14.306.006-.78-.214-1.121-1-1.2a52.455 52.455 0 01-4.1-.566c-.832-.154-.968.14-.961.895.038 3.675.019 7.357.019 11.037zm56.161-12.658c3.009 0 6.018-.036 9.026.022.9.017 1.125-.256 1.1-1.122-.063-2-.046-4.012-.006-6.017.014-.693-.169-.934-.9-.93q-9.152.041-18.3 0c-.727 0-.919.229-.9.927.041 2 .056 4.013-.005 6.017-.027.861.192 1.143 1.095 1.125 2.957-.06 5.925-.024 8.892-.024zm50.237-22.092c2.339 0 4.678-.029 7.016.016.786.015 1.118-.162 1.066-1.021-.074-1.207-.041-2.421-.013-3.632a2.176 2.176 0 00-1.76-2.387c-1.807-.5-3.605-1.035-5.413-1.532-2.6-.716-5.13-1.761-7.931-1.513-.744.066-1 .2-.985.985q.072 4.071 0 8.143c-.016.811.27.969 1.005.956 2.337-.04 4.676-.015 7.015-.015zm-100.347 0h7.142c.491 0 .883.019.876-.688-.03-2.882-.016-5.763-.008-8.645 0-.422-.041-.737-.592-.713a17.592 17.592 0 00-3.487.139c-3.474.879-6.906 1.923-10.351 2.916a2.083 2.083 0 00-1.64 2.22c.012 1.294.042 2.591-.013 3.883-.032.737.242.909.931.9 2.381-.033 4.762-.012 7.142-.012zM26.11 74.078c0-.878-.063-1.762.017-2.633.086-.929-.2-1.194-1.16-1.187-5.937.047-11.875.024-17.812.024-3.165 0-3.112 0-3.165 3.183-.016.975.384 1.185 1.185 1.291 2.858.378 5.711.793 8.565 1.2 3.805.539 7.614 1.06 11.414 1.637.808.123 1.028-.1.971-.881-.069-.874-.015-1.755-.015-2.633zm83.365-3.8c-3.387 0-6.774.017-10.161-.014-.694-.006-.952.171-.929.9.051 1.629.015 3.261.015 4.891 0 1.692 0 1.679 1.681 1.436 5.706-.824 11.41-1.664 17.121-2.445 3.372-.461 3.349-.415 3.309-3.823-.01-.8-.253-.972-1-.964-3.345.045-6.691.024-10.036.025zM39.147 78.31c2.716 0 5.432-.009 8.148.008.569 0 .934-.037.919-.779a179.274 179.274 0 010-6.518c.01-.641-.262-.752-.82-.75q-8.211.022-16.422 0c-.651 0-.869.18-.856.846.038 2.047.063 4.1-.009 6.141-.033.93.314 1.091 1.145 1.076 2.629-.049 5.262-.019 7.894-.019zm46.167 0c2.716 0 5.432-.019 8.148.014.683.008.956-.152.939-.894q-.07-3.133 0-6.267c.016-.736-.245-.9-.933-.9q-8.085.037-16.171 0c-.737 0-1.027.148-1 .958q.089 3.069 0 6.141c-.023.8.251.976 1 .964 2.667-.036 5.342-.011 8.016-.011zM23.88 66.26a14.144 14.144 0 01-3.573-5.227 1.1 1.1 0 00-1.267-.808c-3.259.027-6.518 0-9.778.022-1.033.008-2.364-.448-3.02.187s-.19 1.979-.2 3.01c-.032 2.817-.011 2.824 2.858 2.814 1 0 2.271.316 2.914-.174.7-.533.143-1.873.24-2.855a1.227 1.227 0 000-.25c-.057-.518.135-.7.692-.748 3.266-.258 3.264-.275 3.325 3.006a3.448 3.448 0 010 .376c-.046.482.166.659.649.655 2.28-.011 4.56-.003 7.16-.003zm76.8 0c2.436 0 4.567-.047 6.693.022.913.03 1.094-.285 1.088-1.132-.02-2.973.012-2.949 3.01-2.923.732.006 1.079.143 1 .958-.071.745.027 1.506-.026 2.254-.049.685.233.849.866.833a89.074 89.074 0 014.386 0c.589.013.808-.169.794-.777a92.973 92.973 0 010-4.512c.017-.637-.255-.756-.816-.754-4.178.017-8.355.008-12.533.012-.316 0-.611-.059-.778.4a15.621 15.621 0 01-3.684 5.626zM8.037 23.137c0 3.057 0 3.057 3.091 2.962a.82.82 0 01.125 0c.565.069.827-.117.811-.748-.038-1.5-.035-3 0-4.5.014-.6-.2-.756-.785-.787-3.242-.169-3.242-.187-3.242 3.08zm108.436-.068c0-3.142 0-3.142-3.184-2.994a.709.709 0 01-.125 0c-.547-.069-.724.177-.715.715.026 1.543.018 3.086 0 4.63 0 .451.12.634.621.693 3.3.383 3.4.312 3.4-2.918zM20.32 33.106l-.231.056v8.426c0 .246-.008.568.336.547.858-.054 1.833.4 2.479-.64a4.927 4.927 0 011.195-1.266c.6-.464.548-.815 0-1.253a10.159 10.159 0 01-2.85-4.034c-.268-.623-.615-1.217-.929-1.83zm84.1.068l-.254-.042c-.375.741-.738 1.487-1.126 2.22a11.145 11.145 0 01-1.277 2.277c-.6.681-1.813 1.25-1.714 1.984.1.777 1.151 1.428 1.785 2.135.055.062.09.149.156.193.646.437 1.369.167 2.056.2.432.02.372-.364.372-.64q.01-4.158.005-8.321z" fill="#fff"/><path data-name="Path 966" d="M71.375 9.635a7.555 7.555 0 01-.569.5l-12.715 9.1c-.528.381-.788.319-1.184-.2-1.93-2.534-1.947-2.519.6-4.337 3.6-2.566 7.21-5.116 10.783-7.718.666-.485 1.026-.47 1.444.241.378.645.86 1.229 1.291 1.843.121.173.218.354.35.571z" fill="#fff"/><path data-name="Path 967" d="M36.16 60.24a8.055 8.055 0 01-8.037-8.052 8.049 8.049 0 018.081-8.006 8.05 8.05 0 017.975 7.987 8.053 8.053 0 01-8.019 8.071zm4-7.993a4.045 4.045 0 00-3.944-4.048 4.041 4.041 0 00-4.079 3.912 4.044 4.044 0 004 4.113 4.047 4.047 0 004.025-3.977z" fill="#fff"/><path data-name="Path 968" d="M88.303 60.24a8.056 8.056 0 01-7.971-8.118 8.05 8.05 0 018.147-7.94 8.05 8.05 0 017.909 8.053 8.054 8.054 0 01-8.085 8.005zm4.069-8.05a4.044 4.044 0 00-4-3.991 4.035 4.035 0 00-4.022 3.969 4.041 4.041 0 004.062 4.055 4.049 4.049 0 003.96-4.033z" fill="#fff"/><path data-name="Path 969" d="M52.215 53.225c0 2.632-.029 5.265.017 7.9.014.819-.127 1.162-1.065 1.155-2.968-.02-2.969.022-2.969-2.993 0-4.637.02-9.275-.018-13.912-.007-.867.115-1.239 1.128-1.221 2.905.05 2.906 0 2.906 2.934z" fill="#fff"/><path data-name="Path 970" d="M54.224 53.155c0-2.674.031-5.349-.019-8.021-.014-.789.234-.967.99-.974 3.045-.027 3.045-.054 3.045 3.037 0 4.637-.029 9.275.024 13.912.011.954-.259 1.179-1.184 1.166-2.856-.041-2.856 0-2.856-2.853z" fill="#fff"/><path data-name="Path 971" d="M64.264 53.279c0 2.632-.021 5.264.013 7.9.01.741-.086 1.1-.988 1.1-3.041 0-3.041.046-3.041-3.046 0-4.638.03-9.275-.025-13.912-.011-.961.269-1.175 1.188-1.162 2.852.04 2.853 0 2.853 2.856z" fill="#fff"/><path data-name="Path 972" d="M70.288 53.241c0 2.674-.023 5.348.015 8.021.01.731-.142 1-.952 1.011-3.079.031-3.079.065-3.079-3.007 0-4.679.016-9.359-.015-14.038-.005-.779.156-1.073 1.016-1.074 3.016 0 3.016-.04 3.016 2.944z" fill="#fff"/><path data-name="Path 973" d="M72.298 53.083c0-2.632.035-5.265-.02-7.9-.018-.849.27-1.027 1.062-1.028 2.974 0 2.974-.031 2.974 2.982 0 4.638-.019 9.275.017 13.913.007.859-.1 1.244-1.123 1.226-2.91-.051-2.911 0-2.911-2.93l.001-6.263z" fill="#fff"/><path data-name="Path 974" d="M39.278 72.292c2.966 0 2.942 0 2.915 3.03-.007.728-.139 1.045-.955 1.005-1.415-.069-2.836-.05-4.253-.006-.663.021-.829-.206-.85-.852-.108-3.178-.128-3.177 3.143-3.177z" fill="#fff"/><path data-name="Path 975" d="M85.456 72.292c2.972 0 2.951 0 2.924 3.02-.006.713-.113 1.057-.943 1.016-1.415-.07-2.836-.048-4.253-.007-.648.019-.838-.18-.861-.841-.114-3.189-.136-3.188 3.133-3.188z" fill="#fff"/></svg>