<svg xmlns="http://www.w3.org/2000/svg" width="1639.601" height="1604.664"><g data-name="Group 116" fill="#002581"><path data-name="Path 1014" d="M830.311 890.875l-12.391-4.554a87.451 87.451 0 0012.391 4.554z"/><path data-name="Path 1015" d="M903.758 918.95l3.293-4.127-9.345-7.815a2.392 2.392 0 01-.7-1.572l-10.4 3.507.673 1.3a63.181 63.181 0 0114.69 7.356c.645.431 1.168.901 1.789 1.351z"/><path data-name="Path 1016" d="M934.73 959.394a88.729 88.729 0 013.069 10.68h19.082a36.433 36.433 0 004.256-2.876l-4.8.791a1.434 1.434 0 01-1.476-1.037 3.131 3.131 0 01-.011-2.406l1.2-2.822-6.875 4.64a1.3 1.3 0 01-1.913-.738 3.1 3.1 0 01.127-2.876l4.929-7.6-8 6.062a1.176 1.176 0 01-1.668-.2 2.94 2.94 0 01-.567-2.288l1.294-8.5z"/><path data-name="Path 1017" d="M1033.857 904.303a103.616 103.616 0 0018.516 3.068 47.2 47.2 0 005.859-6.981l-10.585 1.55c-.694.086-1.315-.449-1.582-1.358a2.977 2.977 0 01.417-2.609l3.924-4.929-9.195-7.676-5.891 2.48 9.13 9.7a2.956 2.956 0 01.471 2.876c-.363.994-1.155 1.465-1.882 1.091l-10.39-5.223 2.554 4.309a3.078 3.078 0 01.182 2.587 1.458 1.458 0 01-1.528 1.115z"/><path data-name="Path 1018" d="M1061.44 957.48l-19.929-16.518a60.431 60.431 0 0013.92 19.415c17.159-2.021 38.242-6.233 49.061-14.946l-4.8.791a1.455 1.455 0 01-1.487-1.037 3.18 3.18 0 010-2.405l1.2-2.822-6.874 4.64a1.306 1.306 0 01-1.914-.738 3.071 3.071 0 01.128-2.876l4.928-7.6-8 6.062a1.176 1.176 0 01-1.668-.2 2.937 2.937 0 01-.566-2.288l1.293-8.5-11.8 12.509a30.4 30.4 0 003.56 1.764 19.374 19.374 0 013.122 1.593 2.709 2.709 0 01.834 2.673c-.2 1.058-.9 1.743-1.667 1.625l-9.869-1.6 1 5.859a2.972 2.972 0 01-.461 2.213 1.215 1.215 0 01-1.56.46l-7.163-3.656.876 2.641a3.055 3.055 0 01-.331 2.641 1.2 1.2 0 01-1.833.3z"/><path data-name="Path 1019" d="M629.65 940.407a2.563 2.563 0 011.325-.738l-2.256-1.967z"/><path data-name="Path 1020" d="M1016.56 843.215l-7.377-5.581a40.743 40.743 0 007.377 5.581z"/><path data-name="Path 1021" d="M1032.052 968.633l.823 1.436h1.816z"/><path data-name="Path 1022" d="M640.66 938.707l-8.039-7.227 4.875 8.51c15.759 1.187 62.831 3.945 90.126-2.865h-11.674a2.823 2.823 0 01-2.374-1.08 1.435 1.435 0 01.4-1.978l4.3-3.528-17.448 4.266a3.123 3.123 0 01-3.164-.887 1.542 1.542 0 01.77-2.352l14.818-7.655-38.915-5.367.1.577a2.988 2.988 0 01-.459 2.224 1.214 1.214 0 01-1.561.46l-7.163-3.667.877 2.651a3.068 3.068 0 01-.331 2.641 1.2 1.2 0 01-1.828.31l-19.941-16.529a59.277 59.277 0 0017.223 22.248 2.761 2.761 0 01.749 2.9c-.31 1.112-1.166 1.657-1.935 1.272l-5.922-2.972 1.849 6.5a2.977 2.977 0 01-.459 2.63 1.184 1.184 0 01-1.861.086l-12.007-12.244 1.326 8.66a2.843 2.843 0 01-.62 2.331 1.154 1.154 0 01-1.712.085z"/><path data-name="Path 1023" d="M630.366 942.898a2.95 2.95 0 01-.257 1.839 1.524 1.524 0 01-.983.813 59.724 59.724 0 0015.769 4.64l1.348-.823-15.717-6.372z"/><path data-name="Path 1024" d="M507.515 801.038a59.534 59.534 0 0010.328 5.966z"/><path data-name="Path 1025" d="M533.141 945.432l-1.774-1.187.63 1.422c.385-.075.76-.16 1.144-.235z"/><path data-name="Path 1026" d="M559.344 782.058l-4.125 5.45 1.019 3.537z"/><path data-name="Path 1027" d="M1071.372 938.343l1.358-4.768-3.966 2a29.113 29.113 0 002.608 2.768z"/><path data-name="Path 1028" d="M555.703 938.311l-6.211-4.843 1.39 6.917a67.765 67.765 0 004.821-2.074z"/><path data-name="Path 1029" d="M673.43 913.262l.182 1.048a91.914 91.914 0 004.052-.353z"/><path data-name="Path 1030" d="M699.88 907.2l-16.86 2.812a12.052 12.052 0 011.112.567 2.562 2.562 0 01.812 2.266c5.26-1.048 10.948-2.78 14.936-5.645z"/><path data-name="Path 1031" d="M1375.725 878.442c.546-.962 1.112-1.914 1.6-2.908l-3.261 2.7c.561.069 1.106.143 1.661.208z"/><path data-name="Path 1032" d="M1395.739 915.721a37.6 37.6 0 004.726-3.2l-5.057.834c-.62.118-1.23-.321-1.571-1.1-.054-.128-.043-.289-.085-.438l-4.223.973a2.179 2.179 0 01-2.235-.941 1.489 1.489 0 01-1.465-.983 3.245 3.245 0 01.139-3.036l.481-.748-9.6 1.956 15.33 7.922c1.154-.394 2.341-.811 3.56-1.239z"/><path data-name="Path 1033" d="M1374.25 922.5l-2.213-.267c1.347.192 2.726.353 4.1.524a2.3 2.3 0 011.476-1.327c.107-.032 3.2-.855 7.815-2.288l-13.076-3.2 4.3 3.517a1.444 1.444 0 01.3 2.117 3.023 3.023 0 01-2.702.924z"/><path data-name="Path 1034" d="M1506.542 783.601a2.284 2.284 0 01-2.075-1.486 2.749 2.749 0 01.354-2.716l3.763-4.843-15.278 5.859a2.2 2.2 0 01-2.769-1.219 2.748 2.748 0 01.684-3.239l12.958-10.52-17.256-3.742 1.177 5.346a3.066 3.066 0 01-.567 2.63 1.241 1.241 0 01-1.881.107l-9.771-9.269 2.234 5.677a3.152 3.152 0 01-.384 3.047 1.28 1.28 0 01-2.127-.086l-6.971-9.216 4 11.578a3.315 3.315 0 01-.214 2.619 1.371 1.371 0 01-1.743.738l-10.349-4.693 2.138 9.568a3.183 3.183 0 01-.5 2.566 1.419 1.419 0 01-.952.556 76.909 76.909 0 0018.379 6.757c13.278-.363 26.973-1.935 37.376-6.019z"/><path data-name="Path 1035" d="M1455.929 721.625l-6.254-3c3.679 4.886 9.12 8.6 15.17 11.418 15.224-2.78 44-8.66 63.794-16.625a2.311 2.311 0 01-.792-.62 2.766 2.766 0 01-.492-2.512l2.972-10.189-14.433 4.993a2.155 2.155 0 01-2.416-.78 2.81 2.81 0 01-.3-2.79l5.582-12.327-9.718 9.8a2.105 2.105 0 01-2.962.1 2.735 2.735 0 01-.545-3.25l2.454-4.741-15.88 12.979 1.518 2.405a3.263 3.263 0 01.128 3.015c-.46.919-1.3 1.24-2.01.77l-4.2-2.78a1.979 1.979 0 01-1.936-.267 2.5 2.5 0 01-.833-1.582l-6.65-4.415.524 2.47a3.087 3.087 0 01-.535 2.566 1.236 1.236 0 01-1.838.214l-3.047-2.544 6.19 7.74a3.176 3.176 0 01.385 2.94c-.364.984-1.145 1.475-1.893 1.165l-10.5-4.33 2.941 4.811a3.26 3.26 0 01.107 2.983c-.449.909-1.272 1.24-1.978.8l-12.593-7.9 2.042 6.19a3.328 3.328 0 01-.246 2.609 1.352 1.352 0 01-1.756.684z"/><path data-name="Path 1036" d="M1478.788 828.824l3.528 3.763a85.6 85.6 0 007.537-8.467l-10.829 4.565z"/><path data-name="Path 1037" d="M1498.994 840.232l-10.242 8.3c2.822.4 5.645.684 8.4.9z"/><path data-name="Path 1038" d="M1512.133 845.77l-7.014 4.063c1.2.043 2.374.064 3.507.075z"/><path data-name="Path 1039" d="M1351.65 864.992l-3.315.492 1.133 2.47a35.7 35.7 0 002.182-2.962z"/><path data-name="Path 1040" d="M1159.916 821.448l-7.377-5.581a40.8 40.8 0 007.377 5.581z"/><path data-name="Path 1041" d="M1388.619 832.93l-7.836 3.934c1.743.2 3.464.4 5.163.567z"/><path data-name="Path 1042" d="M1066.07 931.961c.77-.716 2.309-2.224 4.158-4.223l-7.312-1.069a62.09 62.09 0 003.154 5.292z"/><path data-name="Path 1043" d="M1171.023 814.968l-9.8-4.437 2.02 9.066a2.988 2.988 0 01-.47 2.427 1.326 1.326 0 01-.909.524c17.5 9.462 41.053 9.4 41.4 9.408h.011c.716 0 1.347.727 1.507 1.753a2.7 2.7 0 01-.844 2.555l-1.005.684c22.323-5.014 51.125-12.327 64.479-19.2a2.774 2.774 0 01-1.251-.631 1.432 1.432 0 01-.289-1.924l2.47-3.646-30.727 13.182a3.385 3.385 0 01-3.368-.4 1.475 1.475 0 01.064-2.416l4.693-3.72-16.731 3.346a3.111 3.111 0 01-3.016-.9 1.507 1.507 0 01.61-2.277l9.857-5.987-4.843 1.956a3.461 3.461 0 01-2.93-.161 1.555 1.555 0 01-.854-1.988l.833-1.914-21.693 7.013a3.336 3.336 0 01-3.2-.6 1.47 1.47 0 01.192-2.341l11.439-8.8-21.992-1.9.856 3.913a2.915 2.915 0 01-.534 2.491 1.175 1.175 0 01-1.786.1l-9.269-8.777 2.127 5.378a2.987 2.987 0 01-.374 2.887 1.2 1.2 0 01-2.009-.086l-6.607-8.724 3.784 10.969a3.114 3.114 0 01-.2 2.48 1.279 1.279 0 01-1.641.697z"/><path data-name="Path 1044" d="M1082.566 910.376l-11.365 9.419 2.844 3.56a69.944 69.944 0 008.521-12.979z"/><path data-name="Path 1045" d="M1376.153 834.256l9.3-9.879-9.975-2.833-16.686-3.346 4.683 3.72a1.46 1.46 0 01.171 2.32 3.318 3.318 0 01-3.143.609l-20.067-6.115 3.25 4.789a1.456 1.456 0 01-.4 2.021 3.365 3.365 0 01-2.78.535l-9.974-2.331c9.942 6.425 27.893 10.231 45.042 12.487a2.853 2.853 0 01.579-1.977z"/><path data-name="Path 1046" d="M1322.121 767.703l-4.725-.674c10.563 7.783 31.592 4.512 31.838 4.48a2.776 2.776 0 013.1 1.336c.353.962-.427 1.956-1.785 2.234l-10.606 2.215c10 6.917 33.516 6.949 42.529 6.682a142.355 142.355 0 0020.527-8.457 1.918 1.918 0 01-.555-.577 3.238 3.238 0 01-.354-2.363l2.128-9.568-10.349 4.693a1.371 1.371 0 01-1.743-.738 3.36 3.36 0 01-.213-2.619l4.008-11.578-6.971 9.216a1.289 1.289 0 01-2.137.086 3.2 3.2 0 01-.385-3.058l1.754-4.449-14.124 15.138a1.249 1.249 0 01-1.925.011 3.08 3.08 0 01-.609-2.673l3.11-14.1-13.192 5.334c.887.438 1.347 1.2 1.07 1.957a2.709 2.709 0 01-2.833 1.379l-17.49-1.475 2.875 3.036a1.481 1.481 0 01-.353 2.363 3.474 3.474 0 01-3.346.16l-8.841-4.6.4 1.625a1.644 1.644 0 01-.984 1.775 3.58 3.58 0 01-2.683.214l-5.666-1.86 1.422 2.288a1.441 1.441 0 01-.343 1.914 3.3 3.3 0 01-2.549.653z"/><path data-name="Path 1047" d="M264.004 712.655l1.882-3.079-8.253 3.4a79.412 79.412 0 006.371-.321z"/><path data-name="Path 1048" d="M139.894 921.793l-1.925-3.239.427 3.464a32.914 32.914 0 001.498-.225z"/><path data-name="Path 1049" d="M125.778 833.236l-.1-.073.046.091z"/><path data-name="Path 1050" d="M131.982 816.615c1.154-.171 2.319-.353 3.485-.535l-6.565-4.159a54.584 54.584 0 003.08 4.694z"/><path data-name="Path 1051" d="M151.386 853.007l-16.989 4.15c4.02.428 8.125.716 12.2.909a1.432 1.432 0 01.492-1.539z"/><path data-name="Path 1052" d="M240.539 680.065l-9.109-1.978a59.284 59.284 0 009.59 6.073c4.651-.909 10.092-2.491 14.145-5.239l-4.149-2.456-10.916-1.946 3.165 2.577a1.441 1.441 0 01.224 2.213 3.187 3.187 0 01-2.95.756z"/><path data-name="Path 1053" d="M117.644 850.003l-9.59-6.361 2.138 4.779a2.557 2.557 0 01-.246 2.534 2.086 2.086 0 01-1.347.855 103.522 103.522 0 0022.633 4.993 2.228 2.228 0 01-.471-.417 1.551 1.551 0 01.781-2.352l14.816-7.655-2.395-.331a1.836 1.836 0 01-1.935-.15l-.182-.139-14.614-2.021a2.313 2.313 0 01-.588.855 1.927 1.927 0 01-2.342.086l-2.444-1.678-4.6-.631 3.078 4.105a2.549 2.549 0 01-.01 3.036 1.964 1.964 0 01-2.682.492z"/><path data-name="Path 1054" d="M158.634 797.114l-.588-.064c.117.16.214.278.332.428z"/><path data-name="Path 1055" d="M128.817 923.312l-.588-.941.117 1.005z"/><path data-name="Path 1056" d="M167.026 915.796a65.576 65.576 0 003.036-1.09l-.139-.053-3.838.31c.322.288.631.555.941.833z"/><path data-name="Path 1057" d="M118.372 773.808l-1.8-.342c4.255.952 8.735 1.668 13.247 2.234 20.612-4.854 44.047-11.193 55.7-17.191a2.8 2.8 0 01-1.24-.631 1.422 1.422 0 01-.288-1.924l2.47-3.646-30.723 13.182a3.4 3.4 0 01-3.358-.4 1.47 1.47 0 01.065-2.416l4.683-3.72-16.722 3.35a3.1 3.1 0 01-3.015-.9 1.506 1.506 0 01.61-2.277l9.857-6-4.843 1.967a3.488 3.488 0 01-2.94-.16 1.555 1.555 0 01-.854-1.989l.844-1.914-18.982 6.131 11.824 9.6a2.533 2.533 0 01.631 2.993 2.021 2.021 0 01-2.565 1.133l-14.14-5.43 3.485 4.48a2.556 2.556 0 01.246 2.694 2.041 2.041 0 01-2.192 1.176z"/><path data-name="Path 1058" d="M94.915 710.229l-10.028-5.795a56.5 56.5 0 0010.028 5.795z"/><path data-name="Path 1059" d="M30.811 639.603a2.557 2.557 0 01-.235-2.448l2-4.64L7.687 649.3a1.962 1.962 0 01-2.715-.5 2.566 2.566 0 01.043-3.079l3.806-4.736-8.82 2.769v13.372c12.637-5.185 24.835-11.065 31.817-16.721a2.087 2.087 0 01-1.007-.802z"/><path data-name="Path 1060" d="M161.724 910.166l-.61.192.236.225z"/><path data-name="Path 1061" d="M125.438 736.197a20.7 20.7 0 002.17 2.341q1.555-.241 3.079-.513z"/><path data-name="Path 1062" d="M268.677 715.842l-1.337.278-2.341 2.063a1.341 1.341 0 01-2.149-.524 2.573 2.573 0 01-.139-.577l-4.639.973a29.432 29.432 0 008.724 3.763c6.97-4.159 13.247-8.563 17.276-12.84a1.846 1.846 0 01-.791-.823 3.366 3.366 0 01-.182-2.544l1.571-4.8-14.314 12.646c.032.053.085.086.106.139.353.973-.437 1.968-1.785 2.246z"/><path data-name="Path 1063" d="M176.242 798.879l-14.357 3.154a39.124 39.124 0 008.231 7.548c1.422-.331 2.833-.673 4.191-1.026a2.536 2.536 0 01-.9-.449 1.472 1.472 0 01-.567-1.818z"/><path data-name="Path 1064" d="M1478.391 845.994l-.833.31.652.171z"/><path data-name="Path 1065" d="M567.214 791.769l-9.814 4.441a1.292 1.292 0 01-1.647-.695 3.6 3.6 0 01-.182-.609 1.925 1.925 0 01-2.266.011l-6.982-5.057-2.768 2.972a2.507 2.507 0 01-.77 1.539 2.02 2.02 0 01-1.122.481l-3.037 3.25a1.181 1.181 0 01-1.828.011 2.9 2.9 0 01-.567-2.523l.909-4.148-5.933-6-.234.1 5.034 11.14a2.65 2.65 0 01-.278 2.651 2.053 2.053 0 01-2.309.748l-13.736-4.763 2.833 9.708a2.624 2.624 0 01-.663 2.6 2.065 2.065 0 01-1.272.567 113.308 113.308 0 0018.827 5.72c8.958-2.694 18.837-6.179 26.652-10.3a1.678 1.678 0 01-.534-.556 3.006 3.006 0 01-.332-2.234z"/><path data-name="Path 1066" d="M545.18 736.282a3.392 3.392 0 01.01-.738l.492-2.341-2.1 1.4 1.443 1.379c.091.077.091.204.155.3z"/><path data-name="Path 1067" d="M557.989 866.083h-.407l.054.15c.117-.054.245-.097.353-.15z"/><path data-name="Path 1068" d="M544.14 854.774l.407.331.622-.663z"/><path data-name="Path 1069" d="M549.783 859.352l1.251 1.016 1.39-2.343z"/><path data-name="Path 1070" d="M536.811 728.129l.332.318.049-.075z"/><path data-name="Path 1071" d="M541.257 943.496c.994-.267 1.977-.545 2.941-.834l-7.377-5.078z"/><path data-name="Path 1072" d="M552.247 868.37l-11.856-4.554 3.581 4.619a2.508 2.508 0 01.428 1.839 57.614 57.614 0 007.847-1.904z"/><path data-name="Path 1073" d="M326.035 775.241a41.971 41.971 0 006.233 4.854l.2.011z"/><path data-name="Path 1074" d="M531.959 736.664l-2.871-.907 1.925 2.405z"/><path data-name="Path 1075" d="M250.524 765.608c6.511 3.678 15.707 6.425 25.7 8.489a3.3 3.3 0 01-.268-2.16l1.486-6.682-3.634-1.112-6.244 2.822a1.379 1.379 0 01-1.765-.759 3.357 3.357 0 01-.224-2.673l.6-1.721-3.366-1.022-.257.342a1.3 1.3 0 01-2.17.086 2.742 2.742 0 01-.555-1.336l-1.263-.392 3.24 4.79a1.448 1.448 0 01-.4 2.021 3.356 3.356 0 01-2.779.535l-7.591-1.775z"/><path data-name="Path 1076" d="M254.971 704.284c-.054-.064-.064-.171-.107-.235l-4.095-2.128-.085.053.353 1.5a1.639 1.639 0 01-.983 1.785 3.523 3.523 0 01-2.684.2l-1.293-.417-2.748 1.817a1.514 1.514 0 01-.545.941 2.95 2.95 0 01-1.86.62 1.17 1.17 0 01-1.155-.021l-4.244-.609c4.746 3.507 11.621 4.758 17.769 5.089l-.043-.085a3.251 3.251 0 01.384-3l3.614-4.5-1.09-.567a1.265 1.265 0 01-1.188-.443z"/><path data-name="Path 1077" d="M513.856 746.086l-8.318-3.058c8.906 9.045 25.541 14.134 40.765 16.988 10.328-5.346 20.74-11.643 26.428-17.672a1.719 1.719 0 01-.737-.77 3.082 3.082 0 01-.172-2.352l1.465-4.469-18.271 16.144a1.253 1.253 0 01-2-.492 3.078 3.078 0 01.032-2.951l2.791-4.554-9.953 4.095c-.705.31-1.443-.171-1.786-1.1a3.056 3.056 0 01.353-2.79l5.87-7.34-2.887 2.406a1.175 1.175 0 01-1.743-.192l-.021-.053a2.623 2.623 0 01-.139 1.037 2.085 2.085 0 01-2.513 1.176l-5.281-1.657-4.448 2.961a2.54 2.54 0 01-.16 2.224 2.04 2.04 0 01-2.62.8l-16.721-8.018 2.705 6.286a2.633 2.633 0 01-.332 2.646 2.046 2.046 0 01-2.307.705z"/><path data-name="Path 1078" d="M352.517 847.031l-1.422-.353c21.564 6.276 50.076 3.614 50.451 3.581.791-.053 1.486.631 1.71 1.721a3.017 3.017 0 01-.77 2.822l-10.061 8.4 4.223 5.3a3.208 3.208 0 01.449 2.8c-.288.984-.961 1.561-1.71 1.465l-11.5-1.689c.438.834.855 1.507 1.283 2.245 15.8.363 34.137-.652 47.1-5.741h-9.729a2.175 2.175 0 01-1.977-1.411 2.635 2.635 0 01.332-2.587l3.581-4.619-14.54 5.591a2.1 2.1 0 01-2.641-1.176 2.584 2.584 0 01.652-3.068l12.337-10.028-35.206-7.633a2.391 2.391 0 01-1.742-2.577 2.286 2.286 0 012.106-2.224c.182-.011 15.908-.62 23.7-9.472l-21.157 5.559a2.055 2.055 0 01-2.127-.748 2.693 2.693 0 01-.417-2.448l1.443-4.362-14.08-3.346a2.154 2.154 0 01-1.336-1.016l-17.3 7.27 9.836 10.445a3.207 3.207 0 01.491 3.1c-.374 1.069-1.24 1.572-2.02 1.176l-11.183-5.623 2.758 4.64a3.37 3.37 0 01.193 2.79c-.348.906-1.033 1.377-1.727 1.216z"/><path data-name="Path 1079" d="M351.938 925.889l-7.58-6.586 1.688 4.95a3.358 3.358 0 01-.192 2.619 1.673 1.673 0 01-1.07.877 47.051 47.051 0 004.6 1.914 762.164 762.164 0 0035.292-1.08 2.542 2.542 0 01.93-2.748c.182-.118 15.374-10.413 23.9-23.659l-27.526 17.437a1.985 1.985 0 01-2.427-.214 2.594 2.594 0 01-.726-2.6l.555-2.021a1.216 1.216 0 01-1.282.139l-1.262-.641-3.507 3.068.385 1.368a3.178 3.178 0 01-.492 2.823 1.28 1.28 0 01-2.01.107l-1.55-1.593a1.908 1.908 0 01-1.348-.289 2.438 2.438 0 01-.983-2.085l-6.853-6.992-1.732.759.962 6.329a3.01 3.01 0 01-.663 2.512 1.24 1.24 0 01-1.838.1l-6.179-5.549a1.976 1.976 0 01-1.165.064l4.212 7.334a3.338 3.338 0 01-.022 3.143 1.325 1.325 0 01-2.117.514z"/><path data-name="Path 1080" d="M.005 634.397v.411l1.3-1.239z"/><path data-name="Path 1081" d="M1178.561 878.837a2.888 2.888 0 01.331 1.55c2.042-.224 4.447-.5 7.131-.823l-10.017-5.036z"/><path data-name="Path 1082" d="M1170.319 957.683a64.262 64.262 0 0017.9 4.886c4.672-2.16 18.6-8.97 27.07-17.341l-33.026 13.31a3.492 3.492 0 01-2.908-.16 1.57 1.57 0 01-.877-1.978l1.828-4.287-1.571.887a3 3 0 01-.161 2.32 1.247 1.247 0 01-1.977.481l-1.134-.994z"/><path data-name="Path 1083" d="M1222.299 960.004l-7.249 3.731c2.2-.075 4.245-.182 6.169-.3z"/><path data-name="Path 1084" d="M1235.575 964.675a3.183 3.183 0 01-.064.716l1.818-1.368z"/><path data-name="Path 1085" d="M1242.621 918.833h-11.683a2.822 2.822 0 01-2.374-1.08 1.445 1.445 0 01.4-1.978l4.308-3.528-17.459 4.266a3.541 3.541 0 01-1.058.086 23.461 23.461 0 007.1 4.362c.663.3 1.241.631 1.85.951a136.943 136.943 0 0018.916-3.079z"/><path data-name="Path 1086" d="M1186.901 923.227c.951.011 1.9.021 2.865.021l-4.9-4.052c.634 1.422 1.339 2.737 2.035 4.031z"/><path data-name="Path 1087" d="M1187.809 875.779a2.979 2.979 0 01.471 2.876 2.453 2.453 0 01-.4.684c18.165-2.192 47.575-6.233 68.294-11.546a2.628 2.628 0 01-.9-.449 1.476 1.476 0 01-.556-1.818l3.4-7.409-16.5 3.624a3.319 3.319 0 01-2.77-.567 1.448 1.448 0 01-.332-2.031l6.362-8.959-11.1 7.131a3.475 3.475 0 01-3.389.075 1.509 1.509 0 01-.621-2.363l2.8-3.453-22.516 11.717a3.475 3.475 0 01-3.068.011 1.58 1.58 0 01-.952-2.063l4.95-10.926-19.335 3.806a13.971 13.971 0 002.929.684c.77.043 1.39.877 1.486 1.989a2.375 2.375 0 01-1.111 2.438l-16.272 6.853z"/><path data-name="Path 1088" d="M431.769 936.205l1.326-2.363-5.132 2.641a423.52 423.52 0 003.806-.278z"/><path data-name="Path 1089" d="M1216.963 906.462l-10.69-1.561a47.921 47.921 0 006.2 9.344 1.985 1.985 0 01.951-.973l14.808-7.655-9.633-1.326a3.5 3.5 0 01-.054.813c-.267.909-.892 1.441-1.582 1.358z"/><path data-name="Path 1090" d="M1186.387 848.254l-2.982-.321a18.435 18.435 0 002.63 2.951l3.036-1.4z"/><path data-name="Path 1091" d="M1609.489 721.24c3.165 1.3 6.479 2.448 9.836 3.453v-13.235l-10.788-3.731 2.972 10.189a2.715 2.715 0 01-.7 2.715 2.2 2.2 0 01-1.32.609z"/><path data-name="Path 1092" d="M1231.638 968.288l-3.275 1.781h.9z"/><path data-name="Path 1093" d="M912.161 925.717a34.822 34.822 0 002.715-3.56l-5.751.845c1.069.887 2.031 1.806 3.036 2.715z"/><path data-name="Path 1094" d="M389.08 931.961l-9.391 2.478c4.683.15 9.237.139 13.417 0a2.333 2.333 0 01.022-.47l2.6-6.96-5.494 2.117a1.751 1.751 0 01.481.684c.289.911-.406 1.829-1.635 2.151z"/><path data-name="Path 1095" d="M1602.354 645.922l2.833 6.6a2.772 2.772 0 01-.342 2.769 2.144 2.144 0 01-2.438.738l-8.724-3.207c6.03 6.126 15.438 10.509 25.637 13.663v-12.427z"/><path data-name="Path 1096" d="M927.203 943.508c1.872-.043 3.55-.086 4.844-.128a66.982 66.982 0 007.163-11.236l-12.573 10.424c.203.309.374.63.566.94z"/><path data-name="Path 1097" d="M413.712 932.86a1.1 1.1 0 01.523.075 2.589 2.589 0 01-.706-2.309l1.818-9.1-15.545 12.594c8.126-.501 13.716-1.239 13.91-1.26z"/><path data-name="Path 1098" d="M432.785 940.417l-20.271 4.191a99.574 99.574 0 0017.405-.021 60.779 60.779 0 0010.3-4.886l-6.714.845a2.026 2.026 0 01-.72-.129z"/><path data-name="Path 1099" d="M1039.15 961.383l.064.449.353-.021z"/><path data-name="Path 1100" d="M1241.544 970.069h1.462l.589-.671z"/><path data-name="Path 1101" d="M1619.322 646.324v-.849l-.912-.286z"/><path data-name="Path 1102" d="M1476.457 837.976l-.523-.267.278.481z"/><path data-name="Path 1103" d="M420.501 936.945a2.49 2.49 0 01.459-2l6.906-8.148-11.2 6.5a1.914 1.914 0 01-1.914-.053 2.557 2.557 0 01.748 1.486 3.036 3.036 0 01-.652 2.48c1.976-.075 3.857-.171 5.653-.265z"/><path data-name="Path 1104" d="M12.936 840.039a2.043 2.043 0 01-2.031-1.08 2.6 2.6 0 01-.011-2.5l1.636-2.929-9.365 4.822a2 2 0 01-2.6-.759 2.536 2.536 0 01.181-2.993l6.714-7.911L0 830.998v16.037c7.622-2.117 14.38-4.683 19.458-7.815z"/><path data-name="Path 1105" d="M22.001 703.568a2.562 2.562 0 01-.459-2.32l2.758-9.43-13.363 4.619a1.987 1.987 0 01-2.234-.727 2.608 2.608 0 01-.278-2.587l5.164-11.407-8.992 9.071a1.953 1.953 0 01-2.747.1 2.54 2.54 0 01-.5-3.015l2.261-4.385-3.613 2.951v25.049a206.592 206.592 0 0022.729-7.345 2.184 2.184 0 01-.726-.574z"/><path data-name="Path 1106" d="M2.277 769.125a2.129 2.129 0 01-1.925-1.368 2.569 2.569 0 01.332-2.523l3.485-4.48L0 762.347v10.06a67.521 67.521 0 0011.739-3.282z"/><path data-name="Path 1107" d="M1525.101 859.304l-6.607.834-2.256 1.892.984 1.23a57.64 57.64 0 007.879-3.956z"/><path data-name="Path 1108" d="M1458.945 781.687l-7.783-5.88a43 43 0 007.783 5.88z"/><path data-name="Path 1109" d="M1586.318 575.735l-4.127-.92c9.237 10.691 27.648 6.2 27.861 6.147a2.273 2.273 0 012.715 1.839 2.59 2.59 0 01-1.571 3.079l-9.269 3.036c4.062 4.426 10.68 6.8 17.394 8.04v-29.613c-.043 0-.086.011-.139.011l-15.3-2.031 2.528 4.168a2.752 2.752 0 01-.321 3.25 2.1 2.1 0 01-2.929.224l-7.719-6.318.331 2.224a2.729 2.729 0 01-.855 2.448 2.1 2.1 0 01-2.352.289l-4.95-2.544 1.25 3.143a2.784 2.784 0 01-.31 2.619 2.172 2.172 0 01-2.237.909z"/><path data-name="Path 1110" d="M364.939 894.082c.9.2 1.764.385 2.6.556 1.358.289 2.619.588 3.828.909l.193-.182-3.657-3.036-3.785.428c.265.459.543.876.821 1.325z"/><path data-name="Path 1111" d="M380.345 911.199l-.267.246a2.459 2.459 0 01.128.3z"/><path data-name="Path 1112" d="M.005 752.289v.091l.088-.072z"/><path data-name="Path 1113" d="M361.186 886.77l-.352-.289c.075.15.149.267.224.417z"/><path data-name="Path 1114" d="M1566.764 314.093c-43.813-26.182-91.932-80.012-122.679-110.011s-102.731-58.266-102.731-58.266-50.312 19.169-71.64 30.94a303.526 303.526 0 01-42.893 19.158s-58.5-34.34-90.767-63.612-72.09-43.844-72.09-43.844c-32.019 11.8-60.767 21.393-60.767 21.393-48.987-13.834-49.062-25.562-78.249-51.167S800.194.001 800.194.001s-20.066 15.427-74.024 35.484c-31.25 11.61-63.826 40.423-105.649 56.812-34.287 13.449-54.311 28.716-54.311 28.716-29.091-10.2-50.034-20.056-50.034-20.056s-23.306 8.842-48.89 32.362c-25.862 23.788-65.547 48.751-74.891 63.216-25.1 38.873-66.862 50.729-66.862 50.729-11.44-10.98-55.156-23.713-55.156-23.713s-33.441 29.037-50.152 46.666-41.064 32.715-41.064 32.715a285.6 285.6 0 00-50.515-25.188s-53.7 37.761-82.15 71.662c-22.847 27.219-46.5 39.193-46.5 51.424v201.761c8.488-.567 18.859-2.555 24.226-8.564l-6.731-2.69a2.416 2.416 0 01-1.358-2.716 2.206 2.206 0 012.245-1.85c.631.064 14.037 1.1 21.725-10.05a2.026 2.026 0 01-1.529-.877 2.583 2.583 0 01-.289-2.427l1.155-2.908-4.586 2.352a1.938 1.938 0 01-2.17-.267 2.505 2.505 0 01-.792-2.266l.5-3.336-14.037 7.355a1.958 1.958 0 01-2.5-.6 2.553 2.553 0 01-.15-2.844l2.331-3.859-14.166 1.871a2.119 2.119 0 01-2.3-1.743 2.423 2.423 0 011.251-2.769c.3-.139 27.433-12.615 38.156-26.428l-.588.2a2.022 2.022 0 01-2.385-.973 2.538 2.538 0 01.171-2.822l2.748-3.517-14.668 3.71a2.122 2.122 0 01-2.523-1.732 2.4 2.4 0 011.508-2.844 40.978 40.978 0 0017.394-11.482l-9.74 3.881a2.023 2.023 0 01-2.523-1.005 2.571 2.571 0 01.385-2.951l3.1-3.165-12.787 3.378a2.055 2.055 0 01-2.416-1.315 2.535 2.535 0 01.684-2.887l5.421-4.351h-8.2a2.223 2.223 0 01-2.106-2.256 2.294 2.294 0 011.946-2.448 36.092 36.092 0 0024.293-15.059l-2.117.492a2.01 2.01 0 01-2.245-1.091 2.567 2.567 0 01.183-2.715l.363-.481-10.093 3.881a2.036 2.036 0 01-2.565-1.144 2.522 2.522 0 01.631-2.994c.224-.171 22.2-18.1 25.98-34.468a201.12 201.12 0 004.392-34.78 2.118 2.118 0 114.223 0 201.389 201.389 0 004.4 34.778c3.742 16.24 17.181 24.825 17.309 24.91a2.478 2.478 0 01.962 2.822 2.081 2.081 0 01-2.331 1.55l-5.367-.941 1.615 2.16a2.546 2.546 0 01.182 2.716 2.023 2.023 0 01-2.245 1.09l-5.709-1.347c9.654 15.235 26.235 23.071 26.417 23.157a2.4 2.4 0 011.261 2.63 2.174 2.174 0 01-2.074 1.892h-5.962l3.571 4.758a2.563 2.563 0 01.15 2.8 2.015 2.015 0 01-2.374.962l-7.655-2.544 2.31 2.373a2.552 2.552 0 01.384 2.94 2.011 2.011 0 01-2.523 1.005l-8.468-3.368c5.4 4.9 12.786 8.756 15.79 10.328 2.107 1.09 3.614 1.882 2.93 3.988s-2.566 1.54-3.689 1.208l-12.294-3.453 2.555 3.282a2.558 2.558 0 01.182 2.822 2.022 2.022 0 01-2.395.973l-7.376-2.523c10.809 13.8 38.3 26.246 38.605 26.385a2.448 2.448 0 011.261 2.769 2.136 2.136 0 01-2.3 1.753l-14.176-1.871 2.341 3.859a2.573 2.573 0 01-.289 3.015 1.948 1.948 0 01-2.715.192l-7.152-5.837.31 2.053a2.484 2.484 0 01-.8 2.266 1.934 1.934 0 01-2.17.267l-4.586-2.352 1.155 2.908a2.578 2.578 0 01-.278 2.427 2.008 2.008 0 01-2.064.834l-3.827-.845c8.553 9.9 25.594 5.741 25.786 5.688a2.093 2.093 0 012.513 1.7 2.389 2.389 0 01-1.444 2.854l-8.584 2.812c10.06 10.958 37.087 8.36 37.376 8.328a2.132 2.132 0 012.16 1.5 2.513 2.513 0 01-.7 2.726l-11.076 9.355c10.681 6.169 30.759 6.789 30.983 6.8a2.238 2.238 0 012.053 2.245 2.289 2.289 0 01-1.85 2.448l-19.12 2.587 9.269 11.215a2.555 2.555 0 01.15 2.972 1.976 1.976 0 01-2.587.759l-17.577-8.927.685 2.438a2.526 2.526 0 01-.7 2.544 1.951 1.951 0 01-2.374.2l-3.923-2.512 7.986 7.633a2.548 2.548 0 01.492 2.9 2.039 2.039 0 01-2.449 1.155l-13.545-4.266 3.806 4.736a2.592 2.592 0 01.139 2.951 2 2 0 01-2.555.78l-16.25-7.794 2.63 6.1a2.591 2.591 0 01-.321 2.576 1.986 1.986 0 01-2.256.674l-8.072-2.961c18.464 18.752 71.074 20 71.652 20.014a2.238 2.238 0 012.074 2.2 2.312 2.312 0 01-1.8 2.48l-14.148 2.399 5.612 4.073a2.5 2.5 0 01.834 2.79 2.1 2.1 0 01-2.245 1.518l-16.592-2.281 4.2 14.55a2.55 2.55 0 01-.727 2.6 1.949 1.949 0 01-2.438.1l-12.615-9.13 2.9 5.591a2.554 2.554 0 01-.5 3 1.966 1.966 0 01-2.758-.086l-8.991-9.077 5.164 11.407a2.59 2.59 0 01-.278 2.577 1.957 1.957 0 01-2.235.727l-13.363-4.619 2.759 9.43a2.57 2.57 0 01-.642 2.534 2.013 2.013 0 01-1.24.545c23.819 9.836 55.892 9.772 56.363 9.782h.011a2.166 2.166 0 012.053 1.828 2.438 2.438 0 01-1.144 2.651l-5.688 3.015c9.835-.609 20.966-2.288 26.974-6.575l-8.319-2.117c-1.229-.31-1.935-1.219-1.657-2.127a2.657 2.657 0 012.759-1.454c.78.053 17.329.866 26.823-7.89a3.09 3.09 0 01-1.892-.7 1.428 1.428 0 01-.353-1.9l1.432-2.288-5.666 1.85a3.525 3.525 0 01-2.683-.2 1.65 1.65 0 01-.983-1.785l.63-2.619-17.331 5.78a3.413 3.413 0 01-3.09-.47 1.457 1.457 0 01-.193-2.245l2.887-3.025-17.491 1.475a2.693 2.693 0 01-2.833-1.379c-.332-.887.332-1.818 1.539-2.17.374-.107 33.87-9.911 47.1-20.751l-.727.15a3.2 3.2 0 01-2.951-.759 1.44 1.44 0 01.225-2.213l3.39-2.758-18.111 2.908a2.788 2.788 0 01-3.11-1.363c-.342-.984.492-1.978 1.861-2.234.16-.032 12.722-2.47 21.467-9.013l-12.016 3.036a3.2 3.2 0 01-3.111-.78 1.488 1.488 0 01.471-2.32l3.827-2.491-15.79 2.662a3 3 0 01-2.972-1.026 1.548 1.548 0 01.845-2.266l6.682-3.421h-10.115c-1.4 0-2.555-.78-2.609-1.775s1.005-1.839 2.405-1.924c.2-.011 18.56-1.187 29.988-11.835l-2.619.4a3.109 3.109 0 01-2.769-.855 1.441 1.441 0 01.224-2.138l.449-.374-12.466 3.047a3.118 3.118 0 01-3.164-.9 1.547 1.547 0 01.781-2.352c.278-.139 27.4-14.219 32.073-27.07a103.282 103.282 0 005.42-27.3c.043-1 1.2-1.807 2.609-1.807s2.566.8 2.609 1.807a103.911 103.911 0 005.431 27.3c4.629 12.754 21.212 19.5 21.383 19.565 1.09.438 1.593 1.368 1.176 2.213a2.783 2.783 0 01-2.865 1.219l-6.628-.738 1.988 1.689a1.441 1.441 0 01.225 2.138 3.072 3.072 0 01-2.769.855l-7.055-1.058c11.92 11.974 32.393 18.121 32.617 18.186 1.155.342 1.807 1.208 1.561 2.074a2.56 2.56 0 01-2.556 1.486h-7.376l4.415 3.72a1.458 1.458 0 01.183 2.213 3.228 3.228 0 01-2.93.748l-9.461-1.988 2.864 1.849a1.494 1.494 0 01.47 2.32 3.245 3.245 0 01-3.11.791l-10.457-2.653a81.63 81.63 0 0010.788 5.014 1.211 1.211 0 01.887-.278c.225.032 21.789 2.737 29.668-8.788l-5.335-2.79a2.759 2.759 0 01-1.059-2.812c.172-1.187.952-1.989 1.765-1.914.5.075 11.1 1.133 17.18-10.4a1.549 1.549 0 01-1.208-.909 3.305 3.305 0 01-.224-2.5l.909-3.015-3.624 2.438a1.263 1.263 0 01-1.711-.278 3.107 3.107 0 01-.641-2.341l.406-3.464-11.1 7.623a1.352 1.352 0 01-1.978-.62 3.326 3.326 0 01-.117-2.951l1.838-4-11.2 1.946c-.834.15-1.6-.631-1.807-1.807a2.809 2.809 0 01.983-2.865c.236-.15 21.692-13.054 30.17-27.348l-.46.2c-.716.321-1.486-.086-1.892-1a3.326 3.326 0 01.139-2.919l2.17-3.635-11.6 3.838c-.9.289-1.776-.513-1.989-1.8a2.666 2.666 0 011.187-2.94 32.623 32.623 0 0013.748-11.885l-7.7 4.02c-.749.385-1.583-.043-1.988-1.037a3.3 3.3 0 01.3-3.058l2.448-3.271-10.1 3.5c-.781.267-1.583-.3-1.914-1.358a3.145 3.145 0 01.544-2.983l4.277-4.512h-6.481c-.9 0-1.625-1.037-1.668-2.341s.641-2.416 1.54-2.523c.128-.011 11.888-1.572 19.212-15.6l-1.678.513c-.706.224-1.411-.235-1.775-1.123a3.337 3.337 0 01.15-2.823l.278-.492-7.987 4.009c-.781.4-1.647-.1-2.02-1.176a3.16 3.16 0 01.5-3.09c.171-.192 17.544-18.741 20.537-35.676a268.918 268.918 0 003.474-36c.022-1.315.759-2.373 1.668-2.373s1.646 1.058 1.668 2.373a271.56 271.56 0 003.485 36c2.962 16.8 13.578 25.691 13.7 25.776a3.027 3.027 0 01.748 2.919c-.267 1.123-1.037 1.818-1.839 1.614l-4.245-.984 1.272 2.234a3.31 3.31 0 01.15 2.812c-.363.887-1.07 1.347-1.775 1.133l-4.511-1.4a62.178 62.178 0 0020.89 23.969 2.793 2.793 0 01.994 2.726c-.161 1.133-.845 1.956-1.635 1.956h-4.726l2.823 4.918a3.319 3.319 0 01.117 2.9c-.406.9-1.165 1.3-1.871.994l-6.061-2.63 1.838 2.448a3.334 3.334 0 01.3 3.058c-.417.994-1.251 1.433-2 1.037l-6.693-3.5c4.277 5.078 10.113 9.066 12.487 10.691 1.658 1.133 2.854 1.957 2.32 4.127s-2.032 1.593-2.919 1.251l-9.729-3.571 2.031 3.389a3.346 3.346 0 01.139 2.929c-.406.909-1.176 1.315-1.892 1l-5.838-2.609c8.554 14.283 30.277 27.166 30.524 27.316a2.788 2.788 0 01.994 2.855c-.2 1.187-.972 1.967-1.817 1.817l-11.194-1.946 1.839 4a3.264 3.264 0 01-.224 3.111 1.3 1.3 0 01-2.149.214l-5.655-6.051.245 2.138a3.059 3.059 0 01-.631 2.341 1.26 1.26 0 01-1.71.278l-3.635-2.438.919 3.015a3.355 3.355 0 01-.224 2.5 1.448 1.448 0 01-1.636.866l-3.014-.877c6.756 10.242 20.227 5.934 20.387 5.891.877-.31 1.753.492 1.989 1.764a2.718 2.718 0 01-1.144 2.951l-6.789 2.908c7.954 11.332 29.315 8.649 29.55 8.617.726-.1 1.443.535 1.71 1.55a3.174 3.174 0 01-.555 2.823l-8.756 9.675c8.446 6.393 24.322 7.035 24.493 7.035.876.032 1.593 1.048 1.636 2.32s-.6 2.384-1.475 2.534l-15.118 2.694 7.324 11.6a3.36 3.36 0 01.128 3.079c-.471.93-1.326 1.261-2.053.78l-13.887-9.226.534 2.512a3.19 3.19 0 01-.545 2.63 1.273 1.273 0 01-1.881.2l-3.1-2.587 6.309 7.89a3.284 3.284 0 01.4 3c-.374 1.005-1.176 1.508-1.935 1.187l-10.713-4.404 3 4.907a3.33 3.33 0 01.106 3.047c-.46.93-1.294 1.262-2.01.823l-12.85-8.072 2.074 6.318a3.318 3.318 0 01-.256 2.662 1.364 1.364 0 01-1.775.706l-6.393-3.079c14.6 19.415 56.2 20.719 56.663 20.719.866.021 1.582 1.016 1.636 2.277s-.556 2.384-1.411 2.566l-11.2 2.48 4.447 4.223a3.127 3.127 0 01.663 2.876c-.267 1.069-1.005 1.721-1.775 1.582l-13.118-2.373 3.314 15.064a3.153 3.153 0 01-.577 2.683 1.274 1.274 0 01-1.925.107l-9.975-9.462 2.288 5.795a3.25 3.25 0 01-.4 3.111 1.315 1.315 0 01-2.181-.1l-7.11-9.387 4.084 11.8a3.35 3.35 0 01-.224 2.673 1.358 1.358 0 01-1.764.748l-10.563-4.779 2.182 9.761a3.455 3.455 0 01.01 1.048 2.221 2.221 0 012.107 1.657 1.766 1.766 0 01-1.219 1.668c18.527 8.959 41.823 8.927 42.176 8.938h.01c.781 0 1.454.781 1.625 1.892a2.85 2.85 0 01-.908 2.737l-11.333 7.869 1.24 4.939a3.288 3.288 0 01-.352 2.523 1.344 1.344 0 01-1.711.641l-11.108-5.046a17.9 17.9 0 0013.2 9.034 1.715 1.715 0 011.369 1.229 2.289 2.289 0 01.289-.107c.545-.086 44.122-6.864 70.625-17.533a2.172 2.172 0 01-.749-.588 2.625 2.625 0 01-.471-2.395l2.834-9.7-13.749 4.747a2.033 2.033 0 01-2.3-.748 2.651 2.651 0 01-.289-2.651l5.314-11.739-9.248 9.344a2.028 2.028 0 01-2.833.085 2.605 2.605 0 01-.513-3.09l2.331-4.512-18.749 15.354a2 2 0 01-2.566.011 2.579 2.579 0 01-.791-2.7l4.127-14.3-20.918 6.459a2.113 2.113 0 01-2.556-1.336 2.57 2.57 0 01.791-3.026l5.784-4.2-14.562-2.459a2.339 2.339 0 01-1.849-2.267 2.407 2.407 0 011.615-2.47c.651-.192 59.292-17.672 78.7-33.378a2.216 2.216 0 01-1.037-.823 2.652 2.652 0 01-.235-2.523l2.052-4.779-25.603 17.276a2.03 2.03 0 01-2.8-.524 2.631 2.631 0 01.043-3.165l3.914-4.875-13.942 4.383a2.082 2.082 0 01-2.512-1.176 2.624 2.624 0 01.5-2.983l8.221-7.847-4.041 2.577a2 2 0 01-2.438-.214 2.594 2.594 0 01-.717-2.609l.706-2.5-18.078 9.173a2.04 2.04 0 01-2.662-.781 2.617 2.617 0 01.16-3.058l9.526-11.536-19.672-2.662a2.376 2.376 0 01-1.914-2.523 2.306 2.306 0 012.117-2.309c.225 0 19.586-.609 30.79-6.4l-9.814-4.437a2.5 2.5 0 01-1.293-2.823 2.221 2.221 0 012.309-1.839c.3.032 28.353 2.726 38.595-8.735l-6.928-2.769a2.48 2.48 0 01-1.39-2.79 2.251 2.251 0 012.3-1.9c.652.064 14.443 1.122 22.366-10.349a2.1 2.1 0 01-1.582-.9 2.616 2.616 0 01-.288-2.491l1.186-3-4.715 2.427a1.983 1.983 0 01-2.234-.278 2.555 2.555 0 01-.823-2.331l.524-3.432-14.444 7.569a2.032 2.032 0 01-2.576-.609 2.637 2.637 0 01-.16-2.929l2.405-3.977-14.571 1.935a2.18 2.18 0 01-2.364-1.8 2.5 2.5 0 011.283-2.854c.31-.139 28.224-12.979 39.257-27.187l-.609.2a2.066 2.066 0 01-2.459-.994 2.661 2.661 0 01.181-2.908l2.823-3.614-15.085 3.817a2.167 2.167 0 01-2.587-1.785 2.451 2.451 0 011.55-2.919c.127-.043 10.594-3.239 17.886-11.814l-10.018 3.988a2.069 2.069 0 01-2.587-1.026 2.631 2.631 0 01.385-3.036l3.186-3.261-13.15 3.475a2.108 2.108 0 01-2.481-1.347 2.6 2.6 0 01.706-2.972l5.57-4.479h-8.436a2.283 2.283 0 01-2.159-2.32 2.345 2.345 0 011.988-2.512 37.116 37.116 0 0025-15.5l-2.181.513a2.085 2.085 0 01-2.309-1.122 2.673 2.673 0 01.192-2.8l.374-.492-10.392 3.988a2.085 2.085 0 01-2.641-1.165 2.612 2.612 0 01.652-3.079c.234-.193 22.836-18.635 26.728-35.473a207.386 207.386 0 004.522-35.772 2.183 2.183 0 114.351 0 205.881 205.881 0 004.523 35.772c3.859 16.71 17.672 25.541 17.811 25.637a2.522 2.522 0 01.983 2.9 2.132 2.132 0 01-2.395 1.593l-5.517-.962 1.657 2.213a2.651 2.651 0 01.193 2.8 2.086 2.086 0 01-2.309 1.123l-5.88-1.39c9.932 15.684 27 23.734 27.176 23.82a2.5 2.5 0 011.3 2.716 2.251 2.251 0 01-2.138 1.946h-6.137l3.678 4.886a2.666 2.666 0 01.15 2.886 2.084 2.084 0 01-2.437.994l-7.88-2.619 2.384 2.438a2.611 2.611 0 01.385 3.025 2.076 2.076 0 01-2.6 1.037l-8.7-3.475c5.55 5.046 13.15 9.013 16.241 10.627 2.159 1.133 3.719 1.946 3.014 4.105s-2.631 1.582-3.795 1.24l-12.648-3.549 2.631 3.378a2.642 2.642 0 01.193 2.908 2.1 2.1 0 01-2.47.994l-7.591-2.6c11.12 14.2 39.4 27.006 39.717 27.155a2.5 2.5 0 011.293 2.844 2.2 2.2 0 01-2.363 1.807l-14.582-1.935 2.4 3.977a2.622 2.622 0 01-.3 3.09 2 2 0 01-2.791.214l-7.355-6.019.321 2.117a2.581 2.581 0 01-.823 2.331 1.982 1.982 0 01-2.234.278l-4.715-2.427 1.187 3a2.647 2.647 0 01-.288 2.491 2.065 2.065 0 01-2.128.855l-3.934-.866c8.8 10.178 26.333 5.9 26.535 5.859a2.157 2.157 0 012.587 1.743 2.478 2.478 0 01-1.5 2.94l-8.831 2.887c10.36 11.279 38.156 8.6 38.445 8.574a2.192 2.192 0 012.234 1.529 2.6 2.6 0 01-.716 2.812l-11.4 9.622a29.863 29.863 0 003.046 1.5c6.522-.011 17.224-1.208 22.152-8.424l-4.939-2.6a2.552 2.552 0 01-.994-2.609c.16-1.1.887-1.849 1.636-1.775.471.064 10.317 1.048 15.961-9.665a1.466 1.466 0 01-1.122-.845 3.129 3.129 0 01-.2-2.331l.845-2.8-3.368 2.266a1.164 1.164 0 01-1.593-.257 2.851 2.851 0 01-.588-2.181l.375-3.207-10.317 7.078a1.265 1.265 0 01-1.839-.577 3.155 3.155 0 01-.107-2.737l1.711-3.71-10.4 1.807c-.77.139-1.486-.588-1.678-1.689a2.629 2.629 0 01.909-2.662c.225-.128 20.152-12.124 28.032-25.4l-.438.192c-.652.3-1.379-.086-1.753-.93a3.1 3.1 0 01.127-2.716l2.021-3.378-10.777 3.571c-.833.267-1.646-.471-1.849-1.668a2.49 2.49 0 011.112-2.737 30.172 30.172 0 0012.766-11.033l-7.153 3.731c-.684.364-1.465-.043-1.85-.962a3.038 3.038 0 01.278-2.833l2.277-3.058-9.386 3.25c-.727.257-1.465-.278-1.775-1.251a2.953 2.953 0 01.5-2.78l3.977-4.18h-6.019c-.834 0-1.518-.962-1.55-2.181s.6-2.245 1.433-2.341c.117-.011 11.043-1.465 17.843-14.486l-1.561.481c-.653.193-1.3-.224-1.647-1.048a3.11 3.11 0 01.139-2.619l.257-.46-7.409 3.731c-.728.363-1.529-.107-1.882-1.1a2.948 2.948 0 01.46-2.876c.16-.171 16.3-17.405 19.073-33.142a251.639 251.639 0 003.239-33.42c.022-1.229.7-2.2 1.55-2.2s1.529.973 1.55 2.192a250.277 250.277 0 003.229 33.431c2.758 15.62 12.615 23.873 12.722 23.948a2.821 2.821 0 01.694 2.715c-.245 1.037-.961 1.679-1.7 1.5l-3.946-.909 1.177 2.074a3.09 3.09 0 01.139 2.609c-.343.834-.994 1.251-1.646 1.048l-4.191-1.294a57.677 57.677 0 0019.4 22.259 2.587 2.587 0 01.92 2.534c-.139 1.058-.781 1.817-1.519 1.817h-4.383l2.619 4.565a3.129 3.129 0 01.107 2.694c-.375.845-1.081 1.219-1.743.93l-5.624-2.448 1.7 2.277a3.032 3.032 0 01.278 2.833c-.374.93-1.154 1.326-1.849.962l-6.211-3.239a58.833 58.833 0 0011.589 9.932c1.55 1.048 2.662 1.818 2.16 3.827s-1.882 1.486-2.716 1.165l-9.034-3.325 1.881 3.165a3.1 3.1 0 01.139 2.716c-.385.845-1.1 1.219-1.764.93l-5.421-2.427c7.943 13.268 28.128 25.231 28.354 25.37a2.619 2.619 0 01.93 2.662c-.193 1.091-.909 1.818-1.689 1.689L617.2 671.84l1.721 3.71a3.081 3.081 0 01-.214 2.9 1.213 1.213 0 01-1.988.192l-5.26-5.624.236 1.978a2.854 2.854 0 01-.589 2.181 1.164 1.164 0 01-1.593.257l-3.368-2.266.845 2.8a3.125 3.125 0 01-.214 2.331 1.324 1.324 0 01-1.508.8l-2.812-.812c6.287 9.515 18.794 5.517 18.944 5.474.813-.289 1.636.449 1.839 1.636a2.513 2.513 0 01-1.058 2.737l-6.308 2.7c7.387 10.531 27.24 8.029 27.455 8.008.673-.085 1.336.492 1.582 1.433a2.944 2.944 0 01-.5 2.619l-8.137 8.991c7.837 5.934 22.591 6.532 22.751 6.543.812.021 1.465.962 1.507 2.149a2.167 2.167 0 01-1.357 2.352l-14.048 2.5 6.8 10.766a3.08 3.08 0 01.118 2.865c-.428.866-1.229 1.176-1.9.727l-12.9-8.574.5 2.341a2.919 2.919 0 01-.514 2.438 1.173 1.173 0 01-1.742.192l-2.887-2.406 5.87 7.334a3.025 3.025 0 01.364 2.79c-.353.93-1.09 1.4-1.8 1.1l-9.954-4.095 2.79 4.554a3.076 3.076 0 01.107 2.833c-.427.855-1.208 1.165-1.871.748l-11.942-7.484 1.935 5.869a3.132 3.132 0 01-.235 2.47 1.287 1.287 0 01-1.657.652l-5.935-2.854c13.568 18.025 52.205 19.233 52.621 19.244.813.021 1.476.941 1.529 2.117a2.228 2.228 0 01-1.315 2.384l-10.4 2.3 4.127 3.924a2.869 2.869 0 01.61 2.673c-.246.984-.931 1.593-1.647 1.465l-12.188-2.2 3.09 13.995a2.992 2.992 0 01-.534 2.491 1.193 1.193 0 01-1.8.1l-9.259-8.788 2.116 5.378a3.03 3.03 0 01-.364 2.9 1.22 1.22 0 01-2.02-.085l-6.607-8.735 3.795 10.969a3.155 3.155 0 01-.2 2.48 1.289 1.289 0 01-1.647.706l-9.813-4.447 2.031 9.066a2.977 2.977 0 01-.48 2.427 1.346 1.346 0 01-.9.534c17.491 9.451 41.044 9.4 41.385 9.4h.01c.727 0 1.348.737 1.508 1.764a2.664 2.664 0 01-.844 2.544l-10.521 7.3 1.155 4.6a3.072 3.072 0 01-.331 2.341 1.264 1.264 0 01-1.592.6l-10.318-4.693a16.626 16.626 0 0012.263 8.392c.76.043 1.39.887 1.476 1.989a2.4 2.4 0 01-1.112 2.448l-16.261 6.842 9.13 9.708a2.973 2.973 0 01.46 2.876c-.353.994-1.155 1.454-1.882 1.091l-10.391-5.217 2.566 4.308a3.11 3.11 0 01.182 2.587c-.321.834-.962 1.283-1.614 1.123l-1.316-.321c20.025 5.827 46.507 3.346 46.86 3.314.726-.043 1.379.6 1.581 1.6a2.767 2.767 0 01-.716 2.619l-9.344 7.8 3.934 4.929a3 3 0 01.406 2.609c-.267.909-.887 1.443-1.582 1.358l-10.68-1.572a57.343 57.343 0 003.111 5.239c17.48-2.042 50.163-6.308 72.635-12.07a2.619 2.619 0 01-.9-.449 1.47 1.47 0 01-.566-1.817l3.4-7.409-16.47 3.611a3.317 3.317 0 01-2.77-.567 1.45 1.45 0 01-.342-2.031l6.372-8.959-11.1 7.131a3.45 3.45 0 01-3.39.064 1.515 1.515 0 01-.63-2.363l2.8-3.442-22.5 11.717a3.511 3.511 0 01-3.068.011 1.6 1.6 0 01-.963-2.063L696 868.609l-25.089 4.936a3.059 3.059 0 01-3.079-1.016c-.524-.834-.118-1.818.963-2.309l6.927-3.207-17.47-1.882a2.239 2.239 0 01-2.213-1.721c-.074-.877.738-1.668 1.935-1.892.781-.15 71.15-13.481 94.434-25.477a2.8 2.8 0 01-1.241-.631 1.422 1.422 0 01-.288-1.924l2.47-3.646-30.726 13.182a3.394 3.394 0 01-3.357-.4 1.47 1.47 0 01.064-2.416l4.683-3.721-16.721 3.346a3.1 3.1 0 01-3.015-.9 1.519 1.519 0 01.61-2.288l9.857-5.987-4.843 1.967a3.461 3.461 0 01-2.929-.16 1.563 1.563 0 01-.866-1.989l.845-1.914-21.692 7.013a3.339 3.339 0 01-3.2-.6 1.465 1.465 0 01.193-2.341l11.429-8.8-23.606-2.042c-1.358-.118-2.352-.952-2.287-1.914s1.176-1.743 2.545-1.764c.256 0 23.5-.47 36.938-4.886l-11.782-3.4c-1.2-.342-1.849-1.262-1.55-2.149a2.7 2.7 0 012.78-1.4c.364.021 34.029 2.085 46.314-6.66l-8.319-2.117c-1.218-.321-1.935-1.229-1.657-2.138a2.689 2.689 0 012.759-1.454c.78.053 17.33.866 26.823-7.89a3.09 3.09 0 01-1.892-.695 1.43 1.43 0 01-.353-1.9l1.432-2.288-5.666 1.86a3.548 3.548 0 01-2.672-.214 1.647 1.647 0 01-.995-1.785l.641-2.619-17.341 5.784a3.414 3.414 0 01-3.09-.47 1.449 1.449 0 01-.182-2.245l2.876-3.026-17.49 1.475a2.7 2.7 0 01-2.833-1.369c-.332-.9.332-1.828 1.539-2.181.374-.107 33.869-9.911 47.1-20.751l-.727.16a3.234 3.234 0 01-2.951-.77 1.447 1.447 0 01.224-2.213l3.39-2.758-18.111 2.908a2.787 2.787 0 01-3.111-1.358c-.332-.984.492-1.967 1.86-2.234.16-.021 12.722-2.47 21.468-9.013l-12.017 3.047a3.233 3.233 0 01-3.111-.791 1.476 1.476 0 01.471-2.309l3.828-2.491-15.791 2.651a2.984 2.984 0 01-2.972-1.026 1.554 1.554 0 01.844-2.267l6.682-3.421h-10.113c-1.4 0-2.545-.781-2.609-1.775s1.005-1.839 2.406-1.914c.2-.021 18.56-1.2 29.989-11.835l-2.609.385a3.1 3.1 0 01-2.78-.855 1.441 1.441 0 01.225-2.138l.449-.374-12.466 3.047a3.125 3.125 0 01-3.164-.9 1.535 1.535 0 01.781-2.341c.278-.15 27.4-14.219 32.073-27.081a103.235 103.235 0 005.421-27.3c.043-1 1.2-1.8 2.608-1.8s2.566.791 2.609 1.8a103.83 103.83 0 005.431 27.3c4.629 12.754 21.212 19.5 21.383 19.565 1.1.438 1.593 1.368 1.176 2.224a2.81 2.81 0 01-2.865 1.219l-6.628-.748 1.988 1.7a1.43 1.43 0 01.235 2.127 3.1 3.1 0 01-2.78.855l-7.046-1.048c11.91 11.963 32.383 18.111 32.607 18.175 1.155.342 1.807 1.208 1.561 2.074a2.544 2.544 0 01-2.555 1.486h-7.377l4.415 3.731a1.445 1.445 0 01.182 2.2 3.227 3.227 0 01-2.929.748l-9.451-2 2.854 1.86a1.494 1.494 0 01.471 2.32 3.215 3.215 0 01-3.112.791l-10.456-2.651c6.672 3.849 15.78 6.874 19.5 8.115 2.587.855 4.457 1.475 3.613 3.122s-3.164 1.219-4.555.952l-15.178-2.708 3.164 2.587a1.438 1.438 0 01.214 2.213 3.186 3.186 0 01-2.951.759l-9.109-1.978c13.342 10.841 47.276 20.612 47.662 20.73 1.208.342 1.87 1.272 1.549 2.17a2.725 2.725 0 01-2.843 1.379l-17.491-1.475 2.886 3.026a1.485 1.485 0 01-.364 2.373 3.445 3.445 0 01-3.347.15l-8.83-4.586.385 1.614a1.625 1.625 0 01-.984 1.785 3.549 3.549 0 01-2.673.214l-5.666-1.86 1.421 2.288a1.452 1.452 0 01-.342 1.914 3.33 3.33 0 01-2.555.652l-4.715-.674c10.552 7.783 31.592 4.512 31.838 4.48a2.776 2.776 0 013.1 1.336c.353.962-.438 1.957-1.785 2.234l-10.606 2.213c12.422 8.6 45.779 6.554 46.142 6.532a2.874 2.874 0 012.674 1.176 1.563 1.563 0 01-.856 2.148l-13.674 7.345c13.182 4.854 37.975 5.346 38.243 5.346 1.358.021 2.47.791 2.545 1.764s-.942 1.8-2.3 1.914l-23.606 2.042 11.439 8.8a1.471 1.471 0 01.192 2.341 3.338 3.338 0 01-3.2.6l-21.692-7.013.844 1.914a1.572 1.572 0 01-.866 1.989 3.46 3.46 0 01-2.929.16l-4.844-1.967 9.857 5.987a1.508 1.508 0 01.6 2.288 3.081 3.081 0 01-3 .9l-16.732-3.346 4.694 3.721a1.455 1.455 0 01.171 2.309 3.307 3.307 0 01-3.153.62l-20.057-6.115 3.24 4.79a1.447 1.447 0 01-.4 2.02 3.358 3.358 0 01-2.78.535l-9.968-2.344c22.8 14.732 87.752 15.716 88.468 15.716 1.347.021 2.459.77 2.555 1.732s-.877 1.807-2.214 1.946l-17.479 1.882 6.938 3.207c1.015.47 1.443 1.368 1.026 2.181a2.828 2.828 0 01-2.769 1.2l-20.484-1.8 5.185 11.429a1.583 1.583 0 01-.909 2.031 3.555 3.555 0 01-3 .086l-15.566-7.184 3.571 4.394a1.516 1.516 0 01-.631 2.363 3.449 3.449 0 01-3.389-.064l-11.1-7.131 6.362 8.959a1.448 1.448 0 01-.332 2.031 3.357 3.357 0 01-2.77.567l-16.5-3.624 3.41 7.4a1.556 1.556 0 01-.8 1.988 3.4 3.4 0 01-1.518.438c29.411 7.719 69 7.666 69.578 7.676h.01a2.582 2.582 0 012.544 1.432c.267.845-.321 1.711-1.421 2.085l-1.5.5c10.188 1.507 36.938 4.426 52.664-3.656h-6.949a1.629 1.629 0 01-1.412-1.326 3.09 3.09 0 01.236-2.416l2.555-4.309-10.381 5.217c-.727.364-1.529-.1-1.882-1.09a2.975 2.975 0 01.46-2.876l8.82-9.365-25.135-7.141a2.268 2.268 0 01-1.25-2.406c.064-1.144.705-2.042 1.5-2.074.139 0 11.365-.577 16.935-8.842l-15.107 5.185a1.3 1.3 0 01-1.518-.706 3.075 3.075 0 01-.3-2.277l1.027-4.073-10.05-3.122a2.273 2.273 0 01-1.229-2.3 2.106 2.106 0 011.337-2.16c.384-.086 31.5-6.415 50.419-16.389a1.628 1.628 0 01-.535-.545 3.077 3.077 0 01-.342-2.234l2.021-9.066-9.8 4.437a1.279 1.279 0 01-1.647-.695 3.114 3.114 0 01-.2-2.48l3.785-10.969-6.6 8.724a1.215 1.215 0 01-2.02.085 3.014 3.014 0 01-.375-2.887l1.667-4.223-13.383 14.339a1.175 1.175 0 01-1.828.011 2.867 2.867 0 01-.567-2.523l2.941-13.375-14.925 6.051c-.738.289-1.518-.235-1.828-1.251a2.885 2.885 0 01.567-2.822l4.127-3.934-10.4-2.288a2.126 2.126 0 01-1.315-2.117 2.326 2.326 0 011.154-2.309c.461-.182 42.327-16.507 56.182-31.2a1.71 1.71 0 01-.748-.759 3.159 3.159 0 01-.16-2.363l1.464-4.469-18.277 16.148a1.254 1.254 0 01-2.009-.481 3.126 3.126 0 01.042-2.961l2.791-4.554-9.953 4.105c-.705.3-1.443-.182-1.8-1.112a3.035 3.035 0 01.364-2.79l5.869-7.323-2.886 2.405a1.177 1.177 0 01-1.743-.2 2.988 2.988 0 01-.512-2.438l.5-2.341-12.905 8.585c-.673.438-1.464.139-1.9-.738a3.091 3.091 0 01.118-2.855l6.8-10.777-14.048-2.491c-.8-.139-1.4-1.176-1.359-2.363s.7-2.117 1.518-2.149c.151 0 13.973-.567 21.971-5.987l-7-4.148a2.614 2.614 0 01-.93-2.63c.182-1.091.9-1.828 1.657-1.721.214.032 20.238 2.544 27.551-8.157l-4.95-2.6a2.522 2.522 0 01-.983-2.6c.16-1.112.876-1.86 1.635-1.785.471.064 10.318 1.058 15.963-9.665a1.45 1.45 0 01-1.123-.845 3.093 3.093 0 01-.214-2.32l.855-2.812-3.368 2.267a1.163 1.163 0 01-1.593-.257 2.837 2.837 0 01-.588-2.17l.374-3.218-10.317 7.078a1.249 1.249 0 01-1.839-.577 3.077 3.077 0 01-.106-2.737l1.71-3.71-10.4 1.807c-.77.139-1.5-.588-1.689-1.678a2.636 2.636 0 01.919-2.662c.225-.139 20.142-12.124 28.022-25.413l-.429.2c-.662.289-1.379-.085-1.753-.941a3.066 3.066 0 01.128-2.716l2.01-3.378-10.766 3.571c-.833.267-1.647-.47-1.849-1.668a2.483 2.483 0 011.1-2.726 30.271 30.271 0 0012.775-11.044l-7.152 3.731c-.7.363-1.465-.043-1.85-.962a3.04 3.04 0 01.278-2.833l2.277-3.047-9.386 3.25c-.727.257-1.465-.278-1.775-1.262a2.959 2.959 0 01.5-2.78l3.977-4.18h-6.016c-.834 0-1.518-.962-1.55-2.17s.6-2.256 1.433-2.352c.117-.011 11.043-1.454 17.832-14.486l-1.55.481c-.652.2-1.315-.225-1.647-1.048a3.154 3.154 0 01.129-2.619l.266-.46-7.409 3.731c-.737.363-1.538-.1-1.892-1.09a3 3 0 01.471-2.887c.16-.171 16.3-17.394 19.073-33.132a248.7 248.7 0 003.228-33.431c.022-1.229.716-2.2 1.55-2.2s1.529.973 1.561 2.2a248.353 248.353 0 003.229 33.431 42.44 42.44 0 0012.711 23.948 2.81 2.81 0 01.705 2.716c-.245 1.037-.962 1.679-1.71 1.486l-3.934-.909 1.175 2.074a3.1 3.1 0 01.139 2.619c-.342.823-.993 1.24-1.646 1.048l-4.2-1.294a57.958 57.958 0 0019.4 22.259 2.573 2.573 0 01.931 2.534c-.15 1.048-.781 1.818-1.519 1.818h-4.394l2.63 4.565a3.127 3.127 0 01.107 2.694c-.374.834-1.079 1.208-1.743.919l-5.623-2.437 1.7 2.266a3.054 3.054 0 01.278 2.844c-.384.919-1.165 1.326-1.849.962l-6.222-3.25a58.543 58.543 0 0011.6 9.932c1.539 1.058 2.662 1.818 2.148 3.838-.492 2.01-1.881 1.475-2.7 1.165l-9.035-3.325 1.882 3.154a3.066 3.066 0 01.129 2.715c-.375.845-1.092 1.229-1.754.93l-5.421-2.427c7.943 13.278 28.128 25.242 28.352 25.37a2.643 2.643 0 01.92 2.662c-.193 1.1-.9 1.817-1.678 1.689l-10.413-1.807 1.722 3.71a3.079 3.079 0 01-.214 2.9 1.217 1.217 0 01-2 .192l-5.249-5.613.224 1.978a2.881 2.881 0 01-.578 2.17 1.165 1.165 0 01-1.592.257l-3.379-2.267.855 2.812a3.124 3.124 0 01-.214 2.331 1.347 1.347 0 01-1.507.8l-2.813-.823c6.277 9.515 18.8 5.517 18.935 5.474.823-.289 1.636.46 1.849 1.636a2.505 2.505 0 01-1.058 2.737l-6.308 2.7c7.388 10.531 27.23 8.029 27.444 8.008.685-.086 1.348.492 1.593 1.433a2.937 2.937 0 01-.512 2.619l-8.136 8.991c7.848 5.944 22.59 6.543 22.75 6.543.813.032 1.476.973 1.518 2.149s-.555 2.224-1.368 2.363l-14.037 2.491 6.8 10.777a3.092 3.092 0 01.117 2.855c-.438.877-1.229 1.176-1.9.738l-12.9-8.585.5 2.341a2.991 2.991 0 01-.514 2.438 1.176 1.176 0 01-1.742.2l-2.886-2.416 5.87 7.334a3.031 3.031 0 01.352 2.79c-.342.93-1.079 1.4-1.785 1.112l-9.953-4.105 2.79 4.554a3.077 3.077 0 01.107 2.833c-.427.855-1.209 1.176-1.882.759l-11.931-7.494 1.925 5.869a3.048 3.048 0 01-.235 2.47 1.253 1.253 0 01-1.647.652l-5.933-2.855c13.556 18.036 52.193 19.233 52.621 19.244.812.021 1.465.941 1.518 2.117a2.209 2.209 0 01-1.315 2.384l-10.393 2.3 4.127 3.924a2.876 2.876 0 01.609 2.673c-.245.994-.93 1.593-1.646 1.475l-12.188-2.213 3.079 13.995a2.918 2.918 0 01-.534 2.491 1.174 1.174 0 01-1.785.1l-9.269-8.777 2.126 5.367a3.031 3.031 0 01-.363 2.9 1.215 1.215 0 01-2.021-.085l-6.608-8.724 3.785 10.969a3.071 3.071 0 01-.2 2.481 1.27 1.27 0 01-1.636.695l-9.814-4.437 2.02 9.066a2.947 2.947 0 01-.471 2.427 1.285 1.285 0 01-.908.524c17.5 9.461 41.053 9.4 41.4 9.408h.01c.717 0 1.347.727 1.508 1.753a2.672 2.672 0 01-.844 2.555l-10.53 7.3 1.165 4.586a3.069 3.069 0 01-.343 2.341 1.252 1.252 0 01-1.582.6l-10.316-4.693a16.661 16.661 0 0012.262 8.4c.759.043 1.379.877 1.476 1.978a2.383 2.383 0 01-1.112 2.448l-2.609 1.1c11.664 1.529 35.4 3.378 49.842-4.041h-6.949a1.627 1.627 0 01-1.411-1.326 3.086 3.086 0 01.235-2.416l2.555-4.309-10.381 5.217c-.727.363-1.528-.1-1.882-1.091a2.973 2.973 0 01.461-2.876l8.808-9.365-25.134-7.142a2.276 2.276 0 01-1.24-2.406c.064-1.144.705-2.042 1.5-2.074.139 0 11.365-.577 16.934-8.842l-15.117 5.185a1.283 1.283 0 01-1.508-.706 3.022 3.022 0 01-.3-2.277l1.026-4.084-10.061-3.111a2.258 2.258 0 01-1.218-2.3 2.105 2.105 0 011.336-2.16c.385-.086 31.5-6.415 50.42-16.389a1.765 1.765 0 01-.546-.545 3.125 3.125 0 01-.331-2.234l2.02-9.066-9.8 4.437a1.288 1.288 0 01-1.646-.695 3.117 3.117 0 01-.2-2.48l3.763-10.957-6.6 8.724a1.215 1.215 0 01-2.02.086 2.987 2.987 0 01-.374-2.887l1.668-4.223-13.385 14.337a1.181 1.181 0 01-1.828.021 2.893 2.893 0 01-.567-2.534l2.94-13.364-14.924 6.041c-.739.289-1.519-.235-1.839-1.251a2.912 2.912 0 01.566-2.822l4.127-3.934-10.391-2.288a2.126 2.126 0 01-1.315-2.117 2.316 2.316 0 011.155-2.309c.46-.182 42.326-16.507 56.181-31.186a1.8 1.8 0 01-.748-.77 3.211 3.211 0 01-.171-2.363l1.475-4.469-18.281 16.144a1.244 1.244 0 01-2-.492 3.106 3.106 0 01.042-2.951l2.792-4.554-9.954 4.095c-.706.31-1.443-.16-1.8-1.1a3.033 3.033 0 01.365-2.79l5.869-7.323-2.886 2.406a1.184 1.184 0 01-1.743-.2 2.916 2.916 0 01-.513-2.438l.5-2.341-12.9 8.585c-.673.438-1.465.139-1.9-.738a3.059 3.059 0 01.117-2.855l6.8-10.777-14.047-2.491a2.183 2.183 0 01-1.359-2.352c.044-1.187.7-2.128 1.508-2.16.161 0 13.984-.567 21.981-5.987l-7.014-4.148a2.637 2.637 0 01-.919-2.63c.182-1.091.9-1.828 1.647-1.721.224.032 20.249 2.545 27.562-8.157l-4.951-2.6a2.532 2.532 0 01-.983-2.6c.16-1.112.877-1.86 1.636-1.785.47.064 10.317 1.058 15.962-9.665a1.449 1.449 0 01-1.123-.845 3.116 3.116 0 01-.214-2.331l.855-2.8-3.368 2.267a1.177 1.177 0 01-1.6-.257 2.913 2.913 0 01-.588-2.17l.384-3.218-10.317 7.077a1.248 1.248 0 01-1.838-.577 3.112 3.112 0 01-.107-2.737l1.711-3.71-10.4 1.807c-.77.139-1.5-.588-1.689-1.679a2.615 2.615 0 01.92-2.662c.224-.139 20.142-12.124 28.022-25.413l-.428.193c-.662.3-1.379-.075-1.764-.93a3.1 3.1 0 01.139-2.716l2.009-3.378-10.765 3.571c-.834.267-1.657-.47-1.85-1.668a2.477 2.477 0 011.1-2.726 30.268 30.268 0 0012.776-11.044l-7.153 3.731c-.694.364-1.475-.043-1.849-.962a3.035 3.035 0 01.278-2.833l2.277-3.047-9.4 3.25c-.716.257-1.464-.278-1.764-1.262a2.954 2.954 0 01.5-2.78l3.977-4.18h-6.019c-.833 0-1.519-.962-1.55-2.17s.6-2.256 1.422-2.352c.128-.011 11.054-1.454 17.843-14.486l-1.55.481c-.652.2-1.315-.224-1.657-1.048a3.191 3.191 0 01.139-2.619l.267-.46-7.42 3.731c-.727.364-1.529-.1-1.882-1.09a2.949 2.949 0 01.471-2.876c.161-.182 16.293-17.4 19.073-33.142a248.515 248.515 0 003.229-33.431c.022-1.229.717-2.2 1.55-2.2s1.529.973 1.55 2.2a251.46 251.46 0 003.24 33.431 42.434 42.434 0 0012.712 23.948 2.814 2.814 0 01.705 2.716c-.246 1.026-.962 1.678-1.71 1.486l-3.945-.909 1.187 2.074a3.109 3.109 0 01.139 2.619c-.343.823-.994 1.24-1.657 1.048l-4.192-1.294a57.879 57.879 0 0019.4 22.259 2.583 2.583 0 01.93 2.523c-.15 1.058-.78 1.828-1.529 1.828h-4.384l2.631 4.565a3.126 3.126 0 01.107 2.694c-.374.834-1.08 1.208-1.743.919l-5.624-2.438 1.7 2.266a3.058 3.058 0 01.278 2.844c-.385.919-1.166 1.326-1.849.962l-6.223-3.25a58.542 58.542 0 0011.6 9.932c1.54 1.058 2.652 1.818 2.149 3.838s-1.882 1.475-2.705 1.165l-9.034-3.325 1.882 3.154a3.065 3.065 0 01.128 2.716c-.374.845-1.091 1.219-1.753.93l-5.421-2.427c7.932 13.268 28.127 25.242 28.352 25.37a2.635 2.635 0 01.92 2.662c-.193 1.1-.908 1.818-1.689 1.689l-10.4-1.807 1.71 3.71a3.075 3.075 0 01-.2 2.9 1.217 1.217 0 01-2 .192l-5.249-5.613.225 1.978a2.864 2.864 0 01-.577 2.17 1.178 1.178 0 01-1.6.257l-3.368-2.267.855 2.8a3.147 3.147 0 01-.213 2.341 1.334 1.334 0 01-1.519.791l-2.8-.813c6.276 9.515 18.8 5.517 18.934 5.474.822-.289 1.635.449 1.849 1.636a2.506 2.506 0 01-1.059 2.737l-6.308 2.7c7.388 10.531 27.23 8.04 27.445 8.008.684-.086 1.336.492 1.592 1.433a2.944 2.944 0 01-.513 2.619l-8.136 8.991c7.848 5.944 22.59 6.543 22.751 6.543.813.032 1.475.973 1.518 2.16a2.189 2.189 0 01-1.368 2.352l-14.038 2.491 6.8 10.777a3.091 3.091 0 01.118 2.855c-.438.877-1.229 1.176-1.9.738l-12.9-8.585.5 2.341a2.994 2.994 0 01-.514 2.438 1.176 1.176 0 01-1.742.2l-2.887-2.416 5.87 7.334a3.063 3.063 0 01.353 2.79c-.343.93-1.079 1.4-1.786 1.1l-9.954-4.095 2.791 4.554a3.116 3.116 0 01.1 2.833c-.428.866-1.2 1.176-1.871.759l-11.931-7.494 1.924 5.869a3.085 3.085 0 01-.235 2.47 1.254 1.254 0 01-1.647.652l-5.933-2.854c13.557 18.036 52.194 19.233 52.621 19.244.8.022 1.465.941 1.519 2.117a2.207 2.207 0 01-1.315 2.384l-10.392 2.3 4.127 3.924a2.878 2.878 0 01.609 2.673c-.245.994-.931 1.593-1.647 1.475l-12.187-2.213 1.378 6.254c3.378-.1 24.033-.8 36.414-4.875l-11.771-3.4c-1.2-.342-1.861-1.261-1.561-2.149a2.7 2.7 0 012.78-1.4c.364.021 34.029 2.085 46.313-6.661l-8.306-2.117c-1.229-.321-1.947-1.229-1.668-2.138a2.706 2.706 0 012.758-1.454c.781.053 17.331.866 26.835-7.89a3.1 3.1 0 01-1.9-.7 1.427 1.427 0 01-.343-1.9l1.423-2.288-5.657 1.86a3.57 3.57 0 01-2.683-.214 1.635 1.635 0 01-.983-1.785l.63-2.619-17.34 5.784a3.419 3.419 0 01-3.09-.47 1.456 1.456 0 01-.182-2.245l2.876-3.026-17.49 1.475a2.722 2.722 0 01-2.833-1.369c-.321-.9.332-1.828 1.541-2.181.373-.107 33.869-9.911 47.1-20.751l-.715.16a3.22 3.22 0 01-2.952-.77 1.44 1.44 0 01.214-2.213l3.39-2.758-18.1 2.908c-1.411.224-2.78-.385-3.111-1.358s.481-1.978 1.86-2.234c.15-.022 12.711-2.47 21.467-9.013l-12.016 3.047a3.221 3.221 0 01-3.122-.791 1.483 1.483 0 01.471-2.309l3.828-2.491-15.78 2.651a3.016 3.016 0 01-2.982-1.026 1.56 1.56 0 01.844-2.267l6.682-3.421h-10.114c-1.4 0-2.545-.78-2.6-1.775s.994-1.839 2.4-1.914c.2-.011 18.57-1.2 29.987-11.835l-2.608.385a3.1 3.1 0 01-2.78-.855 1.442 1.442 0 01.235-2.138l.438-.374-12.465 3.047a3.134 3.134 0 01-3.165-.9 1.545 1.545 0 01.791-2.341c.268-.15 27.4-14.219 32.063-27.081a103.432 103.432 0 005.431-27.3c.033-1.005 1.188-1.8 2.609-1.8s2.566.791 2.609 1.8a102.852 102.852 0 005.432 27.3c4.618 12.754 21.2 19.5 21.371 19.565 1.1.438 1.6 1.368 1.187 2.224a2.835 2.835 0 01-2.876 1.219l-6.628-.748 1.988 1.7a1.43 1.43 0 01.235 2.128 3.073 3.073 0 01-2.779.855l-7.046-1.058c11.921 11.974 32.394 18.121 32.618 18.185 1.144.342 1.8 1.208 1.551 2.074a2.546 2.546 0 01-2.555 1.486h-7.377l4.415 3.731a1.446 1.446 0 01.182 2.2 3.226 3.226 0 01-2.929.748l-9.451-1.989 2.854 1.85a1.488 1.488 0 01.47 2.32 3.179 3.179 0 01-3.112.78l-10.455-2.641c6.671 3.849 15.78 6.874 19.5 8.115 2.588.855 4.458 1.475 3.614 3.122s-3.165 1.219-4.555.962l-15.181-2.726 3.165 2.587a1.448 1.448 0 01.225 2.213 3.216 3.216 0 01-2.962.759l-9.109-1.978c10.606 8.617 34.158 16.539 43.6 19.49a2.678 2.678 0 01.652-1.807l4.352-4.137-10.969-2.427a2.236 2.236 0 01-1.39-2.234 2.461 2.461 0 011.219-2.438c.492-.192 44.656-17.416 59.282-32.907a1.852 1.852 0 01-.78-.813 3.331 3.331 0 01-.183-2.491l1.55-4.7-19.286 17.031a1.32 1.32 0 01-2.106-.513 3.268 3.268 0 01.033-3.122l2.95-4.811-10.5 4.33c-.749.321-1.529-.182-1.893-1.165a3.2 3.2 0 01.374-2.94l6.19-7.74-3.037 2.544a1.251 1.251 0 01-1.839-.214 3.128 3.128 0 01-.545-2.566l.534-2.47-13.62 9.045c-.716.47-1.551.15-2.009-.77a3.229 3.229 0 01.127-3.015l7.174-11.375-14.818-2.63a2.286 2.286 0 01-1.444-2.48c.043-1.251.738-2.245 1.6-2.277.16 0 14.743-.6 23.178-6.308l-7.403-4.372a2.77 2.77 0 01-.973-2.78c.193-1.144.94-1.924 1.742-1.817.225.032 21.361 2.694 29.069-8.606l-5.217-2.737a2.684 2.684 0 01-1.048-2.748c.182-1.165.93-1.956 1.732-1.882.492.075 10.883 1.112 16.849-10.188a1.582 1.582 0 01-1.2-.9 3.319 3.319 0 01-.213-2.448l.9-2.961-3.56 2.395a1.233 1.233 0 01-1.678-.278 3.036 3.036 0 01-.62-2.3l.4-3.389-10.883 7.473a1.32 1.32 0 01-1.935-.609 3.259 3.259 0 01-.118-2.887l1.806-3.924-10.979 1.914c-.812.15-1.571-.62-1.775-1.775a2.762 2.762 0 01.962-2.812c.235-.139 21.265-12.8 29.571-26.8l-.449.2c-.706.31-1.454-.1-1.86-.984a3.282 3.282 0 01.139-2.865l2.127-3.571-11.365 3.763c-.888.289-1.742-.492-1.957-1.753a2.627 2.627 0 011.176-2.887 31.831 31.831 0 0013.471-11.643l-7.548 3.934c-.727.385-1.55-.043-1.946-1.016a3.2 3.2 0 01.288-2.993l2.406-3.218-9.911 3.432c-.759.267-1.55-.289-1.871-1.326a3.1 3.1 0 01.534-2.929l4.191-4.415h-6.351c-.876 0-1.592-1.016-1.636-2.288s.632-2.373 1.508-2.48c.128-.021 11.653-1.54 18.827-15.288l-1.636.5c-.7.214-1.379-.235-1.742-1.1a3.307 3.307 0 01.138-2.758l.278-.492-7.826 3.934c-.769.385-1.614-.107-1.978-1.155a3.141 3.141 0 01.481-3.036c.181-.182 17.2-18.357 20.132-34.97a262.144 262.144 0 003.409-35.27c.022-1.294.749-2.32 1.636-2.32s1.615 1.026 1.636 2.32a266.052 266.052 0 003.41 35.27c2.909 16.475 13.321 25.188 13.428 25.274a2.985 2.985 0 01.738 2.865c-.257 1.09-1.016 1.775-1.808 1.572l-4.158-.952 1.251 2.181a3.311 3.311 0 01.149 2.758c-.364.877-1.059 1.315-1.743 1.112l-4.427-1.368a61 61 0 0020.474 23.488 2.728 2.728 0 01.973 2.673c-.15 1.112-.823 1.914-1.6 1.914h-4.629l2.769 4.822a3.275 3.275 0 01.118 2.844c-.4.877-1.145 1.283-1.839.973l-5.934-2.576 1.8 2.395a3.234 3.234 0 01.288 2.993c-.405.973-1.229 1.4-1.956 1.016l-6.553-3.421c4.18 4.971 9.9 8.884 12.231 10.477 1.635 1.112 2.8 1.924 2.277 4.052s-1.989 1.561-2.855 1.219l-9.535-3.507 1.988 3.336a3.316 3.316 0 01.139 2.865c-.406.9-1.165 1.294-1.86.984l-5.719-2.555c8.382 13.995 29.678 26.621 29.914 26.771a2.744 2.744 0 01.984 2.8c-.215 1.155-.963 1.924-1.787 1.785l-10.979-1.914 1.807 3.924a3.2 3.2 0 01-.225 3.047 1.268 1.268 0 01-2.1.214l-5.55-5.934.246 2.085a3.037 3.037 0 01-.62 2.3 1.233 1.233 0 01-1.678.278l-3.56-2.395.9 2.961a3.3 3.3 0 01-.225 2.459 1.411 1.411 0 01-1.592.845l-2.962-.866c6.628 10.039 19.832 5.827 19.982 5.773.855-.3 1.721.481 1.946 1.732a2.642 2.642 0 01-1.122 2.887l-6.65 2.854c7.794 11.108 28.738 8.478 28.963 8.446.716-.086 1.411.524 1.678 1.518a3.231 3.231 0 01.021.909c18.807-6.821 41.343-16.133 52.2-24.921a2.248 2.248 0 01-1.09-.866 2.791 2.791 0 01-.257-2.641l2.159-5.025-26.877 18.143a2.129 2.129 0 01-2.939-.545 2.775 2.775 0 01.053-3.325l4.105-5.121-14.636 4.608a2.193 2.193 0 01-2.641-1.24 2.755 2.755 0 01.534-3.133l8.629-8.243-4.245 2.7a2.1 2.1 0 01-2.566-.225 2.724 2.724 0 01-.749-2.737l.738-2.63-18.976 9.643a2.149 2.149 0 01-2.8-.823 2.766 2.766 0 01.171-3.218l10.007-12.1-20.655-2.8a2.488 2.488 0 01-2.01-2.651 2.42 2.42 0 012.224-2.416c.235 0 20.559-.641 32.319-6.725l-10.3-4.661a2.628 2.628 0 01-1.368-2.961 2.353 2.353 0 012.427-1.935c.321.032 29.775 2.865 40.53-9.162l-7.27-2.908a2.623 2.623 0 01-1.464-2.94 2.365 2.365 0 012.415-1.989c.685.064 15.171 1.176 23.478-10.862a2.2 2.2 0 01-1.657-.951 2.786 2.786 0 01-.31-2.619l1.25-3.143-4.95 2.544a2.1 2.1 0 01-2.352-.289 2.7 2.7 0 01-.855-2.448l.545-3.614-15.171 7.954a2.123 2.123 0 01-2.695-.641 2.784 2.784 0 01-.171-3.079l2.523-4.169-15.3 2.031a2.306 2.306 0 01-2.48-1.892 2.625 2.625 0 011.347-2.993c.332-.15 29.635-13.62 41.214-28.545l-.631.214a2.163 2.163 0 01-2.587-1.037 2.786 2.786 0 01.193-3.058l2.972-3.8-15.845 4.009a2.286 2.286 0 01-2.726-1.871 2.587 2.587 0 011.636-3.068c.128-.043 11.119-3.4 18.773-12.4l-10.509 4.18a2.165 2.165 0 01-2.726-1.08 2.776 2.776 0 01.406-3.186l3.357-3.421-13.813 3.656a2.234 2.234 0 01-2.609-1.422 2.726 2.726 0 01.738-3.111l5.848-4.7h-8.853a2.419 2.419 0 01-2.277-2.448 2.463 2.463 0 012.106-2.63 39.064 39.064 0 0026.236-16.282l-2.288.535a2.173 2.173 0 01-2.427-1.176 2.763 2.763 0 01.2-2.929l.385-.524-10.906 4.191a2.192 2.192 0 01-2.768-1.23 2.731 2.731 0 01.683-3.239c.236-.192 23.981-19.554 28.054-37.237a216.531 216.531 0 004.758-37.558 2.29 2.29 0 114.565 0 215.842 215.842 0 004.746 37.558c4.052 17.544 18.56 26.824 18.709 26.92a2.68 2.68 0 011.027 3.047 2.237 2.237 0 01-2.512 1.668l-5.794-1.016 1.742 2.331a2.8 2.8 0 01.2 2.94 2.193 2.193 0 01-2.426 1.176l-6.179-1.454c10.434 16.454 28.353 24.921 28.544 25.006a2.614 2.614 0 011.358 2.844 2.365 2.365 0 01-2.236 2.053h-6.456l3.87 5.121a2.792 2.792 0 01.149 3.036 2.168 2.168 0 01-2.556 1.037l-8.274-2.748 2.5 2.555a2.763 2.763 0 01.417 3.186 2.173 2.173 0 01-2.727 1.08l-9.151-3.635c5.837 5.292 13.813 9.451 17.063 11.151 2.266 1.187 3.9 2.042 3.165 4.308s-2.77 1.668-3.988 1.3l-13.272-3.729 2.769 3.549a2.751 2.751 0 01.192 3.047 2.167 2.167 0 01-2.576 1.048l-7.976-2.716c10.52 13.428 35.592 25.637 40.712 28.043V400.829s-5.228-58.437-52.557-86.736zm-1391.666 38.38a113.833 113.833 0 00-15.812-12.925 65.988 65.988 0 017.687 14.8c.5 1.379.92 2.748 1.294 4.095l-39.023-.684-17.223-21.087 10.926 21.393-48.43 24.44s-11.237 1.069-22.719 3.165c.673-.951 1.369-1.9 2.085-2.865 3.079-4.191 6.351-8.328 9.024-11.375s4.746-5 4.746-5-2.919 1.54-6.97 4.084-9.237 6.051-14.252 9.643a523.394 523.394 0 00-6.682 4.854c7.7-7.612 22.195-22.708 30.791-36.6 12.123-19.543 31.763-38.285 59.88-57.315 0 0 .245.951.716 2.48l-19.853 20.361 23.477-10.36c4.3 10.3 11.932 24.258 23.681 30.908 15.588 8.842 19.821 18.688 20.934 22.5a110.84 110.84 0 00-4.277-4.512zm152.37-50.857c-2.449-1.753-5.217-3.8-7.848-5.912a77.987 77.987 0 01-9.1-8.264 21.265 21.265 0 01-3.068-4.105 16.7 16.7 0 001.807 4.415 61.029 61.029 0 006.618 9.269c1.646 1.989 3.4 3.913 5.056 5.677l-47.789 7.879 1.849-17.042-7.986 16.5-25.98-6.6-3.207-9.9-2.865 8.852c-3.346-.235-9.4-.577-16.271-.609a249.678 249.678 0 003.09-3.4c6.082-6.639 11.139-13.5 11.139-13.5s-8.681 5.442-18.068 10.4a611.074 611.074 0 01-14.112 7.355 66.467 66.467 0 00-3.122.428s22.494-13.984 34.66-25.188c11.664-10.745 22.206-27.84 40.123-40.091l-10.57 17.287 21.062-7.163c5.581 7.334 13.32 16.347 21.157 21.564 14.808 9.868 6.083 19.426 27.477 31.474zm284.991-90.756a149.2 149.2 0 00-10.071-25.124 127.828 127.828 0 011.369 25.5c-.064 1.187-.15 2.373-.236 3.549l-32.96-4.415-22.943-26.867 4.875 27.284-114.16 34.53 1.016-14.775-9.344 15.833c-7.141-.706-24.087-2.16-41.781-2.085 4.074-3.2 8.329-6.671 12.434-10.221 14.989-12.786 27.711-26.172 27.711-26.172s-17.437 10.755-36.531 20.591c12.615-9.077 26.064-20.676 31.582-32.041 11.611-23.948 42.614-31.432 59.453-48.249s31.335-30.576 31.335-30.576 1.177 1.294 3.271 3.421c-.438.481-.887.962-1.39 1.507-2.62 2.855-5.912 6.693-9.013 10.573a182.094 182.094 0 00-11.279 15.684s8.842-6.714 18.549-12.861a343.763 343.763 0 0111.365-6.981c11.782 10.8 31.5 26.621 53.7 35.259 32.362 12.594 34.148 44.657 34.19 50.793-.351-1.38-.736-2.767-1.142-4.157zM858.011 87.57c5.09 4.084 12.252 9.387 19.865 14.486a363.734 363.734 0 008.189 5.356l-78.109-8.125-10.36-23.6-4.985 24.83-64.092 22.964-15.1-19.308 5.762 18.688c-15.94-2.3-54.011-6.981-89.622-5.207.544-.417 1.058-.823 1.625-1.229a105.186 105.186 0 0114.7-8.724c2.2-1.123 4.17-1.967 5.549-2.577s2.17-.951 2.17-.951l-2.64.353c-1.689.235-4.137.545-7 1.069a179.9 179.9 0 00-20.848 4.811 165.157 165.157 0 00-17.395 6.19 100.272 100.272 0 0138.7-15.748c27.262-4.725 48.74-31.164 82.995-46.089s59.132-24.044 77.4-37.836c0 0 1.283.577 3.292 1.646-.234.225-.416.406-.674.652a119.967 119.967 0 01-11.364 9.269 179.817 179.817 0 01-19.94 12.348 263.645 263.645 0 0025.819-8.574c6.147-2.427 12.06-5.1 16.411-7.313 7.89 5.7 17.021 14.326 21 25.723 5.945 17.052 42.134 42.9 58.106 53.68a516.816 516.816 0 01-13.577-5.987c-8.949-4.095-17.577-8.446-23.852-11.856-6.308-3.389-10.264-5.816-10.264-5.816s3.096 2.824 8.239 6.875zm224.641 44.592l-9.077-16.4.727 13.663-27.9-2.1.011-.107c.214-3.614.438-7.216.438-7.216s-3.806 2.352-7.815 4.811a45.455 45.455 0 00-18.293-7.7l45.063-17.319s.813.289 2.17.845l-17.672 8.628 24.012-5.816c7.73 3.721 18.634 10.092 23.3 18.186 7.612 13.182 21.339 28 21.339 28zm292.839 126.336l-20.485-29.251-.544 19.821-29.808-26.065 13.278-24.247-21.98 19.094a228.051 228.051 0 00-52.066-11.279 268.98 268.98 0 007.035-3.72c8.756-4.758 16.817-9.846 16.817-9.846s-9.537 4.148-19.49 7.837a359.395 359.395 0 01-13.834 4.832l-.481.15c-1.743-.1-3.475-.2-5.271-.267 0 0 40.06-15.481 54.418-26.5s38.146-19.693 38.146-19.693.513.331 1.38.909c-2.855 1.272-5.891 2.7-8.906 4.3a112.6 112.6 0 00-15.053 9.419 181.009 181.009 0 0119.532-5.046 200.478 200.478 0 0113.364-2.213c10.841 8.318 26.76 22.473 30.1 36 5.142 20.89 42.422 66.274 42.422 66.274z"/><path data-name="Path 1115" d="M1638.436 1441.839l1.165-.257s-6.436.257-18.517.748c-1.507.075-3.1.15-4.79.235-5.046.246-10.872.492-17.426.8l-6.8.331c-7.035.353-14.786.77-23.211 1.3-16.849.994-36.4 2.063-58.277 3.528-3.646.246-7.355.492-11.129.759s-7.612.545-11.515.834c-31.282 1.561-66.541 3.325-104.933 5.73-14.251.994-29.09 1.871-44.2 2.726-4.661.267-9.226.534-13.963.791 3.582-1.08 7.013-2.2 10.467-3.314 77.445-24.921 122.113-55.839 129.886-90.511.353-1.55.6-3.09.791-4.629 2.587-21.125-9.739-40.615-33.1-51.648-2.192-1.037-4.565-2.042-7.1-3s-5.239-1.914-8.115-2.822c-4.309-1.358-9.119-2.609-14.176-3.827-1.689-.4-3.292-.823-5.057-1.208a51.451 51.451 0 00-4.511-10.06c-8.211-14.476-22.579-22.943-40.477-22.986h-.106c-18.656 0-35.163 9.3-40.423 22.43q-22.628-1.459-48.741-2.2-19.581-.561-41.171-.706-7.2-.048-14.615-.043c-10.5 0-20.868.075-30.982.192q-3.784.048-7.526.107-7.473.112-14.711.257c-12.049.246-23.542.545-34.222.887-32.03.994-56.737 2.256-67.279 2.833l-1.924.107c-2.3.128-3.56.2-3.656.2-6.394.4-11.59 3.133-14.091 8.467a15.433 15.433 0 00-.909 2.459c-.107.171-.257.417-.461.727a25.434 25.434 0 01-1.956 2.48 29.841 29.841 0 01-1.561 1.657c-.022-.984-.043-2.021-.054-3.047.385-1.572.77-3.165 1.166-4.843 4.426-18.7 2.619-45.544-1.572-72.132a508.167 508.167 0 00-3.122-17.6c-2.822-14.476-6.126-28.31-9.247-40.038-.256-.951-.512-1.85-.769-2.78q-.8-4.234-1.658-8.5c-4.4-21.831-10.413-39.664-17.3-54.289a162.9 162.9 0 00-8.2-15.3 128.2 128.2 0 00-16.411-21.7c-16.667-17.565-33.933-24.429-45.522-27.08-.214-1.112-.439-2.427-.684-3.966s-.493-3.314-.749-5.346c-.3-2.309.31-7.58.888-12.69 1.089-9.451 2.576-22.462.716-36.285-2.385-17.779-10.317-36.906-31.785-51.542a51.846 51.846 0 00-13.021-6.2c-1.187-.385-2.384-.77-3.625-1.09a65.614 65.614 0 00-16.4-2.085c-2.02 0-4.051.086-6.094.246a86.239 86.239 0 00-26.15 6.425 85.315 85.315 0 00-7.73 3.688 78.524 78.524 0 00-7.248 4.373q-2.583 1.78-4.993 3.753a65.636 65.636 0 00-8.425 8.286 55.635 55.635 0 00-8.446 13.546 49.4 49.4 0 00-1.668 4.287 49.947 49.947 0 00-2.331 10.285 459.863 459.863 0 00-1.069 10.445c-.353 3.966-.631 8.05-.706 12.241a96.724 96.724 0 002.181 23.285c.235 1.026.513 2.053.791 3.068a71.348 71.348 0 0015.5 28.4 78.582 78.582 0 005.656 5.656 97.116 97.116 0 0014.358 10.68c3.795 2.341 6.554 4.2 8.221 7.4a13.3 13.3 0 01.866 2.085 21.791 21.791 0 01.909 5.463 4.929 4.929 0 01-.117 1.069 14.74 14.74 0 01-.385 1.486 853.78 853.78 0 00-11.568 5.645c-5.9 2.94-11.845 6-17.105 8.916a134.234 134.234 0 00-13.076 8c-2.2 1.6-4.168 3.068-5.975 4.415-12.466 9.291-14.722 10.969-42.979 13.257a199.199 199.199 0 00-17.79 2.234c-1.786.31-3.507.642-5.175.973-5.345 1.069-10.145 2.256-14.679 3.41a487.48 487.48 0 00-3.324.866c-8.071 2.085-14.882 3.849-22.451 4.6a77.744 77.744 0 01-7.911.4 95.885 95.885 0 01-12.926-.93 9.856 9.856 0 01-1.379-.973 25.081 25.081 0 01-.844-.684l-.781-.652c-2.875-2.427-6.81-5.752-12.434-7.355a104.917 104.917 0 00-18.752-3.763c-1.668-.15-3.261-.246-4.725-.246a23.924 23.924 0 00-9.045 1.55 13.877 13.877 0 00-8.853 11l-.01.128-.011.118-6.756-2.651-5.8-2.277-8.424-3.3a58.48 58.48 0 01-11.526-6c-7.793-5.271-13.257-11.942-19.212-19.885-1.7-2.267-3.443-4.64-5.3-7.11s-3.806-5.046-5.934-7.719-4.436-5.431-6.981-8.3a189.869 189.869 0 00-13.289-13.492 230.516 230.516 0 00-25.081-19.864 382.286 382.286 0 00-47.618-27.615c-15.609-7.762-33.773-15.812-55.006-24.151a527.867 527.867 0 00-6.254-2.406c-.492-.192-.984-.374-1.465-.556q-6.093-2.293-11.536-4.084c-.427-.15-.866-.289-1.294-.428q-5.371-1.732-10.167-2.887c-.384-.086-.759-.182-1.122-.267-1.56-.353-3.1-.674-4.576-.93l-.074-.011a60.025 60.025 0 00-4.319-.577l-1.038-.1a55.46 55.46 0 00-3.945-.192h-.16c-1.122 0-2.224.054-3.3.139a27.96 27.96 0 00-1.005.118 33.187 33.187 0 00-3.312.524c-.694.15-1.379.331-2.063.524-.332.1-.673.182-1 .289a26.369 26.369 0 00-2.6.973l-.3.118a29.016 29.016 0 00-2.758 1.4c-.3.171-.6.364-.9.545-.609.385-1.219.78-1.818 1.208-.332.235-.662.47-.983.727-.588.449-1.166.93-1.743 1.422-.3.257-.6.5-.887.77a45.432 45.432 0 00-2.277 2.267l-.256.257a55.084 55.084 0 00-2.427 2.854c-.278.331-.545.706-.812 1.048-.545.727-1.1 1.465-1.646 2.245-.288.417-.588.845-.876 1.283-.546.8-1.081 1.646-1.615 2.5-.267.438-.535.855-.8 1.294q-1.108 1.844-2.2 3.849l-.193.353c-.78 1.422-1.55 2.919-2.309 4.469a73.671 73.671 0 00-.759 1.572q-.818 1.684-1.636 3.464c-.278.62-.567 1.251-.845 1.882-.555 1.23-1.1 2.512-1.657 3.806l-.759 1.785a286.27 286.27 0 00-2.385 5.891l-.022.043a215.488 215.488 0 00-7.377 21.778 100.024 100.024 0 00-2.683 12.5 60.051 60.051 0 00-.663 8.093 40.15 40.15 0 00.417 6.115c1.411 9.665 6.426 16.838 15.149 23.189s21.147 11.867 37.386 18.239a888.27 888.27 0 0014.293 5.452c1.465.545 2.887 1.048 4.33 1.572a599.355 599.355 0 009.291 3.336c1.6.556 3.175 1.1 4.746 1.636q4.265 1.46 8.382 2.8c1.465.481 2.94.962 4.384 1.422 3 .952 5.933 1.85 8.82 2.716 1.015.31 2.074.641 3.078.941q5.743 1.684 11.162 3.133c.844.235 1.647.428 2.48.641a458.52 458.52 0 008.093 2.053c1.22.3 2.406.567 3.6.845 2.2.5 4.362.994 6.468 1.443 1.208.257 2.4.513 3.582.748q3.142.642 6.168 1.187c1.027.192 2.074.4 3.079.567 2.566.449 5.057.844 7.495 1.2a43.6 43.6 0 001.112.182c2.791.4 5.473.738 8.093 1.026.813.1 1.593.16 2.385.246 1.806.182 3.58.353 5.3.492.887.075 1.764.128 2.641.192 1.592.107 3.164.2 4.694.267.822.043 1.646.086 2.458.107 1.625.064 3.207.1 4.768.107.61.011 1.24.032 1.839.032l.523.011c1.979 0 3.9-.032 5.773-.086l.139-.011c1.988-.064 3.9-.16 5.762-.267.631-.043 1.23-.1 1.839-.139 1.273-.1 2.535-.182 3.753-.3.674-.064 1.337-.128 1.989-.2 1.132-.118 2.245-.235 3.335-.363.63-.075 1.262-.16 1.892-.235 1.092-.15 2.16-.289 3.208-.449.556-.075 1.122-.16 1.668-.235 1.164-.182 2.308-.363 3.432-.556.384-.064.769-.128 1.144-.193 3.528-.6 6.831-1.219 10.006-1.807.738-.139 1.465-.267 2.182-.406.62-.107 1.218-.214 1.827-.321.748-.139 1.487-.267 2.224-.4.556-.086 1.112-.182 1.657-.267.769-.128 1.518-.235 2.266-.342.5-.075 1-.15 1.507-.214a65.858 65.858 0 012.492-.3c.4-.043.8-.1 1.2-.139 1.2-.107 2.4-.2 3.6-.257.224-.021.449-.011.684-.021a49.017 49.017 0 012.812-.053c1.519.011 3.047.064 4.576.192.3.032.6.075.9.107 1.25.128 2.5.3 3.774.513.5.086 1.015.193 1.517.3 1.144.225 2.309.5 3.475.823.5.139.994.257 1.507.406a63.472 63.472 0 015.068 1.732l2.16.845c.961.385 2.009.791 3.143 1.24l5.9 2.309c9.622 3.785 23.05 9.055 39.321 15.438a16.923 16.923 0 002.716 6.874 15 15 0 005.142 4.7c9.259 5.185 20.815 8.521 34.949 10.1 4.715.535 9.707.866 15.011 1.005 11.75 4.608 24 9.419 36.563 14.347 8.05 3.165 16.251 6.383 24.5 9.622 15.673 6.147 31.571 12.391 47.382 18.592 3.668 1.443 7.3 2.865 10.948 4.3 11.108 4.362 22.13 8.692 32.918 12.915.3 3.8.6 7.494.92 11.012a81.831 81.831 0 01.321 9.355 97.277 97.277 0 01-.61 8.809c-.631 5.7-1.647 11.055-2.6 16.069a141.327 141.327 0 00-2.266 14.668 50.519 50.519 0 00-.183 4.554q-11.674-2.5-23.627-5.3c-23.883-5.559-48.42-11.856-72.677-18.079-31.956-8.2-63.132-16.2-92.542-22.6-16.806-3.667-33.035-6.81-48.5-9.162q-5.806-.882-11.462-1.625-11.3-1.459-21.98-2.256t-20.645-.8c-52.439 0-95.546 6.842-137.241 13.471-25.84 4.095-52.226 8.285-81.114 10.851q-8.659.77-17.651 1.326a607.804 607.804 0 01-37.461 1.165 446.753 446.753 0 01-52.311-3 493.11 493.11 0 01-14.85-1.978 52.414 52.414 0 00-2.513-7.056c-6.885-15.662-20.88-25.53-39.1-27.016a55.798 55.798 0 00-4.6-.192c-.492 0-.952.075-1.443.085-1.015.032-2 .107-3 .182a56.353 56.353 0 00-3.806.438 48.7 48.7 0 00-2.865.524c-1.23.267-2.416.567-3.592.909-.909.257-1.8.534-2.673.845a45.877 45.877 0 00-3.325 1.347c-.822.363-1.636.716-2.416 1.123-1.059.545-2.042 1.165-3.025 1.786-.7.449-1.411.866-2.075 1.347a34.56 34.56 0 00-2.683 2.256c-.556.5-1.155.962-1.668 1.5a29.537 29.537 0 00-2.341 2.855c-.374.492-.8.941-1.133 1.443a25.135 25.135 0 00-2.491 4.79l-.044.15-1.657-.032c-.556-.021-1.111-.043-1.668-.043q-3.5 0-6.917.182c-2.288.118-4.534.3-6.767.535a115.889 115.889 0 00-24.526 5.4c-1.325.438-2.651.919-3.988 1.422-2.512.93-5.035 1.967-7.558 3.09-.942.428-1.892.8-2.833 1.251a17.417 17.417 0 00-3.229 1.978 17.241 17.241 0 00-6.072 9.259c-.129.492-.353 1.465-.6 2.886a70.03 70.03 0 00-.9 13.45v.011a87.431 87.431 0 00.823 10.007 99.222 99.222 0 004.383 18.314 127.367 127.367 0 0020.378 36.98q3.511 4.538 7.676 9.162 2.084 2.309 4.329 4.619c19.533 20.088 48.8 40.744 92.36 59.645q5.02 2.181 10.307 4.33c7.943 3.229 16.379 6.393 25.231 9.494a607.19 607.19 0 0021.307 7.067q6.367 1.988 13.032 3.924c7.954 2.32 16.272 4.565 24.857 6.767 1.936.492 3.88.984 5.848 1.476 38.029 9.461 82.193 17.758 133.564 24.4-9.644.4-19.233.781-28.653 1.165q-33.05 1.4-64.178 2.716-31.094 1.3-59.977 2.523c-19.233.887-37.675 1.732-55.208 2.534q-6.574.3-12.979.6-12.542.577-24.376 1.112c-4.212.192-8.371.385-12.445.577l-.47.011q-17.062.658-32.49 1.422l-.983.043q-15.316.738-28.9 1.443c-6.361.321-12.445.609-18.2.877l-.364.011c-5.484.235-10.69.481-15.577.727-2.513.118-4.929.246-7.281.374q-6.832.369-12.743.706l-.673.032c-5.913.331-11.13.609-15.568.791l-4.029.224c-1.411.086-2.738.16-3.945.225-1.144.064-2.2.118-3.175.171l-4.565.257-.182.011c-1.71.1-2.6.139-2.6.139s6.393.866 18.4 2.138c12.017 1.24 29.635 3.261 52.076 5.132 11.439.994 24.152 2.1 38 3.2q9.414.754 19.511 1.5l1.593.118q10.6.77 21.917 1.5 5.87.369 11.932.77c12.113.78 24.771 1.6 37.943 2.395s26.867 1.561 41.021 2.235q7.072.337 14.3.631 14.465.673 29.518 1.3t30.652 1.187q15.6.449 31.709.909t32.693.93c11.055.363 22.259.577 33.6.748s22.826.278 34.436.438q17.241.257 34.843.353c11.963.085 24.044.139 36.221.224 6.03 0 12.155-.053 18.239-.085 6.189-.021 12.337-.032 18.57-.075q18.216-.144 36.67-.331c6.03-.053 12.124-.128 18.185-.192 18.3-.171 36.714-.4 55.273-.973l-41.129 2.587c-7.4.47-14.732.93-21.96 1.39q-20.43 1.283-39.931 2.512c-19.49 1.229-38.231 2.406-56.1 3.539q-23 1.556-43.993 2.983-10.473.706-20.4 1.379c-9.921.673-19.425 1.326-28.459 1.935q-9.044.609-17.448 1.187c-11.215.759-21.564 1.454-30.983 2.1l-6.885.47c-4.639.288-9 .6-13.118.887-3.678.267-7.131.534-10.36.78-1.881.139-3.71.289-5.442.417q-2.406.193-4.619.353-4.426.337-8.029.567l-14.722 1.133 3.752.353 4.608.438q2.742.256 6.34.6c3.6.289 7.825.663 12.658 1.058 1.6.139 3.282.278 5.024.417 6.96.567 14.957 1.165 23.916 1.721 2.245.139 4.544.3 6.907.449 16.517 1.069 35.921 2.277 57.785 3.2 6.255.257 12.7.545 19.341.823 19.917.855 41.545 1.721 64.627 2.181l23.553.46q12.022.235 24.451.492c16.528.107 33.623.235 51.189.353h.182q6.848.048 13.77.043c2.619 0 5.3-.021 7.932-.032q5.132-.016 10.3-.043 8.1-.032 16.336-.118l9.739-.1c6.084-.064 12.241-.15 18.411-.235 2.822-.032 5.634-.064 8.467-.107l21.329-.321 4.64-.064q14.418-.4 29.069-.823t29.5-.834c6.6-.192 13.268-.406 19.929-.62-23.916 1.914-46.688 3.731-67.835 5.431-18.036 1.486-34.959 2.876-50.537 4.159q-7.793.641-15.128 1.251-7.328.626-14.2 1.208c-9.141.77-17.62 1.5-25.381 2.149q-5.821.5-11.087.941l-5.132.46-4.843.427c-9.386.834-17.01 1.518-22.665 2.01-3.763.353-6.661.631-8.607.813l-2.95.278s2.266.2 6.585.535c.716.053 1.5.118 2.32.171 7.505.567 19.532 1.368 35.408 2.17q5.293.257 11.14.535c11.7.556 25.017 1.112 39.761 1.5 6.115.16 12.562.331 19.158.5 3.913.1 7.848.193 11.921.289 1.6.032 3.293.053 4.917.085 3.924.075 7.847.15 11.91.2 2.031.021 4.148.021 6.211.032 3.614.032 7.185.075 10.895.075h1.015c12.1.064 24.708.128 37.751.2q19.564-.176 40.391-.353l.332-.011c13.759-.15 27.882-.46 42.316-.855q21.825-.577 44.528-1.336 11.321-.5 22.836-1.016t23.178-1.037l1.112-.053c15.191-.695 30.554-1.39 46.014-2.48q23.765-1.491 47.842-3.143 24.055-1.7 48.2-3.763 24.1-2.117 48.141-4.234c16-1.475 31.913-3.325 47.714-4.982 15.791-1.679 31.453-3.357 46.913-5.228q21.971-2.854 43.352-5.645l2.341-.3c.888-.128 1.754-.235 2.641-.353 14.081-1.914 27.967-3.678 41.514-5.677q21.584-3.4 42.165-6.65c13.686-2.245 27.006-4.426 39.878-6.543 12.872-2.138 25.241-4.715 37.141-6.906 23.8-4.415 45.554-8.831 64.819-12.765 19.223-4.2 35.912-8.211 49.671-11.439 10.318-2.373 18.945-4.544 25.712-6.233 2.256-.566 4.308-1.069 6.136-1.518 7.334-1.871 11.248-2.865 11.248-2.865s-4.031.31-11.578.909c-3.775.342-8.425.716-13.9 1.176-1.359.118-2.78.235-4.244.364-4.405.4-9.248.834-14.508 1.369q-5.26.513-11.086 1.069c-7.751.748-16.229 1.572-25.338 2.523-4.554.481-9.28.994-14.145 1.539-17.116 1.5-36.231 3.2-56.78 5.281-2.93.3-5.806.577-8.8.9q-9 .962-18.356 1.85c-12.487 1.187-25.456 2.33-38.819 3.539q-10.022.9-20.345 1.871-20.591 2-42.272 4.116c-5.3.47-10.67.941-16.069 1.422q-9.542.834-19.19 1.689c5.26-.738 10.392-1.465 15.588-2.192l15.6-2.2c1.112-.16 2.192-.321 3.3-.481 16.283-2.395 32.18-4.736 47.543-6.992 16.422-2.416 32.212-5.335 47.393-7.911 30.352-5.249 58.106-10.413 82.685-15.01 3.068-.609 6.094-1.229 9.055-1.839a1759.42 1759.42 0 0010.211-2.128q7.039-1.475 13.63-2.9c11.141-2.395 21.351-4.651 30.513-6.639 17.565-3.753 31.3-7.088 40.68-9.194 7.024-1.678 11.589-2.758 13.438-3.2l.919-.225-2.127.139c-1.9.118-5.089.31-9.43.577l-3.185.193c-1.112.085-2.31.171-3.539.257-9.408.652-22.25 1.433-38.05 2.769-17.886 1.454-39.6 3.09-64.414 5.474-18.688 1.336-39.15 2.8-61.11 4.544q-10.986.866-22.452 1.828-11.45 1.042-23.381 2.01-11.915.962-24.29 1.892c-16.485 1.251-33.538 2.491-51.039 3.838q-26.253 2.133-53.851 4.362l-5.976.428c5.388-.641 10.851-1.294 16.176-1.924q16.454-2.069 32.468-4.062 15.989-2 31.5-3.945c10.317-1.272 20.452-2.737 30.395-4.255l29.241-4.373c38.189-5.773 73.137-11.493 104.088-16.593 15.449-2.769 29.891-5.5 43.223-8.072s25.584-5 36.639-7.163q8.307-1.588 15.684-3.079 3.688-.737 7.142-1.443c6.906-1.422 13.107-2.726 18.548-3.87q5.453-1.139 9.889-2.042c1.476-.31 2.865-.609 4.159-.9a1581.606 1581.606 0 0112.789-2.774zM739.704 1314.23c21.788 5.57 43.555 11.076 64.756 15.983 16.966 3.924 33.581 7.462 49.564 10.349q5.981 1.09 11.856 2.042c19.564 3.186 38.039 5.249 54.878 5.656a321.32 321.32 0 01-19.822 1.475c-5.121.224-10.574.4-15.812.449-5.667.011-11-.085-16.614-.363-22.558-1.09-46.762-4.2-70.8-8.285a948.005 948.005 0 01-102.249-22.719c-10.1-2.865-19.6-5.773-28.289-8.649-2.16-.738-4.276-1.475-6.34-2.181a41702.66 41702.66 0 01-17.255-5.944c-3.507-1.229-6.8-2.384-9.835-3.453-1.519-.534-2.983-1.037-4.373-1.529l-3.977-1.39c-1.272-.46-2.48-.887-3.613-1.294s-2.191-.791-3.186-1.144c-1.967-.706-3.656-1.3-5.013-1.8l-1.807-.652-2.373-.844s1.2.994 3.453 2.876a103.141 103.141 0 0010.433 7.217 173.263 173.263 0 0017.3 9.323c1.722.8 3.5 1.6 5.346 2.416 5.527 2.406 11.61 4.811 18.142 7.238 34.853 12.958 82.418 26.909 131.062 36.67 18.26 3.528 36.66 6.522 54.632 8.5a477.367 477.367 0 0017.8 1.636c5.891.428 11.888.663 17.32.77 5.859.043 11.257.032 16.7-.16 10.809-.385 21.04-1.219 30.481-2.469q7.072-.93 13.546-2.16 3.224-.625 6.276-1.294a125.1 125.1 0 0025.6-8.243 79.887 79.887 0 007.142-3.635 65.88 65.88 0 002.737-1.711c-1.069.962-2.042 1.85-2.9 2.651s-1.6 1.508-2.235 2.106c-1.25 1.2-2.009 1.956-2.192 2.138a6.4 6.4 0 00-1.859 4.554 6.426 6.426 0 0010.99 4.5c.075-.064 1.55-1.529 4.074-3.87.844-.781 1.807-1.668 2.875-2.62 3.3 2.277 7.12 3.475 11.183 1.957 12.519-4.64 33.516-13.439 35.665-24.162a16.253 16.253 0 00-1.23-9.333c2.245-1.026 4.49-2 6.747-2.822a6.453 6.453 0 004.223-5.72 6.421 6.421 0 00-5.207-6.618 19.562 19.562 0 001.636-3.122s29.219-1.775 71.748-3.111c2.128-.064 4.287-.139 6.479-.192 4.383-.139 8.895-.257 13.5-.374 11.546-.289 23.766-.524 36.435-.684 10.124-.118 20.527-.192 31.089-.192 6.918 0 13.91.032 20.923.1a49.864 49.864 0 01-1.881 3.271 71.854 71.854 0 01-8.788 10.926 110.7 110.7 0 01-14.3 12.38c-11.376 8.488-26.567 16.87-44.86 24.44s-39.686 14.3-63.376 20.26c-23.723 5.837-49.778 10.873-77.542 14.957-6.916 1.165-14.006 1.924-21.136 2.886s-14.368 1.871-21.714 2.577q-11 1.187-22.226 2.384-11.259 1.01-22.708 2.042c-30.566 2.523-62.244 4.18-94.466 5.442q-12.092.433-24.258.877-12.187.241-24.429.492c-8.157.246-16.336.31-24.525.353s-16.389.032-24.579.139c-16.208.267-32.854-.043-49.19-.032-16.357-.171-32.522-.6-48.644-.941-32.212-1.2-63.954-2.1-94.531-4.565-15.32-.919-30.288-2.619-45-3.8-14.658-1.593-29.026-3.058-42.9-5.078-27.786-3.913-53.936-8.4-77.713-14.069q-8.885-2.165-17.352-4.48-8.435-2.326-16.4-4.822c-10.606-3.336-20.5-6.917-29.6-10.8-18.154-7.772-33.164-16.464-44.069-25.487a98.128 98.128 0 01-13.184-13.44 57.518 57.518 0 01-7.216-11.953 45.536 45.536 0 01-1.423-3.966c4.17.107 8.415.182 12.819.182 19.907 0 38.338-.941 55.839-2.47s34.051-3.656 50.194-6.008c53.818-7.858 103.084-18.335 167.432-18.335 28.417 0 62.629 5.559 99.534 13.588 12.3 2.683 24.889 5.645 37.675 8.756s25.744 6.4 38.777 9.74q13.037 3.314 26.13 6.687zm94.434-256.575c-.674-.428-1.326-.844-1.977-1.24a90.493 90.493 0 01-10.211-7.27 67.683 67.683 0 01-7.9-7.687q-1.716-1.957-3.175-3.977a54.456 54.456 0 01-8.275-16.721 63.445 63.445 0 01-1.925-8.788 105.586 105.586 0 01-.524-22.847l1.261-.246c2.534-.524 5.5-.609 8.65-.984a78.328 78.328 0 0110.2-.609c3.635.1 7.42-.3 11.354.182 3.914.428 7.954.4 12 1.23a119.282 119.282 0 0112.155 2.32l6.009 1.454q2.936.946 5.838 1.86c3.892 1.112 7.548 2.737 11.129 4.084 3.518 1.518 6.885 3.047 10.007 4.619 3.1 1.636 6.019 3.133 8.6 4.736.577.331 1.079.652 1.625.984a67.391 67.391 0 01-5.281 20.046c-11.344 25.883-36.607 38.744-47.3 43.181-2.649-7.334-7.609-11.311-12.26-14.326zm-14.369-75.318a81.1 81.1 0 00-10.285 2.266c-3.132.877-6.05 1.422-8.531 2.352l-.663.246c.32-4.041.737-8.115 1.187-12.2a35.557 35.557 0 011.1-5.656 40.732 40.732 0 018.147-15.074 60.745 60.745 0 0119.18-14.829c30.192-11.514 45.576 2.855 52.45 41.2 1.465.47 2.9.983 4.267 1.465a49.777 49.777 0 016.415 2.587c.983.449 1.914.866 2.8 1.283s1.7.823 2.469 1.24l2.106 1.208 1.786 1.037c.534.31 1.016.6 1.433.845 1.23.748 1.9 1.176 1.9 1.176l-.246-.086c-.332-.107-.973-.31-1.892-.631-.449-.16-.974-.342-1.551-.556-1.154-.417-2.565-.941-4.169-1.529-1.636-.5-3.485-1.058-5.5-1.679q-3-.994-6.51-1.85c-1.165-.289-2.352-.6-3.571-.909s-2.458-.6-3.741-.845c-1.4-.289-2.887-.556-4.33-.834-1.154-.214-2.277-.471-3.453-.609q-2.806-.433-5.644-.866c-.364-.043-.717-.107-1.08-.15l-6.479-.535a127.135 127.135 0 00-13.192-.417c-4.341-.192-8.617.481-12.7.695-4.101.148-8.004 1.163-11.703 1.655zm192.428 350.089c3.914-2.7 7.88-5.335 11.793-7.494a99.8 99.8 0 0110.969-5.356c1.657-.663 3.2-1.23 4.575-1.689s2.587-.812 3.592-1.09c2-.567 3.153-.823 3.153-.823s-1.026.62-2.844 1.593c-1.86.887-4.341 2.48-7.377 4.212-1.5.919-3.112 1.914-4.811 2.972-1.732 1-3.432 2.277-5.293 3.41s-3.646 2.534-5.581 3.763c-1.9 1.261-3.774 2.662-5.687 3.988-7.591 5.4-15.021 11.087-20.645 15.331-4.95 3.72-8.457 6.361-9.248 6.96l-.182.128s.182-.235.524-.684.845-1.08 1.518-1.871c1.368-1.55 3.271-3.838 5.762-6.372s5.473-5.431 8.852-8.328c3.344-2.941 7.113-5.827 10.93-8.649zm377.245 84.31c-17.673 9-40.07 17.982-66.36 26.418-11.75 3.763-24.291 7.377-37.536 10.819s-27.2 6.735-41.77 9.836c-8.948.534-17.95 1.069-27.069 1.6 5.346-.962 10.648-1.946 15.855-2.961q12.461-2.438 24.354-4.993 17.817-3.833 34.244-7.954 10.92-2.759 21.179-5.645 5.115-1.444 10.06-2.93c26.333-7.944 48.8-16.507 66.563-25.156a223.659 223.659 0 0027.625-15.887 128.1 128.1 0 0011.1-8.435 84.905 84.905 0 008.692-8.382l2.758-3.1-2.7 3.143a85.147 85.147 0 01-8.553 8.553c-7.94 7.047-20.792 16.04-38.442 25.074zM108.846 1284.52c2.309 0 4.629.075 6.97.193a35.835 35.835 0 005.977 3.336c7.206 3.261 17.854 6.233 29.935 8.04 15.245 2.288 28.844 2.138 36.446.032a474.355 474.355 0 0062.371 5.955 44.1 44.1 0 001.112 4.373 59.313 59.313 0 006.211 13 89.725 89.725 0 0012.422 15.128c10.542 10.221 25.286 20.569 43.492 29.721 18.164 9.226 39.664 17.48 63.622 24.5 11.664 3.432 23.916 6.628 36.659 9.569s25.98 5.613 39.632 8.018c-36.468-4.116-69.919-8.948-100.528-14.251-38.263-6.628-72.1-13.995-101.865-21.617q-17.849-4.587-33.783-9.248c-111.583-32.608-153.951-66.509-153.951-66.509a102.187 102.187 0 0145.278-10.24zm45.447-25.637a37.37 37.37 0 012.822.331c7.323 1.155 19.212 5.153 25.338 18.581-6.736-1.165-13.182-2.363-19.437-3.539-9.835-1.839-19.008-3.549-27.871-4.8-2.962-.417-5.88-.78-8.788-1.091 5.1-6.403 16.315-10.434 27.936-9.482zm1070.891 52.707c.652-1 1.251-1.989 1.8-2.929s1.037-1.849 1.476-2.715a47.918 47.918 0 001.721-3.838c14.828.15 29.774.449 44.506.973q11.049.385 21.884.93c7.216.364 14.337.78 21.318 1.272a43.347 43.347 0 0010.146 4.319 109.373 109.373 0 0014.85 3.357c3.7.6 7.633 1.08 11.717 1.422 12.476 1.048 23.744.567 31.538-1.037 4.01.759 7.869 1.561 11.547 2.406s7.175 1.753 10.477 2.7a116.978 116.978 0 0117.406 6.34c8.061 3.806 14.358 8.767 18.42 14.583q-3.3 1.107-8.018 2.619-4.715 1.491-10.84 3.325c-10.221 3.047-23.4 6.735-39.664 10.83s-35.59 8.585-58.1 13.236q-13.5 2.79-28.533 5.634-7.522 1.427-15.417 2.844-15.812 2.854-33.175 5.7-8.692 1.411-17.768 2.812c-36.318 5.623-77.372 11.044-123.354 15.844s-96.871 9-152.85 12.166c16.828-2.128 33.271-4.629 49.2-7.366q7.969-1.379 15.768-2.812a682.032 682.032 0 0078.184-18.891 410.3 410.3 0 0063.495-24.686 207.585 207.585 0 0039.834-24.964q2.245-1.828 4.3-3.646a94.5 94.5 0 0018.132-20.428zm132.12-19.832q-14.064-1.668-30.116-2.94a20.466 20.466 0 012.095-2.235c5.432-4.993 14.476-8.35 24.066-8.35h.085c.844 0 1.818.032 2.886.118s2.256.214 3.5.428c7.473 1.261 17.48 5.207 23.573 16.732q-12.046-2.069-26.088-3.753zm-505.078 31.036q-5.034-.946-10.155-1.978c-1.54-12.38 7.451-31.924 5.11-57.325-1.828-19.843-2.865-44.379-7.869-69.353a319.446 319.446 0 01-2.277-12.819 658.669 658.669 0 0076.569-8.927q4.282-.77 8.585-1.636c11.493-2.3 23.061-5.057 34.1-8.382.032 2.2.065 4.351.118 6.447s.118 4.116.192 6.094a308.659 308.659 0 003.112 34.382c.2 1.336.417 2.63.631 3.9.427 2.534.876 4.929 1.336 7.206a271.79 271.79 0 002.833 12.445l-.343.492a187.173 187.173 0 01-13.813 16.582c-17.373 18.731-38.594 33.987-56.556 44.934-2.565 1.561-5.068 3.036-7.484 4.426s-4.757 2.694-7 3.913a271.331 271.331 0 01-26.332 12.776s8.093-2.373 20.8-7.505a335.799 335.799 0 0010.35-4.373q1.859-.818 3.784-1.7c20.463-9.344 47.254-23.926 70.251-44.443 3.571-3.1 6.949-6.436 10.253-9.825a96.214 96.214 0 012.534 34.96q-.305 3.127-.812 6.586a29.514 29.514 0 01-3.582 10.456c-4.768 8.435-13.459 14.615-23.594 19.158a88.992 88.992 0 01-3.859 1.625 127.061 127.061 0 01-16.229 5.089c-25.001.248-50.595-1.398-70.652-3.205zm-99.01-128.122a176.371 176.371 0 0018.582-1.112c2.149-.235 4.351-.524 6.671-.855 9.279-1.347 20.27-3.5 35.59-6.821 2.994-.652 5.891-1.262 8.8-1.871l1.55-.331c.652 4.17 1.38 8.457 2.287 12.979 1.925 9.59 3.229 19.19 4.234 28.513-25.551-10.028-51.991-20.399-77.713-30.502zm-29.881-.481c3.946.075 7.516.16 10.8.235 2.117.054 4.1.1 6.04.139 9.9 3.924 19.736 7.836 29.432 11.685s19.244 7.655 28.588 11.365a3947.432 3947.432 0 0133.3 13.407c.161 1.7.342 3.421.492 5.089-11.461-4.33-23.4-8.874-35.7-13.642-23.376-9.06-48.062-18.624-72.951-28.278zm-565.46 225.475q-4.6-2.39-8.97-4.843a259.249 259.249 0 01-37.772-25.669q-3.175-2.614-6.094-5.217a186.22 186.22 0 01-5.6-5.2c-1.775-1.743-3.453-3.475-5.057-5.185s-3.122-3.4-4.565-5.078a145.303 145.303 0 01-7.708-9.718c-1.1-1.572-2.138-3.111-3.111-4.6s-1.882-2.94-2.716-4.341A86.883 86.883 0 0172.07 1342a65.292 65.292 0 01-2.865-6.4c-.77-1.871-1.411-3.443-1.8-4.757-.854-2.6-1.3-3.945-1.3-3.945l1.368 3.924q.321.978.8 2.149c.311.791.684 1.647 1.08 2.577a65.726 65.726 0 002.961 6.329q.882 1.8 1.957 3.72a137.506 137.506 0 008.328 12.8 161.372 161.372 0 0017.576 19.575 210.006 210.006 0 0018.443 15.224q6.879 5.068 14.721 10.05a285.307 285.307 0 0025.605 14.363 419.075 419.075 0 0040.027 17.608q5.4 2.069 10.98 4.063 16.742 6 35.035 11.343c32.457 9.526 68.305 17.5 106.547 23.959 38.242 6.479 78.889 11.386 121.034 15.3 30.779 2.854 62.4 4.982 94.53 6.489-16.047.674-32 1.369-47.714 2.138l-7.205.3c-13.492-1.016-26.909-2.106-40.123-3.379-31.689-2.983-62.532-6.757-92.146-11.354q-14.8-2.309-29.187-4.886c-38.327-6.864-74.228-15.213-106.772-25.113-16.293-4.875-31.656-10.36-46.1-15.983-7.152-2.983-14.1-5.944-20.794-8.981s-13.098-6.144-19.181-9.447zm458.048-282.543c.353-.8 2.127-1.283 5.1-1.283 4.318 0 11.172 1 19.949 3.517 6.468 1.839 9.954 9.045 17.052 10.018a109.911 109.911 0 0014.839 1.058 94.773 94.773 0 0017.127-1.572 149.897 149.897 0 007.891-1.668c5.238-1.251 10.509-2.7 16.282-4.116a188.763 188.763 0 0131.068-5.153c4.5-.364 8.447-.738 11.932-1.133a109.928 109.928 0 0016.389-2.833 45.883 45.883 0 0015.459-7.516c3.292-2.309 6.906-5.121 11.7-8.6 11.888-8.628 49.553-26.193 61.3-31.357a72.629 72.629 0 007.4-3.817c2.481-1.433 4.972-3 7.474-4.661 14.988-9.9 30.342-22.419 45.971-22.419a28.863 28.863 0 0115.834 4.832c-23.724-6.938-45.394 13.417-45.394 13.417s24.76 11.108 28.417 25.819c-.685-.845-1.369-1.679-2.138-2.459a48.694 48.694 0 00-5.143-4.939 438.162 438.162 0 00-2.651-2.213c-.952-.631-1.892-1.261-2.823-1.871s-1.8-1.219-2.715-1.743l-2.769-1.358c-.9-.438-1.764-.855-2.6-1.272-.867-.342-1.743-.6-2.555-.877-1.646-.524-3.09-1.091-4.437-1.411-1.358-.257-2.533-.481-3.507-.663l-1.283-.235-1.732-.321 2.8 1.262 3.154 1.433c.6.31 1.208.684 1.839 1.09s1.294.823 1.977 1.251 1.412.855 2.128 1.358l2.064 1.732 2.159 1.807c.694.652 1.336 1.411 2.009 2.127l2.032 2.192 1.806 2.48a41.869 41.869 0 013.314 5.228c1.059 1.753 1.785 3.742 2.672 5.527.332.962.7 1.892 1.048 2.822s.663 1.839.91 2.78c.1.31.149.588.234.9a34.659 34.659 0 01-5.217 4.832c-1.058.813-2.213 1.625-3.474 2.427s-2.62 1.625-4.095 2.438q-4.748 2.614-9.676 5.1-4.938 2.5-10.05 4.875a403.548 403.548 0 01-67.909 24.066c-.984.192-1.914.385-2.94.567-2.116.289-4.34.727-6.586.909-2.256.246-4.555.481-6.832.524a63.856 63.856 0 01-6.854.043 62.688 62.688 0 01-6.616-.567c-2.16-.235-4.117-.823-6.094-1.208-1.9-.524-3.625-1.24-5.3-1.807-1.6-.674-2.94-1.55-4.234-2.213a14.954 14.954 0 01-3.036-2.149l-1.913-1.561-.674-.545s.706.994 1.925 2.737a16.38 16.38 0 002.459 3.036c1.1 1.026 2.277 2.352 3.763 3.528 1.539 1.058 3.185 2.363 5.067 3.5 1.6.8 3.293 1.775 5.078 2.609-18.506 3.549-38.017 6.34-58.577 8.232l-.234.021c1.251-.267 2.512-.545 3.72-.834 3.3-.834 6.425-1.625 9.312-2.352 5.773-1.4 10.477-2.983 13.813-3.891l5.206-1.529-5.334 1.016c-3.41.577-8.21 1.7-14.08 2.523-2.919.449-6.084.93-9.44 1.443-3.347.47-6.9.813-10.563 1.251-3.645.481-7.452.706-11.3 1.016-3.839.353-7.761.492-11.664.62-3.914.214-7.816.16-11.654.16-3.838.064-7.592-.257-11.226-.353-3.624-.278-7.131-.492-10.413-.887-1.647-.182-3.251-.374-4.79-.588s-3.014-.438-4.426-.684c-2.833-.417-5.367-1.026-7.623-1.486a54.655 54.655 0 00-1.5-.374 17.972 17.972 0 01-1.625-4.3 13.207 13.207 0 01-.374-3.026 10.552 10.552 0 01.214-3.025 6.366 6.366 0 01.31-1.454c.15-.47.331-.919.492-1.379a10.106 10.106 0 011.176-2.469 14.11 14.11 0 011.251-2.031l1.187-1.443 1.058-1.283-1.411.866c-.459.289-1.015.631-1.646 1.026a15.382 15.382 0 00-1.978 1.614 12.187 12.187 0 00-2.16 2.213 18.733 18.733 0 00-3.58 6.532c-.054.15-.076.31-.129.46.63-6.03.834-13-6.041-16.646a17.6 17.6 0 00-3.4-1.336c-8.199-2.375-11.534-4.599-10.946-5.925zm-137.092-73.814c7.932 3.475 14.443 6.607 19.051 8.692 4.576 2.138 7.164 3.443 7.164 3.443s-.7-.2-1.988-.6-3.2-.984-5.6-1.753c-1.2-.406-2.533-.834-3.977-1.3-4.351-1.411-9.772-3.143-15.9-5.271-8.189-2.8-17.7-6.19-27.85-9.943-5.057-1.892-10.3-3.86-15.609-5.848-5.292-2.042-10.669-4.116-16.058-6.19-5.356-2.138-10.7-4.276-15.983-6.383-5.282-2.074-10.413-4.276-15.417-6.318a1159.449 1159.449 0 01-27.169-11.653c-3.967-1.743-7.581-3.4-10.777-4.875s-5.966-2.79-8.264-3.827c-4.586-2.138-7.174-3.442-7.174-3.442s2.79.8 7.6 2.352c4.79 1.6 11.7 3.72 19.875 6.564 8.19 2.8 17.7 6.19 27.839 9.943 5.068 1.9 10.328 3.774 15.609 5.848 5.3 2.042 10.681 4.116 16.057 6.19 5.357 2.138 10.713 4.276 15.984 6.383 5.249 2.16 10.412 4.276 15.416 6.34 9.991 4.148 19.271 8.122 27.171 11.648zm-5.581 71.459c-4.789-1.6-11.7-3.742-19.875-6.575-8.189-2.8-17.7-6.19-27.849-9.943-5.057-1.892-10.3-3.859-15.609-5.848l-16.058-6.19c-5.357-2.138-10.713-4.277-15.983-6.383-5.281-2.074-10.413-4.276-15.417-6.318-9.986-4.148-19.265-8.136-27.167-11.664-7.932-3.464-14.444-6.607-19.041-8.692-4.586-2.149-7.173-3.443-7.173-3.443s2.79.8 7.6 2.352c4.79 1.6 11.7 3.72 19.874 6.564 8.191 2.8 17.7 6.19 27.84 9.943 5.057 1.9 10.327 3.774 15.608 5.848 5.3 2.042 10.681 4.116 16.058 6.19 5.356 2.138 10.713 4.276 15.983 6.383 5.25 2.16 10.413 4.276 15.417 6.329 9.985 4.159 19.265 8.136 27.177 11.664 7.922 3.475 14.433 6.607 19.041 8.692 4.575 2.138 7.162 3.442 7.162 3.442s-2.776-.81-7.588-2.349zm126.935 5.313h.011l21.233 6.415a7.321 7.321 0 011.026 1.379 8.025 8.025 0 01.139 6.842l-23.413-9.772q-14.93-6.03-28.748-11.707c-4.6-1.882-9.1-3.71-13.471-5.5s-8.638-3.528-12.786-5.2q-8.372-3.4-16-6.554-3.8-1.572-7.409-3.079-7.216-2.983-13.557-5.656c-2.106-.887-4.137-1.732-6.094-2.555q-5.87-2.454-10.755-4.469c-4.854-2.063-8.938-3.785-12.134-5.142-2.128-.9-3.87-1.636-5.2-2.2l-3.025-1.272 8.392 3.036 3.56 1.294 8.831 3.2c1.646.609 3.389 1.251 5.206 1.924s3.731 1.368 5.721 2.106c11.941 4.373 26.8 9.793 43.7 16.218 12.359 4.7 25.883 9.761 40.2 15.16q7.17 2.718 14.573 5.535z"/><path data-name="Path 1116" d="M928.401 1254.553c2.255-2.6 4.276-5.239 6.126-7.794 1.936-2.491 3.486-5.057 5.014-7.334a116.353 116.353 0 006.329-11.664 47.7 47.7 0 001.881-4.661s-.544.877-1.549 2.416c-.343.513-.738 1.112-1.177 1.764-1.742 2.651-4.5 6.233-7.826 10.488-1.753 2.053-3.527 4.362-5.591 6.671-2 2.352-4.213 4.736-6.5 7.195-2.213 2.523-4.822 4.843-7.238 7.42-2.512 2.47-5.153 4.9-7.773 7.345-2.7 2.352-5.335 4.79-8.05 7.056-2.727 2.245-5.421 4.447-8.019 6.586-2.673 2.053-5.26 4.052-7.709 5.934-2.512 1.828-4.875 3.549-7.066 5.142-4.341 3.25-8.114 5.752-10.734 7.559-.652.46-1.23.866-1.742 1.229a240.996 240.996 0 00-2.064 1.486l-.267.2s1.667-.706 4.555-2.063c2.127-1.08 5.067-2.32 8.371-4.063a73.392 73.392 0 003.431-1.924c1.186-.684 2.437-1.379 3.72-2.117s2.6-1.507 3.913-2.363c2.619-1.743 5.377-3.582 8.242-5.485a323.749 323.749 0 008.446-6.383c2.812-2.277 5.55-4.715 8.35-7.1 2.641-2.534 5.3-5.068 7.837-7.644 1.229-1.326 2.458-2.63 3.656-3.934s2.355-2.615 3.434-3.962z"/><path data-name="Path 1117" d="M847.972 1205.513c.427 5.645 1.069 12.209 1.891 19.222.439 3.5.792 7.131 1.348 10.8.5 3.646 1.027 7.355 1.539 11.065.235 1.828.481 3.656.684 5.484s.385 3.646.5 5.452c.246 3.624.556 7.184.578 10.648.075 3.453.085 6.81-.033 9.975s-.278 6.19-.523 8.959c-.129 1.39-.268 2.715-.406 3.977s-.3 2.469-.461 3.592c-.31 2.256-.641 4.212-.951 5.827-.609 3.229-1.122 5.057-1.122 5.057s.246-.406.673-1.187c.2-.4.461-.887.738-1.465s.6-1.262.931-2.031a77.785 77.785 0 004.233-13.182 85.352 85.352 0 001.658-9.141 91.616 91.616 0 00.909-10.327q.128-2.694.128-5.484c0-1.85-.043-3.731-.149-5.613-.182-3.774-.589-7.591-1.016-11.407-.588-3.731-1.187-7.473-1.775-11.151-.545-3.667-1.283-7.238-1.881-10.712a515.67 515.67 0 00-2.897-14.618c-.32-1.486-.631-2.929-.951-4.309-2.427-11.044-4.618-18.324-4.618-18.324s.053 7.614.973 18.893z"/></g></svg>