<svg xmlns="http://www.w3.org/2000/svg" width="967.488" height="481.978"><path d="M420.395 324.539a7.543 7.543 0 00.473-.593c-.548.579-.726.797-.473.593zm516.252 93.356c-3.624-5.857-43.4-34.5-43.4-34.5l-10.11-.516c-12.326-9.141-21.047-21.351-28.176-32.736-1.453-1.735-2.913-3.389-4.378-5.034s-2.937-3.256-4.418-4.87q-3.626-3.953-7.245-7.912c-11.714-12.661-25.668-23.127-36.2-39.114-2.567-2.942-5.027-5.594-7.493-8.215q-3.7-3.888-7.434-7.744c-9.926-10.251-20.064-20.306-30.585-29.964-10.181-9.344-23.524-17.51-32-28.338-2.3-2.937-6.979-2.658-10.265-1.01-6.225 3.124-11.674 7.966-16.964 12.534-2.791 2.409-5.534 4.866-8.37 7.219l-2.739 2.405c-.331.389-.664.74-1 1.067a388.959 388.959 0 00-34.939-28.562c-8.14-5.861-16.139-11.552-22.706-19.171-6.815-7.908-12.108-16.922-17.7-25.727-10.237-16.124-19.4-30.215-36.243-40.194-4.6-2.724-10.615-.529-13.854 3.942-7.9 10.917-16.286 21.644-24.939 32.207-2.744-6.939-7.254-13.612-10.1-18.679-8.631-15.361-17.12-30.123-22.973-47a283.221 283.221 0 00-18.991-43.133c-8.257-15.159-8.777-27.076-11.687-44.636-.86-5.2-9.5-13.2-12.452-9.073-1.551 2.172-3.182 4.423-4.872 6.738s-3.44 4.69-5.186 7.109c-5.752 16.884-17.962 30.838-31.647 43.885q-2.206 3.336-4.34 6.71t-4.221 6.776q-2.088 3.4-4.141 6.8c-8.5 15.5-13.731 31.2-26.994 42.282-2.168 2.808-4.347 5.575-6.5 8.336-4.3 5.52-8.477 11.01-12.129 16.629q-3.223 4.066-6.473 8.116t-6.489 8.1q-9.992 12.493-20.137 24.864a57.584 57.584 0 01-5.4 6.032c-1.125 2.313-4.614 2.313-6.358 4.057-1.744-6.977-8.721-8.721-14.318-14.181a11.211 11.211 0 00-6.877-2.585 10 10 0 00-7.205 3c-24.637 24.025-48.3 48.953-71.817 74.033a52.085 52.085 0 01-10.814 8.458c-5.883 3.248-25.692 5.679-36.883 4-8.391 11.749-23.535 36.695-39.269 56.3-20.953 26.1-40.119 53.059-62.22 78.335-22.049 25.216-42.515 51.653-64.918 76.577-.244.27.093.635.363.373q8.576-8.3 17.242-16.483a.208.208 0 00.333.017c2.829-2.813 5.674-5.611 8.506-8.419 11.906-11.336 23.713-22.752 35.07-34.635 3.957-3.889 11.634-10.3 20.491-17.5-7.031 11.165-16.534 26.357-20.219 32.723a65.56 65.56 0 01-8.562 12.016c9.817-9.337 52.431-49.644 73.882-66.286-14.681 6.382-23.924 8.447-29.478 8.934 12.869-10.361 25.288-20.409 30.735-25.719 5.6-16.225 13.5-52.728 44.76-77.768 11.749 2.8 26.792 7.123 31.3 3.485 14.2-11.46 26.146-15.2 40.489-26.5-14.144 20.085-44.3 62.886-45.561 64.445-1.645 2.039-12.286 18.271-12.286 18.271l-17.6 2.84s-3.98 19.193-7.237 22.773c-2.714 2.981 85.591-84.694 129.894-130.681 2.953-3.059 5.69-5.9 8.128-8.343 5.351-2.6 8.84-7.83 12.328-11.318a216.308 216.308 0 01-11.184 20.493q-1.685 3.014-3.438 5.988c-5.841 9.916-12.188 19.546-18.431 29.261a.384.384 0 00.052.525q-2.779 3.82-5.573 7.65a.186.186 0 00.293.227c24.332-25.319 70.154-79.938 99.239-100.34 4.437 3.642-12.217 33-7.97 36.977l-53.5 73.442 92.686-92.187c-10.819 15.272-48.167 62.058-58.564 77.594-33.36 45.292-49.982 74.775-49.982 74.775s60.708-62.18 112.239-118.75a3.885 3.885 0 00.2.788c-3.314 6.4-5.037 13.574-8.1 20.184-4.434 9.56-10.872 18.379-17.13 26.807-.576.776.694 1.742 1.338 1.033 7.092-7.821 13.588-16.326 21.1-23.744 7.075-6.986 15.712-11.932 20.812-20.817a99.866 99.866 0 006.2-14.111c5.538-7.654 10.917-15.422 16.317-23.177 7.425-8.878 14.849-17.885 21.578-27.252.091-.126-.108-.276-.215-.164-9.846 10.341-21.152 18.712-31.979 27.942-5.452 4.65-10.566 9.675-15.715 14.657-.309.3-.631.595-.947.891l34.11-106.821s-90.127 77.3-71.6 55.861c4.633-5.362 11.332-15.757 18.819-28.29q1.873-3.132 3.8-6.431a33.378 33.378 0 017.858-13.608q1.988-3.485 3.984-7.017c11.622-20.554 23.106-41.544 30.488-53.984a215.218 215.218 0 013.9-6.366c2.24-3.464 3.689-5.271 4.1-4.849s2.934 3.239 6.556 7.793c7.244 9.108 18.817 25.112 26.226 42.437 2.557 5.979-1.769 20.631 1.24 26.319 14.772 27.916 39.871 42.06 39.871 42.06s-77.272 110.57-107.95 150.854a156.913 156.913 0 01-2.522 3.558c6.937-7.347 74.018-73.472 94.677-91.858-10.706 18.32-35.219 60.715-31.266 58.077 3.477-2.316 31.344-35.825 48.273-56.358 4.017 2.831 7.877 5.737 9.3 6.741a192.152 192.152 0 0137.97 35.369c1.634 2.006 1.261 1.751 2.665-.516 6.139-9.919-1.127-27.806 4.568-37.93.166.124 17.654 7.594 17.983 7.692l-11.9-39.39-10.069-20.221-24.166 13.922 17.118-59.837s36.613 61.261 39 63.179c1.286 1.033 36.332 19.715 62.349 41.549 14.317 20.38 33.486 38.574 35.847 40.789l6.588 11.583c-.886-.652-1.758-1.326-2.655-1.964-17.526-12.475-36.613-22.284-53.79-35.375-.183-.141-.422.169-.248.321 13.949 12.086 28.262 23.683 41.975 36.051 6.666 6.014 13.661 11.637 20.43 17.533q5.081 4.424 9.921 9.11c.8.773 1.732 1.594 2.7 2.458l40.178 56.682-28.366-76.055-17.062-13.193c-11.079-13.732-20.573-28.928-30.393-43.633.544-.279 1.083-.574 1.622-.869.9-.11 1.793-.242 2.688-.333 6.25-.631 13.444-7.409 17.461-3.19 6.872 7.216 42.093 27.573 49.438 34.314 10.333 9.481 6.672 16.608 7.51 24.485a129.72 129.72 0 01-15.66-8.048c-.1-.061-.213.086-.124.161 5.252 4.374 10.371 9.206 15.591 13.982q2.608 2.389 5.264 4.743c11.273 10.985 21.738 19.706 32.917 28.938q3.864 3.283 7.715 6.59t7.671 6.656s1.224 1.158 3.268 3.086c2.042 1.95 4.9 4.674 8.172 8.063 7.345 4.746 9.089 11.723 16.066 16.956s12.21 8.721 16.623 13.553c0 0 4.224 2.747 9.858 6.408l28.168 18.306 50.746 52.175s-27.212-50.894-30.837-56.752zM307.026 224.168c2.149-.429 2.149-2.173 3.057-1.636zM53.308 449.607c-1.322 1.256-2.069 1.971-2.069 1.971a19.156 19.156 0 002.068-1.972z" fill="#002581"/></svg>